<svg xmlns="http://www.w3.org/2000/svg" xmlns:xlink="http://www.w3.org/1999/xlink" width="375" viewBox="0 0 375 375" height="375" version="1.0"><defs><clipPath id="a"><path d="M 135 5.792969 L 335.609375 5.792969 L 335.609375 302 L 135 302 Z M 135 5.792969"/></clipPath><clipPath id="b"><path d="M 277.320312 139.339844 C 271.835938 100.21875 247.101562 65.464844 211.816406 47.351562 C 206.5 44.589844 201.007812 42.246094 195.335938 40.324219 C 152.015625 25.738281 131.089844 52.503906 151.390625 90.609375 C 126.488281 51.957031 129.527344 14.085938 164.347656 5.886719 C 172.15625 6.042969 180.195312 6.273438 188.472656 6.273438 C 194.171875 6.273438 199.710938 6.585938 205.101562 7.058594 C 372.171875 22.125 381.304688 274.121094 217.671875 301.453125 C 304.320312 260.472656 277.394531 139.351562 277.320312 139.351562 Z M 277.320312 139.339844" clip-rule="evenodd"/></clipPath><clipPath id="d"><path d="M 135 5.792969 L 166 5.792969 L 166 91 L 135 91 Z M 135 5.792969"/></clipPath><clipPath id="e"><path d="M 151.074219 43.992188 C 141.476562 53.363281 140.617188 70.386719 151.390625 90.609375 C 126.488281 51.957031 129.527344 14.085938 164.347656 5.886719 L 165.050781 5.960938 C 152.015625 14.472656 149.292969 30.816406 151.074219 43.992188 Z M 151.074219 43.992188" clip-rule="evenodd"/></clipPath><clipPath id="g"><path d="M 90 5.792969 L 284 5.792969 L 284 304.292969 L 90 304.292969 Z M 90 5.792969"/></clipPath><clipPath id="h"><path d="M 159.117188 103.027344 C 184.257812 137.777344 184.257812 176.429688 159.117188 211.179688 C 131.5625 249.289062 142.722656 278.730469 176.519531 276.070312 C 186.515625 275.292969 198.382812 271.777344 211.808594 264.828125 C 251.328125 244.519531 278.480469 203.371094 278.480469 156.125 C 278.488281 150.503906 278.097656 144.90625 277.3125 139.339844 C 294.09375 195.015625 274.046875 278.570312 217.664062 301.441406 C 198.855469 304.574219 177.542969 304.105469 158.355469 304.25 C 120.257812 304.640625 90.917969 300.34375 90.917969 249.039062 L 90.917969 208.679688 L 109.34375 208.679688 L 109.34375 182.289062 L 90.882812 182.289062 L 90.882812 165.8125 L 100.40625 165.8125 L 100.40625 137.855469 L 90.882812 137.855469 L 90.882812 120.832031 L 104.9375 120.832031 L 104.9375 92.953125 L 90.882812 92.953125 L 90.882812 61.015625 C 90.882812 7.132812 123.441406 5.167969 164.347656 5.894531 C 129.542969 14.09375 126.488281 51.949219 151.390625 90.617188 C 153.699219 94.921875 156.273438 99.0625 159.117188 103.035156 Z M 114.777344 117.707031 L 129.765625 117.707031 L 129.765625 132.71875 L 114.777344 132.71875 Z M 136.710938 129.34375 L 159.441406 129.34375 L 159.441406 152.070312 L 136.710938 152.070312 Z M 108.292969 140.980469 L 131.011719 140.980469 L 131.011719 163.703125 L 108.292969 163.703125 Z M 122.347656 174.011719 L 137.328125 174.011719 L 137.328125 189.003906 L 122.347656 189.003906 Z M 122.347656 174.011719" clip-rule="evenodd"/></clipPath><clipPath id="j"><path d="M 90 5.792969 L 284 5.792969 L 284 304.292969 L 90 304.292969 Z M 90 5.792969"/></clipPath><clipPath id="k"><path d="M 159.117188 103.027344 C 184.257812 137.777344 184.257812 176.429688 159.117188 211.179688 C 131.5625 249.289062 142.722656 278.730469 176.519531 276.070312 C 186.515625 275.292969 198.382812 271.777344 211.808594 264.828125 C 251.328125 244.519531 278.480469 203.371094 278.480469 156.125 C 278.488281 150.503906 278.097656 144.90625 277.3125 139.339844 C 294.09375 195.015625 274.046875 278.570312 217.664062 301.441406 C 198.855469 304.574219 177.542969 304.105469 158.355469 304.25 C 153.671875 304.324219 149.222656 304.25 144.851562 304.09375 C 123.222656 279.796875 135.714844 253.726562 102.457031 228.03125 C 97.675781 224.375 93.929688 221.332031 90.882812 218.664062 L 90.882812 208.679688 L 109.308594 208.679688 L 109.308594 182.289062 L 90.882812 182.289062 L 90.882812 165.8125 L 100.40625 165.8125 L 100.40625 137.855469 L 90.882812 137.855469 L 90.882812 120.832031 L 104.9375 120.832031 L 104.9375 92.953125 L 90.882812 92.953125 L 90.882812 61.015625 C 90.882812 7.132812 123.441406 5.167969 164.347656 5.894531 C 129.542969 14.09375 126.488281 51.949219 151.390625 90.617188 C 153.699219 94.921875 156.273438 99.0625 159.117188 103.035156 Z M 114.777344 117.707031 L 129.765625 117.707031 L 129.765625 132.71875 L 114.777344 132.71875 Z M 136.710938 129.34375 L 159.441406 129.34375 L 159.441406 152.070312 L 136.710938 152.070312 Z M 108.292969 140.980469 L 131.011719 140.980469 L 131.011719 163.703125 L 108.292969 163.703125 Z M 122.347656 174.011719 L 137.328125 174.011719 L 137.328125 189.003906 L 122.347656 189.003906 Z M 122.347656 174.011719" clip-rule="evenodd"/></clipPath><clipPath id="m"><path d="M 90 5.792969 L 178 5.792969 L 178 226 L 90 226 Z M 90 5.792969"/></clipPath><clipPath id="n"><path d="M 159.117188 103.027344 C 184.257812 137.777344 184.257812 176.429688 159.117188 211.179688 C 155.707031 215.847656 152.714844 220.765625 150.140625 225.9375 C 148.65625 201.257812 145.21875 187.363281 137.328125 175.726562 L 137.328125 174.011719 L 136.167969 174.011719 C 133.402344 170.324219 130.359375 166.890625 127.03125 163.703125 L 131.019531 163.703125 L 131.019531 140.980469 L 108.292969 140.980469 L 108.292969 147.769531 L 106.261719 146.132812 C 104.183594 144.476562 102.230469 142.679688 100.40625 140.742188 L 100.40625 137.84375 L 97.910156 137.84375 C 95.167969 134.480469 92.828125 130.863281 90.882812 126.988281 L 90.882812 120.824219 L 104.9375 120.824219 L 104.9375 92.953125 L 90.882812 92.953125 L 90.882812 61.015625 C 90.882812 7.132812 123.441406 5.167969 164.347656 5.894531 C 129.542969 14.09375 126.488281 51.949219 151.390625 90.617188 C 153.699219 94.921875 156.273438 99.0625 159.117188 103.035156 Z M 114.777344 117.707031 L 129.765625 117.707031 L 129.765625 132.71875 L 114.777344 132.71875 Z M 136.710938 129.34375 L 159.441406 129.34375 L 159.441406 152.070312 L 136.710938 152.070312 Z M 136.710938 129.34375" clip-rule="evenodd"/></clipPath><clipPath id="p"><path d="M 104 5.792969 L 178 5.792969 L 178 186 L 104 186 Z M 104 5.792969"/></clipPath><clipPath id="q"><path d="M 159.117188 103.027344 C 178.164062 129.265625 182.773438 157.789062 173.015625 185.179688 C 175.1875 159.253906 169.113281 143.789062 159.433594 130.28125 L 159.433594 129.34375 L 158.71875 129.34375 C 144.355469 109.898438 122.648438 94.359375 107.960938 56.816406 C 103.742188 46.117188 102.808594 31.429688 105.699219 17.539062 C 119.070312 5.960938 140.226562 5.496094 164.347656 5.886719 C 129.542969 14.085938 126.488281 51.941406 151.390625 90.609375 C 153.699219 94.914062 156.273438 99.054688 159.117188 103.027344 Z M 159.117188 103.027344" clip-rule="evenodd"/></clipPath><clipPath id="s"><path d="M 217 139 L 284 139 L 284 302 L 217 302 Z M 217 139"/></clipPath><clipPath id="t"><path d="M 259.050781 221.957031 C 262.199219 217.078125 264.988281 212 267.414062 206.71875 C 269.835938 201.441406 271.871094 196.015625 273.515625 190.445312 C 275.160156 184.871094 276.398438 179.210938 277.234375 173.464844 C 278.066406 167.714844 278.484375 161.9375 278.488281 156.125 C 278.496094 150.503906 278.105469 144.90625 277.320312 139.339844 C 294.101562 195.015625 274.054688 278.570312 217.671875 301.441406 C 242.5 284.035156 253.199219 250.214844 259.050781 221.945312 Z M 259.050781 221.957031" clip-rule="evenodd"/></clipPath><clipPath id="v"><path d="M 79.410156 95.296875 L 102.59375 95.296875 L 102.59375 118.488281 L 79.410156 118.488281 Z M 39.4375 119.503906 L 61.140625 119.503906 L 61.140625 141.214844 L 39.4375 141.214844 Z M 75.035156 140.355469 L 97.988281 140.355469 L 97.988281 163.308594 L 75.035156 163.308594 Z M 53.488281 151.988281 L 66.542969 151.988281 L 66.542969 165.109375 L 53.488281 165.109375 Z M 46.855469 173.777344 L 69.570312 173.777344 L 69.570312 196.5 L 46.855469 196.5 Z M 85.34375 184.628906 L 107.046875 184.628906 L 107.046875 206.335938 L 85.34375 206.335938 Z M 85.34375 184.628906"/></clipPath><linearGradient x1="240.1" gradientTransform="matrix(.36256 0 0 .36264 39.436 5.792)" xmlns:xlink="http://www.w3.org/1999/xlink" y1="407.77" x2="816.899" gradientUnits="userSpaceOnUse" y2="407.77" xlink:type="simple" xlink:actuate="onLoad" id="c" xlink:show="other"><stop stop-color="#2C005D" offset="0"/><stop stop-color="#2C005E" offset=".004"/><stop stop-color="#2D005F" offset=".008"/><stop stop-color="#2D0060" offset=".012"/><stop stop-color="#2E0060" offset=".016"/><stop stop-color="#2E0061" offset=".02"/><stop stop-color="#2F0062" offset=".023"/><stop stop-color="#2F0062" offset=".027"/><stop stop-color="#300063" offset=".031"/><stop stop-color="#300064" offset=".035"/><stop stop-color="#310064" offset=".039"/><stop stop-color="#310065" offset=".043"/><stop stop-color="#320066" offset=".047"/><stop stop-color="#306" offset=".051"/><stop stop-color="#330067" offset=".055"/><stop stop-color="#340068" offset=".059"/><stop stop-color="#340069" offset=".063"/><stop stop-color="#350069" offset=".066"/><stop stop-color="#35006A" offset=".07"/><stop stop-color="#36006B" offset=".074"/><stop stop-color="#36006B" offset=".078"/><stop stop-color="#37006C" offset=".082"/><stop stop-color="#37006D" offset=".086"/><stop stop-color="#38006D" offset=".09"/><stop stop-color="#38006E" offset=".094"/><stop stop-color="#39006F" offset=".098"/><stop stop-color="#390070" offset=".102"/><stop stop-color="#3A0070" offset=".105"/><stop stop-color="#3B0071" offset=".109"/><stop stop-color="#3B0072" offset=".113"/><stop stop-color="#3C0072" offset=".117"/><stop stop-color="#3C0073" offset=".121"/><stop stop-color="#3D0074" offset=".125"/><stop stop-color="#3D0074" offset=".129"/><stop stop-color="#3E0075" offset=".133"/><stop stop-color="#3E0076" offset=".137"/><stop stop-color="#3F0076" offset=".141"/><stop stop-color="#3F0077" offset=".145"/><stop stop-color="#400078" offset=".148"/><stop stop-color="#400079" offset=".152"/><stop stop-color="#410079" offset=".156"/><stop stop-color="#41007A" offset=".16"/><stop stop-color="#42007B" offset=".164"/><stop stop-color="#43007B" offset=".168"/><stop stop-color="#43007C" offset=".172"/><stop stop-color="#44007D" offset=".176"/><stop stop-color="#44007D" offset=".18"/><stop stop-color="#45007E" offset=".184"/><stop stop-color="#45007F" offset=".188"/><stop stop-color="#46007F" offset=".191"/><stop stop-color="#460080" offset=".195"/><stop stop-color="#470081" offset=".199"/><stop stop-color="#470082" offset=".203"/><stop stop-color="#480082" offset=".207"/><stop stop-color="#480083" offset=".211"/><stop stop-color="#490084" offset=".215"/><stop stop-color="#490084" offset=".219"/><stop stop-color="#4A0085" offset=".223"/><stop stop-color="#4B0086" offset=".227"/><stop stop-color="#4B0086" offset=".23"/><stop stop-color="#4C0087" offset=".234"/><stop stop-color="#4C0088" offset=".238"/><stop stop-color="#4D0088" offset=".242"/><stop stop-color="#4D0089" offset=".246"/><stop stop-color="#4E008A" offset=".25"/><stop stop-color="#4E008B" offset=".254"/><stop stop-color="#4F008B" offset=".258"/><stop stop-color="#4F008C" offset=".262"/><stop stop-color="#50008D" offset=".266"/><stop stop-color="#50008D" offset=".27"/><stop stop-color="#51008E" offset=".273"/><stop stop-color="#52008F" offset=".277"/><stop stop-color="#52008F" offset=".281"/><stop stop-color="#530090" offset=".285"/><stop stop-color="#530091" offset=".289"/><stop stop-color="#540091" offset=".293"/><stop stop-color="#540092" offset=".297"/><stop stop-color="#550093" offset=".301"/><stop stop-color="#550094" offset=".305"/><stop stop-color="#560094" offset=".309"/><stop stop-color="#560095" offset=".313"/><stop stop-color="#570096" offset=".316"/><stop stop-color="#570096" offset=".32"/><stop stop-color="#580097" offset=".324"/><stop stop-color="#580098" offset=".328"/><stop stop-color="#590098" offset=".332"/><stop stop-color="#5A0099" offset=".336"/><stop stop-color="#5A009A" offset=".34"/><stop stop-color="#5B009A" offset=".344"/><stop stop-color="#5B009B" offset=".348"/><stop stop-color="#5C009C" offset=".352"/><stop stop-color="#5C009D" offset=".355"/><stop stop-color="#5D009D" offset=".359"/><stop stop-color="#5D009E" offset=".363"/><stop stop-color="#5E009F" offset=".367"/><stop stop-color="#5E009F" offset=".371"/><stop stop-color="#5F00A0" offset=".375"/><stop stop-color="#5F00A1" offset=".379"/><stop stop-color="#6000A1" offset=".383"/><stop stop-color="#6000A2" offset=".387"/><stop stop-color="#6100A3" offset=".391"/><stop stop-color="#6200A3" offset=".395"/><stop stop-color="#6200A4" offset=".398"/><stop stop-color="#6300A5" offset=".402"/><stop stop-color="#6300A6" offset=".406"/><stop stop-color="#6400A6" offset=".41"/><stop stop-color="#6400A7" offset=".414"/><stop stop-color="#6500A8" offset=".418"/><stop stop-color="#6500A8" offset=".422"/><stop stop-color="#6600A9" offset=".426"/><stop stop-color="#60A" offset=".43"/><stop stop-color="#6700AA" offset=".434"/><stop stop-color="#6700AB" offset=".438"/><stop stop-color="#6800AC" offset=".441"/><stop stop-color="#6800AC" offset=".445"/><stop stop-color="#6900AD" offset=".449"/><stop stop-color="#6A00AE" offset=".453"/><stop stop-color="#6A00AF" offset=".457"/><stop stop-color="#6B00AF" offset=".461"/><stop stop-color="#6B00B0" offset=".465"/><stop stop-color="#6C00B1" offset=".469"/><stop stop-color="#6C00B1" offset=".473"/><stop stop-color="#6D00B2" offset=".477"/><stop stop-color="#6D00B3" offset=".48"/><stop stop-color="#6E00B3" offset=".484"/><stop stop-color="#6E00B4" offset=".488"/><stop stop-color="#6F00B5" offset=".492"/><stop stop-color="#6F00B6" offset=".496"/><stop stop-color="#7000B6" offset=".5"/><stop stop-color="#7000B7" offset=".504"/><stop stop-color="#7100B8" offset=".508"/><stop stop-color="#7200B8" offset=".512"/><stop stop-color="#7200B9" offset=".516"/><stop stop-color="#7300BA" offset=".52"/><stop stop-color="#7300BA" offset=".523"/><stop stop-color="#7400BB" offset=".527"/><stop stop-color="#7400BC" offset=".531"/><stop stop-color="#7500BC" offset=".535"/><stop stop-color="#7500BD" offset=".539"/><stop stop-color="#7600BE" offset=".543"/><stop stop-color="#7600BF" offset=".547"/><stop stop-color="#7700BF" offset=".551"/><stop stop-color="#7700C0" offset=".555"/><stop stop-color="#7800C1" offset=".559"/><stop stop-color="#7800C1" offset=".563"/><stop stop-color="#7900C2" offset=".566"/><stop stop-color="#7A00C3" offset=".57"/><stop stop-color="#7A00C3" offset=".574"/><stop stop-color="#7B00C4" offset=".578"/><stop stop-color="#7B00C5" offset=".582"/><stop stop-color="#7C00C5" offset=".586"/><stop stop-color="#7C00C6" offset=".59"/><stop stop-color="#7D00C7" offset=".594"/><stop stop-color="#7D00C8" offset=".598"/><stop stop-color="#7E00C8" offset=".602"/><stop stop-color="#7E00C9" offset=".605"/><stop stop-color="#7F00CA" offset=".609"/><stop stop-color="#7F00CA" offset=".613"/><stop stop-color="#8000CB" offset=".617"/><stop stop-color="#8000CC" offset=".621"/><stop stop-color="#8100CC" offset=".625"/><stop stop-color="#8200CD" offset=".629"/><stop stop-color="#8200CE" offset=".633"/><stop stop-color="#8300CE" offset=".637"/><stop stop-color="#8300CF" offset=".641"/><stop stop-color="#8400D0" offset=".645"/><stop stop-color="#8400D1" offset=".648"/><stop stop-color="#8500D1" offset=".652"/><stop stop-color="#8500D2" offset=".656"/><stop stop-color="#8600D3" offset=".66"/><stop stop-color="#8600D3" offset=".664"/><stop stop-color="#8700D4" offset=".668"/><stop stop-color="#8700D5" offset=".672"/><stop stop-color="#8800D5" offset=".676"/><stop stop-color="#8900D6" offset=".68"/><stop stop-color="#8900D7" offset=".684"/><stop stop-color="#8A00D7" offset=".688"/><stop stop-color="#8A00D8" offset=".691"/><stop stop-color="#8B00D9" offset=".695"/><stop stop-color="#8B00DA" offset=".699"/><stop stop-color="#8C00DA" offset=".703"/><stop stop-color="#8C00DB" offset=".707"/><stop stop-color="#8D00DC" offset=".711"/><stop stop-color="#8D00DC" offset=".715"/><stop stop-color="#8E00DD" offset=".719"/><stop stop-color="#8E00DE" offset=".723"/><stop stop-color="#8F00DE" offset=".727"/><stop stop-color="#8F00DF" offset=".73"/><stop stop-color="#9000E0" offset=".734"/><stop stop-color="#9100E0" offset=".738"/><stop stop-color="#9100E1" offset=".742"/><stop stop-color="#9200E2" offset=".746"/><stop stop-color="#9200E3" offset=".75"/><stop stop-color="#9300E3" offset=".754"/><stop stop-color="#9300E4" offset=".758"/><stop stop-color="#9400E5" offset=".762"/><stop stop-color="#9400E5" offset=".766"/><stop stop-color="#9500E6" offset=".77"/><stop stop-color="#9500E7" offset=".773"/><stop stop-color="#9600E7" offset=".777"/><stop stop-color="#9600E8" offset=".781"/><stop stop-color="#9700E9" offset=".785"/><stop stop-color="#9700E9" offset=".789"/><stop stop-color="#9800EA" offset=".793"/><stop stop-color="#9900EB" offset=".797"/><stop stop-color="#9900EC" offset=".801"/><stop stop-color="#9A00EC" offset=".805"/><stop stop-color="#9A00ED" offset=".809"/><stop stop-color="#9B00EE" offset=".813"/><stop stop-color="#9B00EE" offset=".816"/><stop stop-color="#9C00EF" offset=".82"/><stop stop-color="#9C00F0" offset=".824"/><stop stop-color="#9D00F0" offset=".828"/><stop stop-color="#9D00F1" offset=".832"/><stop stop-color="#9E00F2" offset=".836"/><stop stop-color="#9E00F2" offset=".84"/><stop stop-color="#9F00F3" offset=".844"/><stop stop-color="#9F00F4" offset=".848"/><stop stop-color="#A000F5" offset=".852"/><stop stop-color="#A100F5" offset=".855"/><stop stop-color="#A100F6" offset=".859"/><stop stop-color="#A200F7" offset=".863"/><stop stop-color="#A200F7" offset=".867"/><stop stop-color="#A300F8" offset=".871"/><stop stop-color="#A300F9" offset=".875"/><stop stop-color="#A400F9" offset=".879"/><stop stop-color="#A400FA" offset=".883"/><stop stop-color="#A500FB" offset=".887"/><stop stop-color="#A500FC" offset=".891"/><stop stop-color="#A600FC" offset=".895"/><stop stop-color="#A600FD" offset=".898"/><stop stop-color="#A700FE" offset=".902"/><stop stop-color="#A700FE" offset=".906"/><stop stop-color="#A800FF" offset=".938"/><stop stop-color="#A800FF" offset="1"/></linearGradient><linearGradient x1="240.1" gradientTransform="matrix(.36256 0 0 .36264 39.436 5.792)" xmlns:xlink="http://www.w3.org/1999/xlink" y1="117.07" x2="346.47" gradientUnits="userSpaceOnUse" y2="117.07" xlink:type="simple" xlink:actuate="onLoad" id="f" xlink:show="other"><stop stop-color="#250055" offset="0"/><stop stop-color="#250055" offset=".5"/><stop stop-color="#250055" offset=".625"/><stop stop-color="#250055" offset=".688"/><stop stop-color="#250055" offset=".719"/><stop stop-color="#250055" offset=".734"/><stop stop-color="#260056" offset=".75"/><stop stop-color="#260057" offset=".766"/><stop stop-color="#270057" offset=".781"/><stop stop-color="#270058" offset=".797"/><stop stop-color="#270058" offset=".813"/><stop stop-color="#280059" offset=".828"/><stop stop-color="#280059" offset=".844"/><stop stop-color="#29005A" offset=".859"/><stop stop-color="#29005A" offset=".875"/><stop stop-color="#2A005B" offset=".891"/><stop stop-color="#2A005C" offset=".906"/><stop stop-color="#2A005C" offset=".922"/><stop stop-color="#2B005D" offset=".938"/><stop stop-color="#2B005D" offset=".953"/><stop stop-color="#2C005E" offset=".969"/><stop stop-color="#2C005E" offset=".984"/><stop stop-color="#2D005F" offset="1"/></linearGradient><linearGradient x1="43.534" gradientTransform="matrix(.36256 0 0 .36264 39.436 5.792)" xmlns:xlink="http://www.w3.org/1999/xlink" y1="722.492" x2="741.603" gradientUnits="userSpaceOnUse" y2="40.115" xlink:type="simple" xlink:actuate="onLoad" id="i" xlink:show="other"><stop stop-color="#06294A" offset="0"/><stop stop-color="#062B4C" offset=".004"/><stop stop-color="#062C4E" offset=".008"/><stop stop-color="#072E4F" offset=".012"/><stop stop-color="#073051" offset=".016"/><stop stop-color="#073153" offset=".02"/><stop stop-color="#083355" offset=".023"/><stop stop-color="#083557" offset=".027"/><stop stop-color="#093659" offset=".031"/><stop stop-color="#09385A" offset=".035"/><stop stop-color="#093A5C" offset=".039"/><stop stop-color="#0A3C5E" offset=".043"/><stop stop-color="#0A3D60" offset=".047"/><stop stop-color="#0A3F62" offset=".051"/><stop stop-color="#0B4164" offset=".055"/><stop stop-color="#0B4265" offset=".059"/><stop stop-color="#0C4467" offset=".063"/><stop stop-color="#0C4669" offset=".066"/><stop stop-color="#0C476B" offset=".07"/><stop stop-color="#0D496D" offset=".074"/><stop stop-color="#0D4B6F" offset=".078"/><stop stop-color="#0D4C70" offset=".082"/><stop stop-color="#0E4E72" offset=".086"/><stop stop-color="#0E5074" offset=".09"/><stop stop-color="#0E5276" offset=".094"/><stop stop-color="#0F5378" offset=".098"/><stop stop-color="#0F557A" offset=".102"/><stop stop-color="#10577B" offset=".105"/><stop stop-color="#10587D" offset=".109"/><stop stop-color="#105A7F" offset=".113"/><stop stop-color="#115C81" offset=".117"/><stop stop-color="#115D83" offset=".121"/><stop stop-color="#115F85" offset=".125"/><stop stop-color="#126186" offset=".129"/><stop stop-color="#126388" offset=".133"/><stop stop-color="#13648A" offset=".137"/><stop stop-color="#13668C" offset=".141"/><stop stop-color="#13688E" offset=".145"/><stop stop-color="#146990" offset=".148"/><stop stop-color="#146B91" offset=".152"/><stop stop-color="#146D93" offset=".156"/><stop stop-color="#156E95" offset=".16"/><stop stop-color="#157097" offset=".164"/><stop stop-color="#167299" offset=".168"/><stop stop-color="#16739B" offset=".172"/><stop stop-color="#16759C" offset=".176"/><stop stop-color="#17779E" offset=".18"/><stop stop-color="#1779A0" offset=".184"/><stop stop-color="#177AA2" offset=".188"/><stop stop-color="#187CA4" offset=".191"/><stop stop-color="#187EA6" offset=".195"/><stop stop-color="#187FA7" offset=".199"/><stop stop-color="#1981A9" offset=".203"/><stop stop-color="#1983AB" offset=".207"/><stop stop-color="#1A84AD" offset=".211"/><stop stop-color="#1A86AF" offset=".215"/><stop stop-color="#1A88B1" offset=".219"/><stop stop-color="#1B89B2" offset=".223"/><stop stop-color="#1B8BB4" offset=".227"/><stop stop-color="#1B8DB6" offset=".23"/><stop stop-color="#1C8FB8" offset=".234"/><stop stop-color="#1C90BA" offset=".238"/><stop stop-color="#1D92BC" offset=".242"/><stop stop-color="#1D94BD" offset=".246"/><stop stop-color="#1D95BF" offset=".25"/><stop stop-color="#1E97C1" offset=".254"/><stop stop-color="#1E99C3" offset=".258"/><stop stop-color="#1E9AC5" offset=".262"/><stop stop-color="#1F9CC7" offset=".266"/><stop stop-color="#1F9EC9" offset=".27"/><stop stop-color="#1F9FCA" offset=".273"/><stop stop-color="#20A1CC" offset=".277"/><stop stop-color="#20A3CE" offset=".281"/><stop stop-color="#21A5D0" offset=".285"/><stop stop-color="#21A6D2" offset=".289"/><stop stop-color="#21A8D4" offset=".293"/><stop stop-color="#22AAD5" offset=".297"/><stop stop-color="#22ABD7" offset=".301"/><stop stop-color="#22ADD9" offset=".305"/><stop stop-color="#23AFDB" offset=".309"/><stop stop-color="#23B0DD" offset=".313"/><stop stop-color="#24B2DF" offset=".316"/><stop stop-color="#24B4E0" offset=".32"/><stop stop-color="#24B5E2" offset=".324"/><stop stop-color="#25B7E4" offset=".328"/><stop stop-color="#25B9E6" offset=".332"/><stop stop-color="#25BBE8" offset=".336"/><stop stop-color="#26BCEA" offset=".34"/><stop stop-color="#26BEEB" offset=".344"/><stop stop-color="#26C0ED" offset=".348"/><stop stop-color="#27C1EF" offset=".352"/><stop stop-color="#27C3F1" offset=".355"/><stop stop-color="#28C5F3" offset=".359"/><stop stop-color="#28C6F5" offset=".363"/><stop stop-color="#28C8F6" offset=".367"/><stop stop-color="#29CAF8" offset=".371"/><stop stop-color="#29CBFA" offset=".375"/><stop stop-color="#29CDFC" offset=".379"/><stop stop-color="#2ACFFE" offset=".383"/><stop stop-color="#2ACFFE" offset=".387"/><stop stop-color="#2AD0FF" offset=".391"/><stop stop-color="#2AD0FF" offset=".406"/><stop stop-color="#2AD0FF" offset=".411"/><stop stop-color="#2AD0FF" offset=".438"/><stop stop-color="#2AD0FF" offset=".5"/><stop stop-color="#2AD0FF" offset=".589"/><stop stop-color="#2AD0FF" offset="1"/></linearGradient><linearGradient x1="24.989" gradientTransform="matrix(.36256 0 0 .36264 39.436 5.792)" xmlns:xlink="http://www.w3.org/1999/xlink" y1="674.053" x2="771.722" gradientUnits="userSpaceOnUse" y2="88.401" xlink:type="simple" xlink:actuate="onLoad" id="l" xlink:show="other"><stop stop-color="#000F2E" offset="0"/><stop stop-color="#000F2E" offset=".008"/><stop stop-color="#00102E" offset=".012"/><stop stop-color="#00102F" offset=".016"/><stop stop-color="#011231" offset=".02"/><stop stop-color="#011333" offset=".023"/><stop stop-color="#011534" offset=".027"/><stop stop-color="#021736" offset=".031"/><stop stop-color="#021838" offset=".035"/><stop stop-color="#021A3A" offset=".039"/><stop stop-color="#031C3B" offset=".043"/><stop stop-color="#031D3D" offset=".047"/><stop stop-color="#031F3F" offset=".051"/><stop stop-color="#042041" offset=".055"/><stop stop-color="#042243" offset=".059"/><stop stop-color="#052444" offset=".063"/><stop stop-color="#052546" offset=".066"/><stop stop-color="#052748" offset=".07"/><stop stop-color="#06294A" offset=".074"/><stop stop-color="#062A4C" offset=".078"/><stop stop-color="#062C4D" offset=".082"/><stop stop-color="#072E4F" offset=".086"/><stop stop-color="#072F51" offset=".09"/><stop stop-color="#073153" offset=".094"/><stop stop-color="#083354" offset=".098"/><stop stop-color="#083456" offset=".102"/><stop stop-color="#083658" offset=".105"/><stop stop-color="#09385A" offset=".109"/><stop stop-color="#09395C" offset=".113"/><stop stop-color="#0A3B5D" offset=".117"/><stop stop-color="#0A3C5F" offset=".121"/><stop stop-color="#0A3E61" offset=".125"/><stop stop-color="#0B4063" offset=".129"/><stop stop-color="#0B4164" offset=".133"/><stop stop-color="#0B4366" offset=".137"/><stop stop-color="#0C4568" offset=".141"/><stop stop-color="#0C466A" offset=".145"/><stop stop-color="#0C486C" offset=".148"/><stop stop-color="#0D4A6D" offset=".152"/><stop stop-color="#0D4B6F" offset=".156"/><stop stop-color="#0D4D71" offset=".16"/><stop stop-color="#0E4F73" offset=".164"/><stop stop-color="#0E5075" offset=".168"/><stop stop-color="#0F5276" offset=".172"/><stop stop-color="#0F5478" offset=".176"/><stop stop-color="#0F557A" offset=".18"/><stop stop-color="#10577C" offset=".184"/><stop stop-color="#10587D" offset=".188"/><stop stop-color="#105A7F" offset=".191"/><stop stop-color="#115C81" offset=".195"/><stop stop-color="#115D83" offset=".199"/><stop stop-color="#115F85" offset=".203"/><stop stop-color="#126186" offset=".207"/><stop stop-color="#126288" offset=".211"/><stop stop-color="#13648A" offset=".215"/><stop stop-color="#13668C" offset=".219"/><stop stop-color="#13678D" offset=".223"/><stop stop-color="#14698F" offset=".227"/><stop stop-color="#146B91" offset=".23"/><stop stop-color="#146C93" offset=".234"/><stop stop-color="#156E95" offset=".238"/><stop stop-color="#157096" offset=".242"/><stop stop-color="#157198" offset=".246"/><stop stop-color="#16739A" offset=".25"/><stop stop-color="#16749C" offset=".254"/><stop stop-color="#16769E" offset=".258"/><stop stop-color="#17789F" offset=".262"/><stop stop-color="#1779A1" offset=".266"/><stop stop-color="#187BA3" offset=".27"/><stop stop-color="#187DA5" offset=".273"/><stop stop-color="#187EA6" offset=".277"/><stop stop-color="#1980A8" offset=".281"/><stop stop-color="#1982AA" offset=".285"/><stop stop-color="#1983AC" offset=".289"/><stop stop-color="#1A85AE" offset=".293"/><stop stop-color="#1A87AF" offset=".297"/><stop stop-color="#1A88B1" offset=".301"/><stop stop-color="#1B8AB3" offset=".305"/><stop stop-color="#1B8CB5" offset=".309"/><stop stop-color="#1B8DB7" offset=".313"/><stop stop-color="#1C8FB8" offset=".316"/><stop stop-color="#1C90BA" offset=".32"/><stop stop-color="#1D92BC" offset=".324"/><stop stop-color="#1D94BE" offset=".328"/><stop stop-color="#1D95BF" offset=".332"/><stop stop-color="#1E97C1" offset=".336"/><stop stop-color="#1E99C3" offset=".34"/><stop stop-color="#1E9AC5" offset=".344"/><stop stop-color="#1F9CC7" offset=".348"/><stop stop-color="#1F9EC8" offset=".352"/><stop stop-color="#1F9FCA" offset=".355"/><stop stop-color="#20A1CC" offset=".359"/><stop stop-color="#20A3CE" offset=".363"/><stop stop-color="#21A4CF" offset=".367"/><stop stop-color="#21A6D1" offset=".371"/><stop stop-color="#21A7D3" offset=".375"/><stop stop-color="#22A9D5" offset=".379"/><stop stop-color="#22ABD7" offset=".383"/><stop stop-color="#22ACD8" offset=".387"/><stop stop-color="#23AEDA" offset=".391"/><stop stop-color="#23B0DC" offset=".395"/><stop stop-color="#23B1DE" offset=".398"/><stop stop-color="#24B3E0" offset=".402"/><stop stop-color="#24B5E1" offset=".406"/><stop stop-color="#24B6E3" offset=".41"/><stop stop-color="#25B8E5" offset=".414"/><stop stop-color="#25BAE7" offset=".418"/><stop stop-color="#26BBE8" offset=".422"/><stop stop-color="#26BDEA" offset=".426"/><stop stop-color="#26BFEC" offset=".43"/><stop stop-color="#27C0EE" offset=".434"/><stop stop-color="#27C2F0" offset=".438"/><stop stop-color="#27C3F1" offset=".441"/><stop stop-color="#28C5F3" offset=".445"/><stop stop-color="#28C7F5" offset=".449"/><stop stop-color="#28C8F7" offset=".453"/><stop stop-color="#29CAF8" offset=".457"/><stop stop-color="#29CCFA" offset=".461"/><stop stop-color="#29CDFC" offset=".465"/><stop stop-color="#2ACFFE" offset=".469"/><stop stop-color="#2AD0FE" offset=".473"/><stop stop-color="#2AD0FF" offset=".477"/><stop stop-color="#2AD0FF" offset=".484"/><stop stop-color="#2AD0FF" offset=".5"/><stop stop-color="#2AD0FF" offset=".535"/><stop stop-color="#2AD0FF" offset="1"/></linearGradient><linearGradient x1="40.376" gradientTransform="matrix(.36256 0 0 .36264 39.436 5.792)" xmlns:xlink="http://www.w3.org/1999/xlink" y1="457.86" x2="498.755" gradientUnits="userSpaceOnUse" y2="145.955" xlink:type="simple" xlink:actuate="onLoad" id="o" xlink:show="other"><stop stop-color="#000F2E" offset="0"/><stop stop-color="#000F2E" offset=".063"/><stop stop-color="#000F2E" offset=".094"/><stop stop-color="#00102F" offset=".098"/><stop stop-color="#001130" offset=".102"/><stop stop-color="#011332" offset=".105"/><stop stop-color="#011433" offset=".109"/><stop stop-color="#011534" offset=".113"/><stop stop-color="#021636" offset=".117"/><stop stop-color="#021737" offset=".121"/><stop stop-color="#021938" offset=".125"/><stop stop-color="#021A3A" offset=".129"/><stop stop-color="#031B3B" offset=".133"/><stop stop-color="#031C3C" offset=".137"/><stop stop-color="#031E3E" offset=".141"/><stop stop-color="#031F3F" offset=".145"/><stop stop-color="#042040" offset=".148"/><stop stop-color="#042142" offset=".152"/><stop stop-color="#042343" offset=".156"/><stop stop-color="#052444" offset=".16"/><stop stop-color="#052546" offset=".164"/><stop stop-color="#052647" offset=".168"/><stop stop-color="#052748" offset=".172"/><stop stop-color="#06294A" offset=".176"/><stop stop-color="#062A4B" offset=".18"/><stop stop-color="#062B4C" offset=".184"/><stop stop-color="#062C4E" offset=".188"/><stop stop-color="#072E4F" offset=".191"/><stop stop-color="#072F50" offset=".195"/><stop stop-color="#073052" offset=".199"/><stop stop-color="#073153" offset=".203"/><stop stop-color="#083354" offset=".207"/><stop stop-color="#083456" offset=".211"/><stop stop-color="#083557" offset=".215"/><stop stop-color="#093658" offset=".219"/><stop stop-color="#09385A" offset=".223"/><stop stop-color="#09395B" offset=".227"/><stop stop-color="#093A5C" offset=".23"/><stop stop-color="#0A3B5E" offset=".234"/><stop stop-color="#0A3C5F" offset=".238"/><stop stop-color="#0A3E60" offset=".242"/><stop stop-color="#0A3F62" offset=".246"/><stop stop-color="#0B4063" offset=".25"/><stop stop-color="#0B4164" offset=".254"/><stop stop-color="#0B4366" offset=".258"/><stop stop-color="#0C4467" offset=".262"/><stop stop-color="#0C4568" offset=".266"/><stop stop-color="#0C466A" offset=".27"/><stop stop-color="#0C486B" offset=".273"/><stop stop-color="#0D496C" offset=".277"/><stop stop-color="#0D4A6E" offset=".281"/><stop stop-color="#0D4B6F" offset=".285"/><stop stop-color="#0D4D70" offset=".289"/><stop stop-color="#0E4E72" offset=".293"/><stop stop-color="#0E4F73" offset=".297"/><stop stop-color="#0E5075" offset=".301"/><stop stop-color="#0E5176" offset=".305"/><stop stop-color="#0F5377" offset=".309"/><stop stop-color="#0F5479" offset=".313"/><stop stop-color="#0F557A" offset=".316"/><stop stop-color="#10567B" offset=".32"/><stop stop-color="#10587D" offset=".324"/><stop stop-color="#10597E" offset=".328"/><stop stop-color="#105A7F" offset=".332"/><stop stop-color="#115B81" offset=".336"/><stop stop-color="#115D82" offset=".34"/><stop stop-color="#115E83" offset=".344"/><stop stop-color="#115F85" offset=".348"/><stop stop-color="#126086" offset=".352"/><stop stop-color="#126287" offset=".355"/><stop stop-color="#126389" offset=".359"/><stop stop-color="#13648A" offset=".363"/><stop stop-color="#13658B" offset=".367"/><stop stop-color="#13668D" offset=".371"/><stop stop-color="#13688E" offset=".375"/><stop stop-color="#14698F" offset=".379"/><stop stop-color="#146A91" offset=".383"/><stop stop-color="#146B92" offset=".387"/><stop stop-color="#146D93" offset=".391"/><stop stop-color="#156E95" offset=".395"/><stop stop-color="#156F96" offset=".398"/><stop stop-color="#157097" offset=".402"/><stop stop-color="#157299" offset=".406"/><stop stop-color="#16739A" offset=".41"/><stop stop-color="#16749B" offset=".414"/><stop stop-color="#16759D" offset=".418"/><stop stop-color="#17769E" offset=".422"/><stop stop-color="#17789F" offset=".426"/><stop stop-color="#1779A1" offset=".43"/><stop stop-color="#177AA2" offset=".434"/><stop stop-color="#187BA3" offset=".438"/><stop stop-color="#187DA5" offset=".441"/><stop stop-color="#187EA6" offset=".445"/><stop stop-color="#187FA7" offset=".449"/><stop stop-color="#1980A9" offset=".453"/><stop stop-color="#1982AA" offset=".457"/><stop stop-color="#1983AB" offset=".461"/><stop stop-color="#1A84AD" offset=".465"/><stop stop-color="#1A85AE" offset=".469"/><stop stop-color="#1A87AF" offset=".473"/><stop stop-color="#1A88B1" offset=".477"/><stop stop-color="#1B89B2" offset=".48"/><stop stop-color="#1B8AB3" offset=".484"/><stop stop-color="#1B8BB5" offset=".488"/><stop stop-color="#1B8DB6" offset=".492"/><stop stop-color="#1C8EB7" offset=".496"/><stop stop-color="#1C8FB9" offset=".5"/><stop stop-color="#1C90BA" offset=".504"/><stop stop-color="#1C92BB" offset=".508"/><stop stop-color="#1D93BD" offset=".512"/><stop stop-color="#1D94BE" offset=".516"/><stop stop-color="#1D95BF" offset=".52"/><stop stop-color="#1E97C1" offset=".523"/><stop stop-color="#1E98C2" offset=".527"/><stop stop-color="#1E99C3" offset=".531"/><stop stop-color="#1E9AC5" offset=".535"/><stop stop-color="#1F9CC6" offset=".539"/><stop stop-color="#1F9DC7" offset=".543"/><stop stop-color="#1F9EC9" offset=".547"/><stop stop-color="#1F9FCA" offset=".551"/><stop stop-color="#20A0CB" offset=".555"/><stop stop-color="#20A2CD" offset=".559"/><stop stop-color="#20A3CE" offset=".563"/><stop stop-color="#21A4CF" offset=".566"/><stop stop-color="#21A5D1" offset=".57"/><stop stop-color="#21A7D2" offset=".574"/><stop stop-color="#21A8D3" offset=".578"/><stop stop-color="#22A9D5" offset=".582"/><stop stop-color="#22AAD6" offset=".586"/><stop stop-color="#22ACD7" offset=".59"/><stop stop-color="#22ADD9" offset=".594"/><stop stop-color="#23AEDA" offset=".598"/><stop stop-color="#23AFDB" offset=".602"/><stop stop-color="#23B1DD" offset=".605"/><stop stop-color="#23B2DE" offset=".609"/><stop stop-color="#24B3DF" offset=".613"/><stop stop-color="#24B4E1" offset=".617"/><stop stop-color="#24B5E2" offset=".621"/><stop stop-color="#25B7E3" offset=".625"/><stop stop-color="#25B8E5" offset=".629"/><stop stop-color="#25B9E6" offset=".633"/><stop stop-color="#25BAE8" offset=".637"/><stop stop-color="#26BCE9" offset=".641"/><stop stop-color="#26BDEA" offset=".645"/><stop stop-color="#26BEEC" offset=".648"/><stop stop-color="#26BFED" offset=".652"/><stop stop-color="#27C1EE" offset=".656"/><stop stop-color="#27C2F0" offset=".66"/><stop stop-color="#27C3F1" offset=".664"/><stop stop-color="#27C4F2" offset=".668"/><stop stop-color="#28C6F4" offset=".672"/><stop stop-color="#28C7F5" offset=".676"/><stop stop-color="#28C8F6" offset=".68"/><stop stop-color="#29C9F8" offset=".684"/><stop stop-color="#29CAF9" offset=".688"/><stop stop-color="#29CCFA" offset=".691"/><stop stop-color="#29CDFC" offset=".695"/><stop stop-color="#2ACEFD" offset=".699"/><stop stop-color="#2ACFFE" offset=".703"/><stop stop-color="#2AD0FF" offset=".719"/><stop stop-color="#2AD0FF" offset=".75"/><stop stop-color="#2AD0FF" offset="1"/></linearGradient><linearGradient x1="98.99" gradientTransform="matrix(.36256 0 0 .36264 39.436 5.792)" xmlns:xlink="http://www.w3.org/1999/xlink" y1="382.943" x2="479.845" gradientUnits="userSpaceOnUse" y2="124.533" xlink:type="simple" xlink:actuate="onLoad" id="r" xlink:show="other"><stop stop-color="#000F2E" offset="0"/><stop stop-color="#000F2E" offset=".25"/><stop stop-color="#000F2E" offset=".266"/><stop stop-color="#000F2E" offset=".273"/><stop stop-color="#00102F" offset=".277"/><stop stop-color="#011231" offset=".281"/><stop stop-color="#011433" offset=".285"/><stop stop-color="#011635" offset=".289"/><stop stop-color="#021837" offset=".293"/><stop stop-color="#021A3A" offset=".297"/><stop stop-color="#031C3C" offset=".301"/><stop stop-color="#031E3E" offset=".305"/><stop stop-color="#042040" offset=".309"/><stop stop-color="#042243" offset=".313"/><stop stop-color="#052445" offset=".316"/><stop stop-color="#052647" offset=".32"/><stop stop-color="#062849" offset=".324"/><stop stop-color="#062A4C" offset=".328"/><stop stop-color="#062D4E" offset=".332"/><stop stop-color="#072F50" offset=".336"/><stop stop-color="#073152" offset=".34"/><stop stop-color="#083355" offset=".344"/><stop stop-color="#083557" offset=".348"/><stop stop-color="#093759" offset=".352"/><stop stop-color="#09395B" offset=".355"/><stop stop-color="#0A3B5E" offset=".359"/><stop stop-color="#0A3D60" offset=".363"/><stop stop-color="#0A3F62" offset=".367"/><stop stop-color="#0B4164" offset=".371"/><stop stop-color="#0B4367" offset=".375"/><stop stop-color="#0C4569" offset=".379"/><stop stop-color="#0C476B" offset=".383"/><stop stop-color="#0D4A6D" offset=".387"/><stop stop-color="#0D4C70" offset=".391"/><stop stop-color="#0E4E72" offset=".395"/><stop stop-color="#0E5074" offset=".398"/><stop stop-color="#0F5276" offset=".402"/><stop stop-color="#0F5479" offset=".406"/><stop stop-color="#0F567B" offset=".41"/><stop stop-color="#10587D" offset=".414"/><stop stop-color="#105A7F" offset=".418"/><stop stop-color="#115C82" offset=".422"/><stop stop-color="#115E84" offset=".426"/><stop stop-color="#126086" offset=".43"/><stop stop-color="#126288" offset=".434"/><stop stop-color="#13658B" offset=".438"/><stop stop-color="#13678D" offset=".441"/><stop stop-color="#14698F" offset=".445"/><stop stop-color="#146B91" offset=".449"/><stop stop-color="#146D94" offset=".453"/><stop stop-color="#156F96" offset=".457"/><stop stop-color="#157198" offset=".461"/><stop stop-color="#16739A" offset=".465"/><stop stop-color="#16759C" offset=".469"/><stop stop-color="#17779F" offset=".473"/><stop stop-color="#1779A1" offset=".477"/><stop stop-color="#187BA3" offset=".48"/><stop stop-color="#187DA5" offset=".484"/><stop stop-color="#1980A8" offset=".488"/><stop stop-color="#1982AA" offset=".492"/><stop stop-color="#1984AC" offset=".496"/><stop stop-color="#1A86AE" offset=".5"/><stop stop-color="#1A88B1" offset=".504"/><stop stop-color="#1B8AB3" offset=".508"/><stop stop-color="#1B8CB5" offset=".512"/><stop stop-color="#1C8EB7" offset=".516"/><stop stop-color="#1C90BA" offset=".52"/><stop stop-color="#1D92BC" offset=".523"/><stop stop-color="#1D94BE" offset=".527"/><stop stop-color="#1D96C0" offset=".531"/><stop stop-color="#1E98C3" offset=".535"/><stop stop-color="#1E9BC5" offset=".539"/><stop stop-color="#1F9DC7" offset=".543"/><stop stop-color="#1F9FC9" offset=".547"/><stop stop-color="#20A1CC" offset=".551"/><stop stop-color="#20A3CE" offset=".555"/><stop stop-color="#21A5D0" offset=".559"/><stop stop-color="#21A7D2" offset=".563"/><stop stop-color="#22A9D5" offset=".566"/><stop stop-color="#22ABD7" offset=".57"/><stop stop-color="#22ADD9" offset=".574"/><stop stop-color="#23AFDB" offset=".578"/><stop stop-color="#23B1DE" offset=".582"/><stop stop-color="#24B3E0" offset=".586"/><stop stop-color="#24B5E2" offset=".59"/><stop stop-color="#25B8E4" offset=".594"/><stop stop-color="#25BAE7" offset=".598"/><stop stop-color="#26BCE9" offset=".602"/><stop stop-color="#26BEEB" offset=".605"/><stop stop-color="#27C0ED" offset=".609"/><stop stop-color="#27C2F0" offset=".613"/><stop stop-color="#27C4F2" offset=".617"/><stop stop-color="#28C6F4" offset=".621"/><stop stop-color="#28C8F6" offset=".625"/><stop stop-color="#29CAF9" offset=".629"/><stop stop-color="#29CCFB" offset=".633"/><stop stop-color="#2ACEFD" offset=".637"/><stop stop-color="#2AD0FF" offset=".641"/><stop stop-color="#2AD0FF" offset=".656"/><stop stop-color="#2AD0FF" offset=".688"/><stop stop-color="#2AD0FF" offset=".75"/><stop stop-color="#2AD0FF" offset="1"/></linearGradient><linearGradient x1="491.6" gradientTransform="matrix(.36256 0 0 .36264 39.436 5.792)" xmlns:xlink="http://www.w3.org/1999/xlink" y1="591.77" x2="702.41" gradientUnits="userSpaceOnUse" y2="591.77" xlink:type="simple" xlink:actuate="onLoad" id="u" xlink:show="other"><stop stop-color="#000F2E" offset="0"/><stop stop-color="#000F2E" offset=".5"/><stop stop-color="#000F2E" offset=".563"/><stop stop-color="#000F2E" offset=".57"/><stop stop-color="#00102F" offset=".578"/><stop stop-color="#001130" offset=".586"/><stop stop-color="#011231" offset=".594"/><stop stop-color="#011231" offset=".602"/><stop stop-color="#011332" offset=".609"/><stop stop-color="#011433" offset=".617"/><stop stop-color="#011534" offset=".625"/><stop stop-color="#011535" offset=".633"/><stop stop-color="#021636" offset=".641"/><stop stop-color="#021737" offset=".648"/><stop stop-color="#021837" offset=".656"/><stop stop-color="#021938" offset=".664"/><stop stop-color="#021939" offset=".672"/><stop stop-color="#021A3A" offset=".68"/><stop stop-color="#031B3B" offset=".688"/><stop stop-color="#031C3C" offset=".695"/><stop stop-color="#031C3C" offset=".703"/><stop stop-color="#031D3D" offset=".711"/><stop stop-color="#031E3E" offset=".719"/><stop stop-color="#031F3F" offset=".727"/><stop stop-color="#042040" offset=".734"/><stop stop-color="#042041" offset=".742"/><stop stop-color="#042141" offset=".75"/><stop stop-color="#042242" offset=".758"/><stop stop-color="#042343" offset=".766"/><stop stop-color="#042344" offset=".773"/><stop stop-color="#052445" offset=".781"/><stop stop-color="#052546" offset=".789"/><stop stop-color="#052647" offset=".797"/><stop stop-color="#052747" offset=".805"/><stop stop-color="#052748" offset=".813"/><stop stop-color="#052849" offset=".82"/><stop stop-color="#06294A" offset=".828"/><stop stop-color="#062A4B" offset=".836"/><stop stop-color="#062A4C" offset=".844"/><stop stop-color="#062B4C" offset=".852"/><stop stop-color="#062C4D" offset=".859"/><stop stop-color="#062D4E" offset=".867"/><stop stop-color="#072E4F" offset=".875"/><stop stop-color="#072E50" offset=".883"/><stop stop-color="#072F51" offset=".891"/><stop stop-color="#073051" offset=".898"/><stop stop-color="#073152" offset=".906"/><stop stop-color="#073153" offset=".914"/><stop stop-color="#083254" offset=".922"/><stop stop-color="#083355" offset=".93"/><stop stop-color="#083456" offset=".938"/><stop stop-color="#083557" offset=".945"/><stop stop-color="#083557" offset=".953"/><stop stop-color="#093658" offset=".961"/><stop stop-color="#093759" offset=".969"/><stop stop-color="#09385A" offset=".977"/><stop stop-color="#09385B" offset=".984"/><stop stop-color="#09395C" offset=".992"/><stop stop-color="#093A5C" offset="1"/></linearGradient><linearGradient x1="0" gradientTransform="matrix(.36256 0 0 .36264 39.436 5.792)" xmlns:xlink="http://www.w3.org/1999/xlink" y1="399.91" x2="186.48" gradientUnits="userSpaceOnUse" y2="399.91" xlink:type="simple" xlink:actuate="onLoad" id="w" xlink:show="other"><stop stop-color="#0A3D60" offset="0"/><stop stop-color="#0A3D60" offset=".016"/><stop stop-color="#0A3E61" offset=".031"/><stop stop-color="#0A3F62" offset=".047"/><stop stop-color="#0A3F62" offset=".063"/><stop stop-color="#0A4063" offset=".078"/><stop stop-color="#0A4164" offset=".094"/><stop stop-color="#0B4265" offset=".109"/><stop stop-color="#0B4366" offset=".125"/><stop stop-color="#0B4467" offset=".141"/><stop stop-color="#0B4568" offset=".156"/><stop stop-color="#0C4569" offset=".172"/><stop stop-color="#0C466A" offset=".188"/><stop stop-color="#0C476B" offset=".203"/><stop stop-color="#0C486C" offset=".219"/><stop stop-color="#0C496D" offset=".234"/><stop stop-color="#0D4A6E" offset=".25"/><stop stop-color="#0D4B6E" offset=".266"/><stop stop-color="#0D4B6F" offset=".281"/><stop stop-color="#0D4C70" offset=".297"/><stop stop-color="#0D4D71" offset=".313"/><stop stop-color="#0E4E72" offset=".328"/><stop stop-color="#0E4F73" offset=".344"/><stop stop-color="#0E5074" offset=".359"/><stop stop-color="#0E5175" offset=".375"/><stop stop-color="#0F5176" offset=".391"/><stop stop-color="#0F5277" offset=".406"/><stop stop-color="#0F5378" offset=".422"/><stop stop-color="#0F5479" offset=".438"/><stop stop-color="#0F557A" offset=".453"/><stop stop-color="#10567B" offset=".469"/><stop stop-color="#10577C" offset=".484"/><stop stop-color="#10587C" offset=".5"/><stop stop-color="#10587D" offset=".516"/><stop stop-color="#10597E" offset=".531"/><stop stop-color="#115A7F" offset=".547"/><stop stop-color="#115B80" offset=".563"/><stop stop-color="#115C81" offset=".578"/><stop stop-color="#115D82" offset=".594"/><stop stop-color="#125E83" offset=".609"/><stop stop-color="#125E84" offset=".625"/><stop stop-color="#125F85" offset=".641"/><stop stop-color="#126086" offset=".656"/><stop stop-color="#126187" offset=".672"/><stop stop-color="#136288" offset=".688"/><stop stop-color="#136389" offset=".703"/><stop stop-color="#13648A" offset=".719"/><stop stop-color="#13648A" offset=".727"/><stop stop-color="#13658B" offset=".734"/><stop stop-color="#13658B" offset=".742"/><stop stop-color="#14668C" offset=".75"/><stop stop-color="#14668D" offset=".758"/><stop stop-color="#14678D" offset=".766"/><stop stop-color="#14688E" offset=".773"/><stop stop-color="#14688E" offset=".781"/><stop stop-color="#14698F" offset=".789"/><stop stop-color="#146990" offset=".797"/><stop stop-color="#146A90" offset=".805"/><stop stop-color="#146A91" offset=".813"/><stop stop-color="#156B91" offset=".82"/><stop stop-color="#156B92" offset=".828"/><stop stop-color="#156C93" offset=".836"/><stop stop-color="#156C93" offset=".844"/><stop stop-color="#156D94" offset=".852"/><stop stop-color="#156E94" offset=".859"/><stop stop-color="#156E95" offset=".867"/><stop stop-color="#156F96" offset=".875"/><stop stop-color="#166F96" offset=".883"/><stop stop-color="#167097" offset=".891"/><stop stop-color="#167097" offset=".898"/><stop stop-color="#167198" offset=".906"/><stop stop-color="#167199" offset=".914"/><stop stop-color="#167299" offset=".922"/><stop stop-color="#16729A" offset=".93"/><stop stop-color="#16739A" offset=".938"/><stop stop-color="#16749B" offset=".945"/><stop stop-color="#17749C" offset=".953"/><stop stop-color="#17759C" offset=".961"/><stop stop-color="#17759D" offset=".969"/><stop stop-color="#17769D" offset=".977"/><stop stop-color="#17769E" offset=".984"/><stop stop-color="#17779F" offset=".992"/><stop stop-color="#17779F" offset="1"/></linearGradient><g id="x"><path d="M 23.445312 -13.636719 L 13.191406 -13.636719 L 13.191406 -8.511719 L 17.429688 -8.511719 C 16.984375 -5.945312 15.449219 -5.367188 12.886719 -5.367188 C 9.398438 -5.367188 8.132812 -8.375 8.132812 -11.960938 C 8.132812 -15.753906 9.570312 -18.558594 12.644531 -18.558594 C 14.492188 -18.558594 15.414062 -17.738281 16.300781 -15.925781 L 22.832031 -15.925781 C 22.113281 -21.53125 17.394531 -24.230469 12.476562 -24.230469 C 5.777344 -24.230469 1.160156 -19.71875 1.160156 -11.960938 C 1.160156 -4.238281 5.640625 0.308594 12.886719 0.308594 C 20.609375 0.308594 23.445312 -3.929688 23.445312 -11.894531 Z M 23.445312 -13.636719"/></g><g id="y"><path d="M 17.667969 0 L 24.8125 0 L 15.722656 -23.925781 L 9.742188 -23.925781 L 0.648438 0 L 7.792969 0 L 8.886719 -3.484375 L 16.574219 -3.484375 Z M 10.355469 -8.304688 L 12.714844 -15.859375 L 15.074219 -8.304688 Z M 10.355469 -8.304688"/></g><g id="z"><path d="M 1.675781 -23.925781 L 1.675781 0 L 8.304688 0 L 8.304688 -13.089844 L 8.511719 -13.089844 L 12.339844 0 L 17.054688 0 L 20.917969 -13.089844 L 21.121094 -13.089844 L 21.121094 0 L 27.753906 0 L 27.753906 -23.925781 L 19.992188 -23.925781 L 14.695312 -8.886719 L 9.433594 -23.925781 Z M 1.675781 -23.925781"/></g><g id="A"><path d="M 8.304688 -5.671875 L 8.304688 -9.398438 L 17.5 -9.398438 L 17.5 -14.664062 L 8.304688 -14.664062 L 8.304688 -18.25 L 19.207031 -18.25 L 19.207031 -23.925781 L 1.675781 -23.925781 L 1.675781 0 L 19.550781 0 L 19.550781 -5.671875 Z M 8.304688 -5.671875"/></g><g id="C"><path d="M 20.300781 -23.925781 L 0.648438 -23.925781 L 0.648438 -18.25 L 7.175781 -18.25 L 7.175781 0 L 13.773438 0 L 13.773438 -18.25 L 20.300781 -18.25 Z M 20.300781 -23.925781"/></g><g id="D"><path d="M 22.285156 -4 L 22.285156 -5.671875 C 22.285156 -7.859375 21.464844 -9.5 18.933594 -11.003906 C 20.199219 -12.097656 21.90625 -13.433594 21.90625 -16.507812 C 21.90625 -20.507812 19.242188 -23.925781 12.542969 -23.925781 L 1.675781 -23.925781 L 1.675781 0 L 8.304688 0 L 8.304688 -8.03125 L 12.917969 -8.03125 C 14.832031 -8.03125 15.652344 -6.664062 15.652344 -5.433594 L 15.652344 -4 C 15.652344 -2.152344 15.722656 -1.265625 16.335938 0 L 22.96875 0 C 22.351562 -1.265625 22.285156 -2.152344 22.285156 -4 Z M 11.996094 -13.226562 L 8.304688 -13.226562 L 8.304688 -18.214844 L 12.40625 -18.214844 C 14.011719 -18.214844 15.074219 -17.5 15.074219 -15.890625 C 15.074219 -14.046875 14.628906 -13.226562 11.996094 -13.226562 Z M 11.996094 -13.226562"/></g><g id="E"><path d="M 11.65625 -23.925781 L 1.675781 -23.925781 L 1.675781 0 L 11.65625 0 C 19.242188 0 23.136719 -4.273438 23.136719 -11.960938 C 23.136719 -19.652344 19.242188 -23.925781 11.65625 -23.925781 Z M 11.003906 -5.671875 L 8.304688 -5.671875 L 8.304688 -18.25 L 11.003906 -18.25 C 15.34375 -18.25 16.542969 -16.574219 16.542969 -11.960938 C 16.542969 -7.382812 15.34375 -5.671875 11.003906 -5.671875 Z M 11.003906 -5.671875"/></g></defs><g clip-path="url(#a)"><g clip-path="url(#b)"><path fill="url(#c)" d="M 126.488281 5.886719 L 126.488281 301.453125 L 335.609375 301.453125 L 335.609375 5.886719 Z M 126.488281 5.886719"/></g></g><g clip-path="url(#d)"><g clip-path="url(#e)"><path fill="url(#f)" d="M 126.488281 5.886719 L 126.488281 90.609375 L 165.050781 90.609375 L 165.050781 5.886719 Z M 126.488281 5.886719"/></g></g><g clip-path="url(#g)"><g clip-path="url(#h)"><path fill="url(#i)" d="M 90.882812 5.792969 L 90.882812 304.292969 L 294.09375 304.292969 L 294.09375 5.792969 Z M 90.882812 5.792969"/></g></g><g clip-path="url(#j)"><g clip-path="url(#k)"><path fill="url(#l)" d="M 90.882812 5.792969 L 90.882812 304.292969 L 294.09375 304.292969 L 294.09375 5.792969 Z M 90.882812 5.792969"/></g></g><g clip-path="url(#m)"><g clip-path="url(#n)"><path fill="url(#o)" d="M 90.882812 5.792969 L 90.882812 225.9375 L 184.257812 225.9375 L 184.257812 5.792969 Z M 90.882812 5.792969"/></g></g><g clip-path="url(#p)"><g clip-path="url(#q)"><path fill="url(#r)" d="M 102.808594 5.792969 L 102.808594 185.179688 L 182.773438 185.179688 L 182.773438 5.792969 Z M 102.808594 5.792969"/></g></g><g clip-path="url(#s)"><g clip-path="url(#t)"><path fill="url(#u)" d="M 217.671875 139.339844 L 217.671875 301.441406 L 294.101562 301.441406 L 294.101562 139.339844 Z M 217.671875 139.339844"/></g></g><g clip-path="url(#v)"><path fill="url(#w)" d="M 39.4375 95.296875 L 39.4375 206.335938 L 107.046875 206.335938 L 107.046875 95.296875 Z M 39.4375 95.296875"/></g><path fill="#3E3938" d="M 212.082031 213.390625 C 211.546875 213.390625 211.015625 213.339844 210.488281 213.234375 C 209.960938 213.132812 209.453125 212.976562 208.957031 212.769531 C 208.460938 212.566406 207.988281 212.3125 207.542969 212.015625 C 207.097656 211.71875 206.683594 211.378906 206.304688 211 C 205.921875 210.621094 205.585938 210.207031 205.285156 209.761719 C 204.988281 209.316406 204.734375 208.84375 204.53125 208.347656 C 204.324219 207.851562 204.167969 207.339844 204.066406 206.816406 C 203.960938 206.289062 203.90625 205.757812 203.90625 205.21875 C 203.90625 204.683594 203.960938 204.152344 204.0625 203.625 C 204.167969 203.097656 204.324219 202.585938 204.527344 202.089844 C 204.734375 201.59375 204.984375 201.125 205.285156 200.675781 C 205.582031 200.230469 205.921875 199.816406 206.300781 199.4375 C 206.679688 199.058594 207.09375 198.71875 207.539062 198.421875 C 207.984375 198.125 208.457031 197.871094 208.953125 197.667969 C 209.449219 197.460938 209.957031 197.304688 210.484375 197.199219 C 211.011719 197.097656 211.542969 197.042969 212.078125 197.042969 C 212.617188 197.042969 213.148438 197.097656 213.671875 197.199219 C 214.199219 197.304688 214.710938 197.460938 215.207031 197.664062 C 215.703125 197.871094 216.171875 198.121094 216.621094 198.421875 C 217.066406 198.71875 217.480469 199.058594 217.859375 199.4375 C 218.238281 199.816406 218.578125 200.230469 218.875 200.675781 C 219.171875 201.121094 219.425781 201.59375 219.628906 202.089844 C 219.835938 202.585938 219.988281 203.097656 220.09375 203.621094 C 220.199219 204.148438 220.25 204.679688 220.25 205.21875 C 220.25 205.753906 220.191406 206.285156 220.085938 206.808594 C 219.980469 207.332031 219.820312 207.84375 219.617188 208.335938 C 219.410156 208.832031 219.15625 209.300781 218.859375 209.746094 C 218.558594 210.191406 218.222656 210.601562 217.84375 210.980469 C 217.464844 211.359375 217.054688 211.699219 216.609375 211.996094 C 216.164062 212.292969 215.695312 212.546875 215.199219 212.753906 C 214.707031 212.960938 214.199219 213.117188 213.671875 213.226562 C 213.148438 213.332031 212.617188 213.386719 212.082031 213.390625 Z M 212.082031 213.390625" fill-rule="evenodd"/><path fill="#FEFEFE" d="M 212.082031 212.28125 L 211.449219 212.28125 C 211.882812 212.242188 212.3125 212.160156 212.734375 212.039062 C 213.15625 211.921875 213.5625 211.761719 213.953125 211.566406 C 214.34375 211.371094 214.714844 211.140625 215.066406 210.878906 C 215.414062 210.613281 215.734375 210.320312 216.03125 209.996094 C 216.324219 209.671875 216.589844 209.324219 216.820312 208.953125 C 217.050781 208.578125 217.242188 208.1875 217.402344 207.78125 C 217.558594 207.371094 217.679688 206.953125 217.757812 206.523438 C 217.839844 206.089844 217.878906 205.65625 217.878906 205.21875 C 217.878906 204.78125 217.839844 204.347656 217.757812 203.917969 C 217.679688 203.488281 217.558594 203.066406 217.402344 202.660156 C 217.242188 202.25 217.050781 201.859375 216.820312 201.488281 C 216.589844 201.113281 216.324219 200.765625 216.03125 200.441406 C 215.734375 200.121094 215.414062 199.824219 215.066406 199.5625 C 214.714844 199.296875 214.34375 199.066406 213.953125 198.871094 C 213.5625 198.675781 213.15625 198.519531 212.734375 198.398438 C 212.3125 198.277344 211.882812 198.199219 211.449219 198.15625 L 212.082031 198.15625 C 212.539062 198.167969 212.992188 198.222656 213.4375 198.320312 C 213.882812 198.417969 214.316406 198.558594 214.738281 198.738281 C 215.15625 198.921875 215.554688 199.144531 215.929688 199.402344 C 216.304688 199.660156 216.652344 199.953125 216.972656 200.28125 C 217.292969 200.609375 217.578125 200.960938 217.828125 201.34375 C 218.078125 201.726562 218.289062 202.128906 218.464844 202.554688 C 218.636719 202.976562 218.765625 203.414062 218.855469 203.859375 C 218.941406 204.308594 218.984375 204.761719 218.984375 205.21875 C 218.984375 205.675781 218.941406 206.128906 218.855469 206.578125 C 218.765625 207.027344 218.636719 207.460938 218.464844 207.886719 C 218.289062 208.308594 218.078125 208.710938 217.828125 209.09375 C 217.578125 209.476562 217.292969 209.832031 216.972656 210.15625 C 216.652344 210.484375 216.304688 210.777344 215.929688 211.039062 C 215.554688 211.296875 215.15625 211.515625 214.738281 211.699219 C 214.316406 211.882812 213.882812 212.019531 213.4375 212.121094 C 212.992188 212.21875 212.539062 212.273438 212.082031 212.28125 Z M 212.082031 212.28125" fill-rule="evenodd"/><path fill="#3E3938" d="M 227.550781 228.78125 C 227.011719 228.78125 226.480469 228.726562 225.953125 228.617188 C 225.425781 228.511719 224.914062 228.351562 224.414062 228.144531 C 223.917969 227.9375 223.449219 227.683594 223 227.382812 C 222.554688 227.082031 222.140625 226.742188 221.761719 226.359375 C 221.382812 225.976562 221.042969 225.5625 220.746094 225.113281 C 220.449219 224.664062 220.199219 224.191406 219.992188 223.695312 C 219.789062 223.199219 219.632812 222.683594 219.527344 222.15625 C 219.425781 221.628906 219.375 221.09375 219.375 220.554688 C 219.375 220.019531 219.429688 219.484375 219.535156 218.957031 C 219.640625 218.429688 219.796875 217.917969 220 217.417969 C 220.207031 216.921875 220.460938 216.449219 220.761719 216.003906 C 221.058594 215.554688 221.398438 215.140625 221.78125 214.761719 C 222.160156 214.378906 222.574219 214.039062 223.019531 213.742188 C 223.46875 213.441406 223.941406 213.1875 224.4375 212.980469 C 224.933594 212.777344 225.449219 212.621094 225.976562 212.515625 C 226.503906 212.410156 227.035156 212.355469 227.574219 212.355469 C 228.113281 212.355469 228.644531 212.40625 229.171875 212.507812 C 229.703125 212.613281 230.214844 212.769531 230.710938 212.972656 C 231.210938 213.179688 231.683594 213.429688 232.132812 213.726562 C 232.578125 214.023438 232.996094 214.363281 233.375 214.742188 C 233.757812 215.121094 234.097656 215.535156 234.398438 215.984375 C 234.699219 216.429688 234.953125 216.902344 235.160156 217.398438 C 235.371094 217.894531 235.527344 218.40625 235.632812 218.933594 C 235.742188 219.460938 235.796875 219.992188 235.796875 220.53125 C 235.804688 221.074219 235.753906 221.613281 235.652344 222.148438 C 235.550781 222.679688 235.394531 223.199219 235.191406 223.699219 C 234.984375 224.203125 234.730469 224.679688 234.429688 225.132812 C 234.128906 225.585938 233.789062 226.003906 233.402344 226.386719 C 233.019531 226.773438 232.601562 227.113281 232.148438 227.414062 C 231.699219 227.714844 231.21875 227.96875 230.71875 228.175781 C 230.214844 228.378906 229.699219 228.535156 229.164062 228.636719 C 228.632812 228.738281 228.09375 228.789062 227.550781 228.78125 Z M 227.550781 228.78125" fill-rule="evenodd"/><path fill="#FEFEFE" d="M 227.550781 227.671875 C 227.3125 227.671875 227.15625 227.59375 226.914062 227.59375 C 227.347656 227.554688 227.777344 227.472656 228.195312 227.355469 C 228.613281 227.238281 229.019531 227.082031 229.410156 226.886719 C 229.800781 226.691406 230.171875 226.464844 230.519531 226.203125 C 230.867188 225.941406 231.1875 225.648438 231.480469 225.324219 C 231.777344 225.003906 232.039062 224.65625 232.265625 224.285156 C 232.496094 223.917969 232.691406 223.527344 232.847656 223.121094 C 233.003906 222.714844 233.125 222.296875 233.203125 221.867188 C 233.285156 221.441406 233.324219 221.007812 233.324219 220.570312 C 233.324219 220.136719 233.285156 219.703125 233.203125 219.273438 C 233.125 218.847656 233.003906 218.429688 232.847656 218.023438 C 232.691406 217.617188 232.496094 217.226562 232.265625 216.855469 C 232.039062 216.488281 231.777344 216.140625 231.480469 215.816406 C 231.1875 215.496094 230.867188 215.203125 230.519531 214.941406 C 230.171875 214.679688 229.800781 214.453125 229.410156 214.257812 C 229.019531 214.0625 228.613281 213.90625 228.195312 213.789062 C 227.777344 213.671875 227.347656 213.589844 226.914062 213.550781 C 227.15625 213.550781 227.3125 213.472656 227.550781 213.472656 C 228.015625 213.472656 228.476562 213.515625 228.933594 213.609375 C 229.390625 213.699219 229.835938 213.832031 230.265625 214.011719 C 230.695312 214.191406 231.105469 214.410156 231.492188 214.667969 C 231.882812 214.925781 232.238281 215.222656 232.570312 215.550781 C 232.898438 215.882812 233.195312 216.238281 233.453125 216.628906 C 233.710938 217.015625 233.929688 217.425781 234.109375 217.855469 C 234.285156 218.285156 234.421875 218.730469 234.511719 219.1875 C 234.601562 219.644531 234.648438 220.105469 234.648438 220.570312 C 234.648438 221.039062 234.601562 221.5 234.511719 221.957031 C 234.421875 222.414062 234.285156 222.859375 234.109375 223.289062 C 233.929688 223.71875 233.710938 224.128906 233.453125 224.515625 C 233.195312 224.90625 232.898438 225.261719 232.570312 225.59375 C 232.238281 225.921875 231.882812 226.21875 231.492188 226.476562 C 231.105469 226.734375 230.695312 226.953125 230.265625 227.132812 C 229.835938 227.3125 229.390625 227.445312 228.933594 227.535156 C 228.476562 227.628906 228.015625 227.671875 227.550781 227.671875 Z M 227.550781 227.671875" fill-rule="evenodd"/><path fill="#3E3938" d="M 212.082031 243.9375 C 211.535156 243.949219 210.996094 243.90625 210.457031 243.808594 C 209.917969 243.710938 209.394531 243.5625 208.886719 243.363281 C 208.378906 243.160156 207.898438 242.910156 207.4375 242.613281 C 206.980469 242.316406 206.554688 241.976562 206.164062 241.59375 C 205.773438 241.210938 205.425781 240.792969 205.117188 240.34375 C 204.8125 239.890625 204.550781 239.414062 204.339844 238.910156 C 204.128906 238.40625 203.96875 237.882812 203.859375 237.347656 C 203.753906 236.8125 203.699219 236.273438 203.699219 235.726562 C 203.699219 235.179688 203.753906 234.636719 203.859375 234.101562 C 203.96875 233.566406 204.128906 233.046875 204.339844 232.542969 C 204.550781 232.039062 204.8125 231.558594 205.117188 231.109375 C 205.425781 230.65625 205.773438 230.238281 206.164062 229.855469 C 206.554688 229.472656 206.980469 229.132812 207.4375 228.835938 C 207.898438 228.539062 208.378906 228.289062 208.886719 228.089844 C 209.394531 227.886719 209.917969 227.738281 210.457031 227.640625 C 210.996094 227.542969 211.535156 227.5 212.082031 227.511719 C 212.613281 227.523438 213.140625 227.585938 213.660156 227.699219 C 214.179688 227.8125 214.683594 227.976562 215.171875 228.1875 C 215.660156 228.398438 216.125 228.65625 216.5625 228.957031 C 217 229.257812 217.40625 229.597656 217.777344 229.976562 C 218.148438 230.359375 218.480469 230.769531 218.773438 231.214844 C 219.066406 231.660156 219.3125 232.128906 219.515625 232.621094 C 219.714844 233.113281 219.867188 233.621094 219.96875 234.144531 C 220.070312 234.667969 220.121094 235.191406 220.121094 235.726562 C 220.121094 236.257812 220.070312 236.785156 219.96875 237.304688 C 219.867188 237.828125 219.714844 238.335938 219.515625 238.828125 C 219.3125 239.320312 219.066406 239.789062 218.773438 240.234375 C 218.480469 240.679688 218.148438 241.089844 217.777344 241.472656 C 217.40625 241.851562 217 242.191406 216.5625 242.496094 C 216.125 242.796875 215.660156 243.050781 215.171875 243.261719 C 214.683594 243.476562 214.179688 243.636719 213.660156 243.75 C 213.140625 243.863281 212.613281 243.925781 212.082031 243.9375 Z M 212.082031 243.9375" fill-rule="evenodd"/><path fill="#FEFEFE" d="M 212.082031 242.746094 L 211.449219 242.746094 C 211.882812 242.707031 212.308594 242.628906 212.730469 242.511719 C 213.148438 242.390625 213.554688 242.234375 213.945312 242.042969 C 214.335938 241.847656 214.703125 241.621094 215.050781 241.355469 C 215.398438 241.09375 215.722656 240.800781 216.015625 240.480469 C 216.308594 240.160156 216.570312 239.8125 216.800781 239.441406 C 217.03125 239.070312 217.222656 238.683594 217.382812 238.277344 C 217.539062 237.871094 217.65625 237.453125 217.738281 237.023438 C 217.816406 236.59375 217.859375 236.164062 217.859375 235.726562 C 217.859375 235.292969 217.816406 234.859375 217.738281 234.429688 C 217.65625 234 217.539062 233.585938 217.382812 233.175781 C 217.222656 232.769531 217.03125 232.382812 216.800781 232.011719 C 216.570312 231.640625 216.308594 231.296875 216.015625 230.972656 C 215.722656 230.652344 215.398438 230.359375 215.050781 230.097656 C 214.703125 229.835938 214.335938 229.605469 213.945312 229.414062 C 213.554688 229.21875 213.148438 229.0625 212.730469 228.945312 C 212.308594 228.824219 211.882812 228.746094 211.449219 228.707031 C 211.65625 228.640625 211.867188 228.613281 212.082031 228.625 C 212.546875 228.625 213.007812 228.671875 213.460938 228.761719 C 213.917969 228.851562 214.359375 228.984375 214.789062 229.160156 C 215.214844 229.339844 215.625 229.554688 216.007812 229.8125 C 216.394531 230.070312 216.753906 230.363281 217.082031 230.691406 C 217.410156 231.019531 217.703125 231.375 217.960938 231.761719 C 218.21875 232.148438 218.4375 232.554688 218.613281 232.984375 C 218.792969 233.410156 218.925781 233.851562 219.015625 234.308594 C 219.105469 234.761719 219.152344 235.222656 219.152344 235.6875 C 219.152344 236.152344 219.105469 236.609375 219.015625 237.066406 C 218.925781 237.519531 218.792969 237.960938 218.613281 238.390625 C 218.4375 238.820312 218.21875 239.226562 217.960938 239.613281 C 217.703125 240 217.410156 240.355469 217.082031 240.683594 C 216.753906 241.011719 216.394531 241.304688 216.007812 241.5625 C 215.625 241.820312 215.214844 242.035156 214.789062 242.214844 C 214.359375 242.390625 213.917969 242.523438 213.460938 242.613281 C 213.007812 242.703125 212.546875 242.75 212.082031 242.746094 Z M 212.082031 242.746094" fill-rule="evenodd"/><path fill="#3E3938" d="M 196.785156 228.78125 C 196.242188 228.792969 195.699219 228.75 195.160156 228.65625 C 194.621094 228.558594 194.101562 228.410156 193.589844 228.207031 C 193.082031 228.007812 192.601562 227.757812 192.140625 227.460938 C 191.683594 227.160156 191.257812 226.820312 190.867188 226.4375 C 190.476562 226.058594 190.128906 225.640625 189.824219 225.1875 C 189.515625 224.734375 189.253906 224.257812 189.042969 223.753906 C 188.832031 223.25 188.671875 222.730469 188.5625 222.195312 C 188.457031 221.65625 188.402344 221.117188 188.402344 220.570312 C 188.402344 220.023438 188.457031 219.484375 188.5625 218.945312 C 188.671875 218.410156 188.832031 217.890625 189.042969 217.386719 C 189.253906 216.882812 189.515625 216.40625 189.824219 215.953125 C 190.128906 215.5 190.476562 215.082031 190.867188 214.703125 C 191.257812 214.320312 191.683594 213.980469 192.140625 213.679688 C 192.601562 213.382812 193.082031 213.132812 193.589844 212.933594 C 194.101562 212.730469 194.621094 212.582031 195.160156 212.484375 C 195.699219 212.390625 196.242188 212.347656 196.785156 212.359375 C 197.320312 212.371094 197.84375 212.433594 198.363281 212.546875 C 198.882812 212.660156 199.386719 212.820312 199.875 213.03125 C 200.363281 213.242188 200.828125 213.5 201.265625 213.800781 C 201.703125 214.101562 202.109375 214.445312 202.480469 214.824219 C 202.855469 215.203125 203.1875 215.617188 203.476562 216.0625 C 203.769531 216.503906 204.015625 216.972656 204.21875 217.46875 C 204.417969 217.960938 204.570312 218.46875 204.671875 218.988281 C 204.773438 219.511719 204.824219 220.039062 204.824219 220.570312 C 204.824219 221.101562 204.773438 221.628906 204.671875 222.152344 C 204.570312 222.671875 204.417969 223.179688 204.21875 223.671875 C 204.015625 224.167969 203.769531 224.636719 203.476562 225.078125 C 203.1875 225.523438 202.855469 225.9375 202.480469 226.316406 C 202.109375 226.695312 201.703125 227.039062 201.265625 227.339844 C 200.828125 227.640625 200.363281 227.898438 199.875 228.109375 C 199.386719 228.320312 198.882812 228.480469 198.363281 228.59375 C 197.84375 228.707031 197.320312 228.769531 196.785156 228.78125 Z M 196.785156 228.78125" fill-rule="evenodd"/><path fill="#FEFEFE" d="M 196.785156 227.671875 C 196.546875 227.671875 196.3125 227.59375 196.152344 227.59375 C 196.585938 227.554688 197.011719 227.472656 197.433594 227.355469 C 197.851562 227.238281 198.257812 227.082031 198.648438 226.886719 C 199.039062 226.691406 199.40625 226.464844 199.753906 226.203125 C 200.101562 225.941406 200.425781 225.648438 200.71875 225.324219 C 201.011719 225.003906 201.273438 224.65625 201.503906 224.285156 C 201.734375 223.917969 201.925781 223.527344 202.085938 223.121094 C 202.242188 222.714844 202.363281 222.296875 202.441406 221.867188 C 202.523438 221.441406 202.5625 221.007812 202.5625 220.570312 C 202.5625 220.136719 202.523438 219.703125 202.441406 219.273438 C 202.363281 218.847656 202.242188 218.429688 202.085938 218.023438 C 201.925781 217.617188 201.734375 217.226562 201.503906 216.855469 C 201.273438 216.488281 201.011719 216.140625 200.71875 215.816406 C 200.425781 215.496094 200.101562 215.203125 199.753906 214.941406 C 199.40625 214.679688 199.039062 214.453125 198.648438 214.257812 C 198.257812 214.0625 197.851562 213.90625 197.433594 213.789062 C 197.011719 213.671875 196.585938 213.589844 196.152344 213.550781 C 196.3125 213.550781 196.546875 213.472656 196.785156 213.472656 C 197.253906 213.472656 197.714844 213.515625 198.171875 213.609375 C 198.628906 213.699219 199.074219 213.832031 199.503906 214.011719 C 199.933594 214.191406 200.34375 214.410156 200.730469 214.667969 C 201.117188 214.925781 201.476562 215.222656 201.804688 215.550781 C 202.136719 215.882812 202.429688 216.238281 202.6875 216.628906 C 202.949219 217.015625 203.167969 217.425781 203.34375 217.855469 C 203.523438 218.285156 203.660156 218.730469 203.75 219.1875 C 203.839844 219.644531 203.886719 220.105469 203.886719 220.570312 C 203.886719 221.039062 203.839844 221.5 203.75 221.957031 C 203.660156 222.414062 203.523438 222.859375 203.34375 223.289062 C 203.167969 223.71875 202.949219 224.128906 202.6875 224.515625 C 202.429688 224.90625 202.136719 225.261719 201.804688 225.59375 C 201.476562 225.921875 201.117188 226.21875 200.730469 226.476562 C 200.34375 226.734375 199.933594 226.953125 199.503906 227.132812 C 199.074219 227.3125 198.628906 227.445312 198.171875 227.535156 C 197.714844 227.628906 197.253906 227.671875 196.785156 227.671875 Z M 196.785156 227.671875" fill-rule="evenodd"/><path fill="#3E3938" d="M 199.785156 148.570312 L 199.785156 165.46875 C 199.785156 167.371094 197.722656 168.800781 195.183594 168.800781 C 192.644531 168.800781 190.503906 167.371094 190.503906 165.46875 L 190.503906 148.570312 C 190.503906 146.660156 192.644531 145.15625 195.183594 145.15625 C 197.722656 145.15625 199.785156 146.660156 199.785156 148.570312 Z M 199.785156 148.570312" fill-rule="evenodd"/><path fill="#3E3938" d="M 233.417969 83.902344 L 233.417969 99.773438 L 217.398438 99.773438 L 217.398438 115.800781 L 201.53125 115.800781 L 201.53125 99.773438 L 185.507812 99.773438 L 185.507812 83.902344 L 201.53125 83.902344 L 201.53125 67.875 L 217.398438 67.875 L 217.398438 83.902344 Z M 233.417969 83.902344" fill-rule="evenodd"/><path fill="#FEFEFE" d="M 197.800781 148.25 C 197.976562 148.246094 198.128906 148.308594 198.253906 148.433594 C 198.378906 148.558594 198.441406 148.707031 198.4375 148.882812 L 198.4375 165.386719 C 198.445312 165.574219 198.386719 165.738281 198.265625 165.878906 C 198.140625 166.019531 197.988281 166.097656 197.800781 166.113281 C 197.601562 166.113281 197.429688 166.042969 197.289062 165.902344 C 197.148438 165.757812 197.078125 165.589844 197.078125 165.386719 L 197.078125 148.882812 C 197.078125 148.691406 197.152344 148.53125 197.296875 148.40625 C 197.441406 148.28125 197.609375 148.226562 197.800781 148.25 Z M 197.800781 148.25" fill-rule="evenodd"/><path fill="#FEFEFE" d="M 215.253906 70.175781 L 213.667969 70.175781 L 213.667969 86.914062 L 229.691406 86.914062 L 229.691406 98.183594 L 231.355469 98.183594 L 231.355469 85.492188 L 215.253906 85.492188 Z M 215.253906 70.175781" fill-rule="evenodd"/><path fill="#FEFEFE" d="M 214.398438 99.789062 L 215.988281 99.789062 L 215.988281 113.507812 L 214.398438 113.507812 Z M 214.398438 99.789062"/><g fill="#54CEFB"><use x="20.846" y="361.608" xmlns:xlink="http://www.w3.org/1999/xlink" xlink:href="#x" xlink:type="simple" xlink:actuate="onLoad" xlink:show="embed"/></g><g fill="#54CEFB"><use x="54.166" y="361.608" xmlns:xlink="http://www.w3.org/1999/xlink" xlink:href="#y" xlink:type="simple" xlink:actuate="onLoad" xlink:show="embed"/></g><g fill="#54CEFB"><use x="88.169" y="361.608" xmlns:xlink="http://www.w3.org/1999/xlink" xlink:href="#z" xlink:type="simple" xlink:actuate="onLoad" xlink:show="embed"/></g><g fill="#54CEFB"><use x="126.136" y="361.608" xmlns:xlink="http://www.w3.org/1999/xlink" xlink:href="#A" xlink:type="simple" xlink:actuate="onLoad" xlink:show="embed"/></g><g fill="#54CEFB"><use x="155.253" y="361.608" xmlns:xlink="http://www.w3.org/1999/xlink" xlink:href="#B" xlink:type="simple" xlink:actuate="onLoad" xlink:show="embed"/></g><g fill="#54CEFB"><use x="172.82" y="361.608" xmlns:xlink="http://www.w3.org/1999/xlink" xlink:href="#C" xlink:type="simple" xlink:actuate="onLoad" xlink:show="embed"/></g><g fill="#54CEFB"><use x="202.312" y="361.608" xmlns:xlink="http://www.w3.org/1999/xlink" xlink:href="#D" xlink:type="simple" xlink:actuate="onLoad" xlink:show="embed"/></g><g fill="#54CEFB"><use x="234.607" y="361.608" xmlns:xlink="http://www.w3.org/1999/xlink" xlink:href="#y" xlink:type="simple" xlink:actuate="onLoad" xlink:show="embed"/></g><g fill="#54CEFB"><use x="268.61" y="361.608" xmlns:xlink="http://www.w3.org/1999/xlink" xlink:href="#E" xlink:type="simple" xlink:actuate="onLoad" xlink:show="embed"/></g><g fill="#54CEFB"><use x="301.28" y="361.608" xmlns:xlink="http://www.w3.org/1999/xlink" xlink:href="#A" xlink:type="simple" xlink:actuate="onLoad" xlink:show="embed"/></g><g fill="#54CEFB"><use x="330.397" y="361.608" xmlns:xlink="http://www.w3.org/1999/xlink" xlink:href="#D" xlink:type="simple" xlink:actuate="onLoad" xlink:show="embed"/></g></svg>