<svg xmlns="http://www.w3.org/2000/svg" xmlns:xlink="http://www.w3.org/1999/xlink" width="375" viewBox="0 0 375 375" height="375" version="1.0"><defs><clipPath id="a"><path d="M 30.570312 19.972656 L 119.820312 19.972656 L 119.820312 109.222656 L 30.570312 109.222656 Z M 30.570312 19.972656"/></clipPath><clipPath id="b"><path d="M 119.820312 64.597656 C 119.820312 66.058594 119.75 67.515625 119.605469 68.972656 C 119.460938 70.425781 119.25 71.871094 118.964844 73.304688 C 118.679688 74.738281 118.324219 76.152344 117.898438 77.550781 C 117.476562 78.949219 116.984375 80.324219 116.421875 81.675781 C 115.863281 83.023438 115.242188 84.34375 114.550781 85.632812 C 113.863281 86.921875 113.113281 88.175781 112.300781 89.390625 C 111.488281 90.605469 110.617188 91.777344 109.691406 92.90625 C 108.765625 94.039062 107.785156 95.117188 106.75 96.152344 C 105.71875 97.1875 104.636719 98.167969 103.503906 99.09375 C 102.375 100.019531 101.203125 100.890625 99.988281 101.703125 C 98.773438 102.515625 97.519531 103.265625 96.230469 103.953125 C 94.941406 104.640625 93.625 105.265625 92.273438 105.824219 C 90.921875 106.386719 89.546875 106.878906 88.148438 107.300781 C 86.75 107.726562 85.335938 108.082031 83.902344 108.367188 C 82.46875 108.652344 81.023438 108.863281 79.570312 109.007812 C 78.113281 109.152344 76.65625 109.222656 75.195312 109.222656 C 73.734375 109.222656 72.277344 109.152344 70.820312 109.007812 C 69.367188 108.863281 67.921875 108.652344 66.488281 108.367188 C 65.054688 108.082031 63.640625 107.726562 62.242188 107.300781 C 60.84375 106.878906 59.46875 106.386719 58.117188 105.824219 C 56.769531 105.265625 55.449219 104.640625 54.160156 103.953125 C 52.871094 103.265625 51.617188 102.515625 50.402344 101.703125 C 49.1875 100.890625 48.015625 100.019531 46.886719 99.09375 C 45.757812 98.167969 44.675781 97.1875 43.640625 96.152344 C 42.609375 95.117188 41.628906 94.039062 40.699219 92.90625 C 39.773438 91.777344 38.902344 90.605469 38.089844 89.390625 C 37.28125 88.175781 36.527344 86.921875 35.839844 85.632812 C 35.152344 84.34375 34.527344 83.023438 33.96875 81.675781 C 33.410156 80.324219 32.917969 78.949219 32.492188 77.550781 C 32.066406 76.152344 31.714844 74.738281 31.429688 73.304688 C 31.144531 71.871094 30.929688 70.425781 30.785156 68.972656 C 30.640625 67.515625 30.570312 66.058594 30.570312 64.597656 C 30.570312 63.136719 30.640625 61.679688 30.785156 60.222656 C 30.929688 58.769531 31.144531 57.324219 31.429688 55.890625 C 31.714844 54.457031 32.066406 53.042969 32.492188 51.644531 C 32.917969 50.246094 33.410156 48.871094 33.96875 47.519531 C 34.527344 46.171875 35.152344 44.851562 35.839844 43.5625 C 36.527344 42.273438 37.28125 41.019531 38.089844 39.804688 C 38.902344 38.589844 39.773438 37.417969 40.699219 36.289062 C 41.628906 35.160156 42.609375 34.078125 43.640625 33.042969 C 44.675781 32.007812 45.757812 31.03125 46.886719 30.101562 C 48.015625 29.175781 49.1875 28.304688 50.402344 27.492188 C 51.617188 26.679688 52.871094 25.929688 54.160156 25.242188 C 55.449219 24.554688 56.769531 23.929688 58.117188 23.371094 C 59.46875 22.808594 60.84375 22.320312 62.242188 21.894531 C 63.640625 21.46875 65.054688 21.117188 66.488281 20.832031 C 67.921875 20.546875 69.367188 20.332031 70.820312 20.1875 C 72.277344 20.042969 73.734375 19.972656 75.195312 19.972656 C 76.65625 19.972656 78.113281 20.042969 79.570312 20.1875 C 81.023438 20.332031 82.46875 20.546875 83.902344 20.832031 C 85.335938 21.117188 86.75 21.46875 88.148438 21.894531 C 89.546875 22.320312 90.921875 22.808594 92.273438 23.371094 C 93.625 23.929688 94.941406 24.554688 96.230469 25.242188 C 97.519531 25.929688 98.773438 26.679688 99.988281 27.492188 C 101.203125 28.304688 102.375 29.175781 103.503906 30.101562 C 104.636719 31.03125 105.71875 32.007812 106.75 33.042969 C 107.785156 34.078125 108.765625 35.160156 109.691406 36.289062 C 110.617188 37.417969 111.488281 38.589844 112.300781 39.804688 C 113.113281 41.019531 113.863281 42.273438 114.550781 43.5625 C 115.242188 44.851562 115.863281 46.171875 116.421875 47.519531 C 116.984375 48.871094 117.476562 50.246094 117.898438 51.644531 C 118.324219 53.042969 118.679688 54.457031 118.964844 55.890625 C 119.25 57.324219 119.460938 58.769531 119.605469 60.222656 C 119.75 61.679688 119.820312 63.136719 119.820312 64.597656 Z M 119.820312 64.597656"/></clipPath><clipPath id="d"><path d="M 256 19 L 347 19 L 347 109 L 256 109 Z M 256 19"/></clipPath><clipPath id="e"><path d="M 299.597656 127.453125 L 238.410156 62.476562 L 303.386719 1.289062 L 364.574219 66.265625 Z M 299.597656 127.453125"/></clipPath><clipPath id="f"><path d="M 299.597656 127.453125 L 238.410156 62.476562 L 303.386719 1.289062 L 364.574219 66.265625 Z M 299.597656 127.453125"/></clipPath><clipPath id="g"><path d="M 270.898438 31.882812 C 271.964844 30.882812 273.074219 29.933594 274.230469 29.042969 C 275.386719 28.148438 276.585938 27.316406 277.824219 26.539062 C 279.0625 25.765625 280.339844 25.050781 281.648438 24.402344 C 282.957031 23.75 284.292969 23.167969 285.660156 22.648438 C 287.027344 22.128906 288.414062 21.679688 289.824219 21.296875 C 291.238281 20.917969 292.664062 20.605469 294.105469 20.363281 C 295.546875 20.121094 296.996094 19.949219 298.453125 19.851562 C 299.910156 19.75 301.371094 19.722656 302.832031 19.765625 C 304.292969 19.8125 305.746094 19.925781 307.199219 20.113281 C 308.648438 20.300781 310.082031 20.558594 311.507812 20.886719 C 312.933594 21.214844 314.335938 21.609375 315.722656 22.078125 C 317.109375 22.542969 318.464844 23.074219 319.800781 23.675781 C 321.132812 24.273438 322.433594 24.9375 323.699219 25.664062 C 324.96875 26.394531 326.195312 27.179688 327.386719 28.027344 C 328.578125 28.875 329.722656 29.78125 330.824219 30.742188 C 331.925781 31.703125 332.976562 32.714844 333.980469 33.777344 C 334.980469 34.84375 335.929688 35.953125 336.820312 37.109375 C 337.714844 38.265625 338.546875 39.464844 339.324219 40.703125 C 340.097656 41.945312 340.8125 43.21875 341.460938 44.527344 C 342.113281 45.835938 342.695312 47.171875 343.214844 48.539062 C 343.734375 49.90625 344.183594 51.296875 344.566406 52.707031 C 344.945312 54.117188 345.257812 55.542969 345.5 56.984375 C 345.742188 58.425781 345.914062 59.875 346.011719 61.332031 C 346.113281 62.792969 346.140625 64.25 346.097656 65.710938 C 346.050781 67.171875 345.9375 68.628906 345.75 70.078125 C 345.5625 71.527344 345.304688 72.964844 344.976562 74.386719 C 344.648438 75.8125 344.253906 77.214844 343.785156 78.601562 C 343.320312 79.988281 342.789062 81.347656 342.1875 82.679688 C 341.589844 84.011719 340.925781 85.3125 340.199219 86.578125 C 339.46875 87.847656 338.683594 89.078125 337.835938 90.265625 C 336.988281 91.457031 336.082031 92.601562 335.121094 93.703125 C 334.160156 94.804688 333.148438 95.859375 332.085938 96.859375 C 331.019531 97.863281 329.910156 98.808594 328.753906 99.703125 C 327.597656 100.59375 326.398438 101.429688 325.160156 102.203125 C 323.917969 102.980469 322.644531 103.691406 321.335938 104.339844 C 320.027344 104.992188 318.691406 105.574219 317.324219 106.09375 C 315.957031 106.613281 314.566406 107.0625 313.15625 107.445312 C 311.746094 107.828125 310.320312 108.140625 308.878906 108.378906 C 307.4375 108.621094 305.988281 108.792969 304.53125 108.894531 C 303.070312 108.992188 301.613281 109.019531 300.152344 108.976562 C 298.691406 108.933594 297.234375 108.816406 295.785156 108.628906 C 294.335938 108.445312 292.898438 108.1875 291.476562 107.859375 C 290.050781 107.53125 288.648438 107.132812 287.261719 106.667969 C 285.875 106.199219 284.515625 105.667969 283.183594 105.066406 C 281.851562 104.46875 280.550781 103.804688 279.285156 103.078125 C 278.015625 102.351562 276.785156 101.5625 275.597656 100.714844 C 274.40625 99.867188 273.261719 98.960938 272.160156 98 C 271.058594 97.039062 270.003906 96.027344 269.003906 94.964844 C 268 93.898438 267.054688 92.789062 266.160156 91.632812 C 265.269531 90.476562 264.433594 89.277344 263.660156 88.039062 C 262.882812 86.800781 262.171875 85.523438 261.523438 84.214844 C 260.871094 82.90625 260.289062 81.570312 259.769531 80.203125 C 259.25 78.835938 258.800781 77.449219 258.417969 76.039062 C 258.035156 74.625 257.722656 73.199219 257.484375 71.757812 C 257.242188 70.316406 257.070312 68.867188 256.96875 67.410156 C 256.871094 65.953125 256.84375 64.492188 256.886719 63.03125 C 256.929688 61.570312 257.046875 60.117188 257.234375 58.664062 C 257.417969 57.214844 257.675781 55.78125 258.003906 54.355469 C 258.332031 52.929688 258.730469 51.527344 259.195312 50.140625 C 259.664062 48.757812 260.195312 47.398438 260.796875 46.0625 C 261.394531 44.730469 262.058594 43.429688 262.785156 42.164062 C 263.511719 40.894531 264.300781 39.667969 265.148438 38.476562 C 265.996094 37.285156 266.902344 36.140625 267.863281 35.039062 C 268.824219 33.9375 269.835938 32.886719 270.898438 31.882812 Z M 270.898438 31.882812"/></clipPath><clipPath id="i"><path d="M 205 100 L 280 100 L 280 175 L 205 175 Z M 205 100"/></clipPath><clipPath id="j"><path d="M 294.734375 139.828125 L 240.089844 190.097656 L 189.820312 135.453125 L 244.464844 85.183594 Z M 294.734375 139.828125"/></clipPath><clipPath id="k"><path d="M 294.734375 139.828125 L 240.089844 190.097656 L 189.820312 135.453125 L 244.464844 85.183594 Z M 294.734375 139.828125"/></clipPath><clipPath id="l"><path d="M 214.953125 162.777344 C 214.132812 161.882812 213.355469 160.949219 212.621094 159.976562 C 211.890625 159.007812 211.207031 158 210.574219 156.964844 C 209.941406 155.925781 209.363281 154.859375 208.835938 153.761719 C 208.308594 152.667969 207.832031 151.550781 207.414062 150.40625 C 206.996094 149.265625 206.636719 148.105469 206.332031 146.929688 C 206.027344 145.75 205.78125 144.5625 205.59375 143.359375 C 205.40625 142.160156 205.28125 140.953125 205.210938 139.738281 C 205.140625 138.523438 205.132812 137.308594 205.183594 136.09375 C 205.234375 134.878906 205.34375 133.671875 205.515625 132.464844 C 205.683594 131.261719 205.910156 130.070312 206.199219 128.886719 C 206.484375 127.707031 206.828125 126.542969 207.230469 125.394531 C 207.632812 124.246094 208.089844 123.121094 208.601562 122.019531 C 209.113281 120.914062 209.675781 119.839844 210.292969 118.792969 C 210.910156 117.746094 211.578125 116.730469 212.296875 115.746094 C 213.011719 114.765625 213.777344 113.820312 214.585938 112.914062 C 215.394531 112.007812 216.246094 111.140625 217.140625 110.320312 C 218.039062 109.496094 218.96875 108.71875 219.941406 107.988281 C 220.914062 107.253906 221.917969 106.574219 222.957031 105.941406 C 223.992188 105.308594 225.0625 104.726562 226.15625 104.199219 C 227.25 103.671875 228.371094 103.199219 229.511719 102.78125 C 230.652344 102.363281 231.8125 102 232.988281 101.695312 C 234.167969 101.394531 235.355469 101.148438 236.558594 100.960938 C 237.757812 100.773438 238.96875 100.644531 240.179688 100.574219 C 241.394531 100.507812 242.609375 100.5 243.824219 100.550781 C 245.039062 100.601562 246.25 100.710938 247.453125 100.878906 C 248.65625 101.050781 249.847656 101.277344 251.03125 101.5625 C 252.210938 101.851562 253.378906 102.195312 254.523438 102.59375 C 255.671875 102.996094 256.796875 103.453125 257.902344 103.964844 C 259.003906 104.476562 260.078125 105.039062 261.125 105.660156 C 262.175781 106.277344 263.1875 106.941406 264.171875 107.660156 C 265.152344 108.378906 266.097656 109.140625 267.003906 109.949219 C 267.910156 110.761719 268.777344 111.613281 269.597656 112.507812 C 270.421875 113.402344 271.199219 114.335938 271.929688 115.304688 C 272.664062 116.277344 273.34375 117.28125 273.976562 118.320312 C 274.609375 119.359375 275.191406 120.425781 275.71875 121.519531 C 276.246094 122.617188 276.71875 123.734375 277.136719 124.875 C 277.554688 126.019531 277.917969 127.179688 278.222656 128.355469 C 278.527344 129.53125 278.769531 130.722656 278.957031 131.921875 C 279.144531 133.125 279.273438 134.332031 279.34375 135.546875 C 279.410156 136.761719 279.421875 137.972656 279.371094 139.1875 C 279.320312 140.402344 279.207031 141.613281 279.039062 142.816406 C 278.871094 144.019531 278.640625 145.214844 278.355469 146.394531 C 278.066406 147.578125 277.722656 148.742188 277.324219 149.890625 C 276.921875 151.039062 276.464844 152.164062 275.953125 153.265625 C 275.441406 154.367188 274.878906 155.445312 274.261719 156.492188 C 273.644531 157.539062 272.976562 158.554688 272.257812 159.535156 C 271.542969 160.519531 270.777344 161.460938 269.96875 162.371094 C 269.160156 163.277344 268.304688 164.140625 267.410156 164.964844 C 266.515625 165.789062 265.582031 166.566406 264.613281 167.296875 C 263.640625 168.027344 262.636719 168.710938 261.597656 169.34375 C 260.558594 169.976562 259.492188 170.554688 258.398438 171.085938 C 257.300781 171.613281 256.183594 172.085938 255.042969 172.503906 C 253.902344 172.921875 252.742188 173.28125 251.5625 173.585938 C 250.386719 173.890625 249.195312 174.136719 247.996094 174.324219 C 246.792969 174.511719 245.585938 174.640625 244.371094 174.707031 C 243.160156 174.777344 241.945312 174.785156 240.730469 174.734375 C 239.515625 174.683594 238.304688 174.574219 237.101562 174.40625 C 235.898438 174.234375 234.703125 174.007812 233.523438 173.71875 C 232.339844 173.433594 231.175781 173.089844 230.027344 172.6875 C 228.882812 172.285156 227.753906 171.832031 226.652344 171.320312 C 225.550781 170.808594 224.472656 170.242188 223.425781 169.625 C 222.378906 169.007812 221.363281 168.339844 220.382812 167.625 C 219.402344 166.90625 218.457031 166.144531 217.550781 165.332031 C 216.640625 164.523438 215.777344 163.671875 214.953125 162.777344 Z M 214.953125 162.777344"/></clipPath><clipPath id="n"><path d="M 95 98 L 174 98 L 174 177 L 95 177 Z M 95 98"/></clipPath><clipPath id="o"><path d="M 84.765625 161.738281 L 110.414062 88.078125 L 184.078125 113.726562 L 158.429688 187.386719 Z M 84.765625 161.738281"/></clipPath><clipPath id="p"><path d="M 84.765625 161.738281 L 110.414062 88.078125 L 184.078125 113.726562 L 158.429688 187.386719 Z M 84.765625 161.738281"/></clipPath><clipPath id="q"><path d="M 147.246094 100.902344 C 148.453125 101.320312 149.636719 101.796875 150.792969 102.335938 C 151.953125 102.871094 153.082031 103.464844 154.183594 104.109375 C 155.285156 104.757812 156.351562 105.457031 157.386719 106.210938 C 158.417969 106.960938 159.410156 107.761719 160.363281 108.613281 C 161.320312 109.460938 162.226562 110.355469 163.09375 111.292969 C 163.960938 112.234375 164.777344 113.214844 165.546875 114.234375 C 166.316406 115.25 167.035156 116.304688 167.699219 117.394531 C 168.367188 118.488281 168.976562 119.605469 169.535156 120.757812 C 170.089844 121.90625 170.589844 123.082031 171.027344 124.28125 C 171.46875 125.476562 171.851562 126.695312 172.171875 127.933594 C 172.492188 129.167969 172.75 130.417969 172.949219 131.679688 C 173.148438 132.941406 173.285156 134.210938 173.355469 135.484375 C 173.429688 136.761719 173.441406 138.035156 173.390625 139.3125 C 173.339844 140.589844 173.222656 141.859375 173.046875 143.125 C 172.871094 144.390625 172.632812 145.640625 172.332031 146.882812 C 172.035156 148.125 171.671875 149.351562 171.253906 150.554688 C 170.832031 151.761719 170.355469 152.945312 169.820312 154.105469 C 169.28125 155.261719 168.691406 156.394531 168.042969 157.496094 C 167.398438 158.597656 166.695312 159.664062 165.945312 160.695312 C 165.191406 161.726562 164.390625 162.722656 163.542969 163.675781 C 162.691406 164.628906 161.796875 165.539062 160.859375 166.402344 C 159.921875 167.269531 158.941406 168.085938 157.921875 168.855469 C 156.902344 169.625 155.847656 170.34375 154.757812 171.011719 C 153.667969 171.675781 152.546875 172.289062 151.398438 172.84375 C 150.246094 173.398438 149.074219 173.898438 147.875 174.339844 C 146.675781 174.777344 145.457031 175.160156 144.222656 175.480469 C 142.984375 175.800781 141.738281 176.0625 140.472656 176.257812 C 139.210938 176.457031 137.945312 176.59375 136.667969 176.667969 C 135.394531 176.742188 134.117188 176.75 132.84375 176.699219 C 131.566406 176.648438 130.296875 176.535156 129.03125 176.355469 C 127.765625 176.179688 126.511719 175.941406 125.269531 175.644531 C 124.027344 175.34375 122.804688 174.984375 121.597656 174.5625 C 120.390625 174.144531 119.210938 173.664062 118.050781 173.128906 C 116.890625 172.59375 115.761719 172 114.660156 171.355469 C 113.558594 170.707031 112.492188 170.007812 111.457031 169.253906 C 110.425781 168.503906 109.433594 167.703125 108.480469 166.851562 C 107.527344 166.003906 106.617188 165.109375 105.75 164.167969 C 104.882812 163.230469 104.066406 162.25 103.296875 161.230469 C 102.527344 160.210938 101.808594 159.15625 101.144531 158.066406 C 100.476562 156.976562 99.867188 155.859375 99.308594 154.707031 C 98.753906 153.558594 98.257812 152.382812 97.816406 151.183594 C 97.375 149.984375 96.996094 148.769531 96.671875 147.53125 C 96.351562 146.296875 96.09375 145.046875 95.894531 143.785156 C 95.695312 142.523438 95.558594 141.253906 95.488281 139.980469 C 95.414062 138.703125 95.402344 137.429688 95.453125 136.152344 C 95.507812 134.875 95.621094 133.605469 95.796875 132.339844 C 95.972656 131.074219 96.210938 129.820312 96.511719 128.578125 C 96.8125 127.339844 97.171875 126.113281 97.589844 124.90625 C 98.011719 123.703125 98.488281 122.519531 99.023438 121.359375 C 99.5625 120.199219 100.152344 119.070312 100.800781 117.96875 C 101.449219 116.867188 102.148438 115.800781 102.898438 114.769531 C 103.652344 113.734375 104.453125 112.742188 105.300781 111.789062 C 106.152344 110.835938 107.046875 109.925781 107.984375 109.058594 C 108.925781 108.195312 109.902344 107.375 110.921875 106.605469 C 111.941406 105.835938 112.996094 105.121094 114.085938 104.453125 C 115.175781 103.789062 116.296875 103.175781 117.445312 102.621094 C 118.597656 102.0625 119.769531 101.566406 120.96875 101.125 C 122.167969 100.683594 123.386719 100.304688 124.621094 99.984375 C 125.859375 99.664062 127.109375 99.402344 128.371094 99.203125 C 129.632812 99.007812 130.898438 98.871094 132.175781 98.796875 C 133.449219 98.722656 134.726562 98.710938 136.003906 98.765625 C 137.277344 98.816406 138.550781 98.929688 139.8125 99.105469 C 141.078125 99.28125 142.332031 99.519531 143.574219 99.820312 C 144.816406 100.121094 146.039062 100.480469 147.246094 100.902344 Z M 147.246094 100.902344"/></clipPath><clipPath id="s"><path d="M 7 8.152344 L 375 8.152344 L 375 209 L 7 209 Z M 7 8.152344"/></clipPath><g id="t"><path d="M 27.628906 1.347656 C 42.308594 1.347656 52.179688 -9.292969 51.410156 -24.488281 L 22.691406 -24.488281 L 22.691406 -19.421875 L 43.589844 -19.421875 C 43.011719 -11.152344 36.472656 -5.382812 27.820312 -5.382812 C 18.011719 -5.382812 10.898438 -12.757812 10.898438 -22.691406 C 10.898438 -32.757812 17.949219 -39.9375 27.5625 -39.871094 C 34.359375 -39.871094 40.382812 -35.640625 41.859375 -29.871094 L 49.292969 -31.28125 C 47.371094 -40.191406 38.269531 -46.667969 27.628906 -46.667969 C 13.207031 -46.667969 2.820312 -36.792969 2.820312 -22.691406 C 2.820312 -8.652344 13.207031 1.347656 27.628906 1.347656 Z M 27.628906 1.347656"/></g><g id="u"><path d="M 12.820312 1.027344 C 17.882812 1.027344 22.4375 -1.027344 24.550781 -5.0625 L 25 -5.0625 L 25 0 L 32.308594 0 L 32.308594 -21.28125 C 32.308594 -28.460938 26.472656 -33.332031 18.078125 -33.332031 C 9.488281 -33.332031 3.652344 -28.589844 3.652344 -21.730469 L 10.707031 -21.730469 C 10.707031 -25.707031 13.71875 -28.460938 18.011719 -28.460938 C 22.179688 -28.460938 25 -25.578125 25 -21.539062 L 25 -19.808594 L 16.921875 -18.527344 C 6.667969 -16.921875 2.117188 -13.527344 2.117188 -7.691406 C 2.117188 -2.179688 6.410156 1.027344 12.820312 1.027344 Z M 15.382812 -3.71875 C 11.472656 -3.71875 9.167969 -5.449219 9.167969 -8.269531 C 9.167969 -11.28125 11.472656 -13.269531 17.371094 -14.292969 L 25 -15.578125 L 25 -12.757812 C 25 -7.5625 21.152344 -3.71875 15.382812 -3.71875 Z M 15.382812 -3.71875"/></g><g id="v"><path d="M 4.230469 0 L 11.472656 0 L 11.472656 -19.039062 C 11.472656 -24.101562 14.488281 -27.371094 19.039062 -27.371094 C 23.332031 -27.371094 26.21875 -24.101562 26.21875 -19.039062 L 26.21875 0 L 33.527344 0 L 33.527344 -19.039062 C 33.527344 -24.039062 36.539062 -27.371094 41.152344 -27.371094 C 45.640625 -27.308594 48.460938 -23.910156 48.460938 -19.039062 L 48.460938 0 L 55.769531 0 L 55.769531 -20.511719 C 55.769531 -28.332031 50.898438 -33.589844 43.78125 -33.589844 C 38.332031 -33.589844 34.550781 -30.769531 33.011719 -26.28125 L 32.5625 -26.28125 C 31.152344 -30.707031 27.117188 -33.589844 22.050781 -33.589844 C 17.4375 -33.589844 13.78125 -31.089844 11.988281 -27.242188 L 11.472656 -27.242188 L 11.472656 -32.5625 L 4.230469 -32.5625 Z M 4.230469 0"/></g><g id="w"><path d="M 20.257812 1.027344 C 28.078125 1.027344 34.871094 -3.207031 36.667969 -9.488281 L 30.257812 -10.511719 C 28.910156 -6.859375 25 -4.230469 20.578125 -4.230469 C 14.550781 -4.230469 10.257812 -8.269531 9.742188 -14.292969 L 37.691406 -14.292969 L 37.757812 -16.28125 C 37.757812 -26.601562 30.707031 -33.589844 20.320312 -33.589844 C 9.742188 -33.589844 2.308594 -26.667969 2.308594 -16.347656 C 2.308594 -5.960938 9.679688 1.027344 20.257812 1.027344 Z M 9.679688 -18.527344 C 10.257812 -24.359375 14.359375 -28.398438 20.191406 -28.398438 C 25.832031 -28.398438 30 -24.167969 30.382812 -18.527344 Z M 9.679688 -18.527344"/></g><g id="x"><path d="M 16.152344 0 L 24.230469 0 L 24.230469 -38.652344 L 39.421875 -38.652344 L 39.421875 -45.382812 L 1.027344 -45.382812 L 1.027344 -38.652344 L 16.152344 -38.652344 Z M 16.152344 0"/></g><g id="y"><path d="M 4.230469 0 L 11.472656 0 L 11.472656 -17.117188 C 11.472656 -23.011719 14.488281 -26.921875 19.101562 -26.921875 C 20.707031 -26.921875 22.691406 -26.472656 24.488281 -25.578125 L 24.488281 -32.308594 C 23.207031 -32.882812 21.667969 -33.207031 20.191406 -33.207031 C 16.28125 -33.207031 13.527344 -30.960938 11.988281 -27.242188 L 11.472656 -27.242188 L 11.472656 -32.5625 L 4.230469 -32.5625 Z M 4.230469 0"/></g><g id="z"><path d="M 17.820312 1.027344 C 23.332031 1.027344 27.4375 -1.667969 29.679688 -5.960938 L 30.191406 -5.960938 L 30.191406 0 L 37.4375 0 L 37.4375 -47.308594 L 30.191406 -47.308594 L 30.191406 -26.601562 L 29.679688 -26.601562 C 27.4375 -30.960938 23.332031 -33.589844 17.757812 -33.589844 C 8.652344 -33.589844 2.242188 -26.601562 2.242188 -16.28125 C 2.242188 -5.898438 8.589844 1.027344 17.820312 1.027344 Z M 20 -5.191406 C 13.910156 -5.191406 9.550781 -9.871094 9.550781 -16.28125 C 9.550781 -22.691406 13.910156 -27.371094 20 -27.371094 C 26.027344 -27.371094 30.449219 -22.691406 30.449219 -16.28125 C 30.449219 -9.871094 26.027344 -5.191406 20 -5.191406 Z M 20 -5.191406"/></g><linearGradient x1="0" gradientTransform="translate(30.57 19.973) scale(89.24999)" xmlns:xlink="http://www.w3.org/1999/xlink" y1="0" x2="1.005" gradientUnits="userSpaceOnUse" y2=".995" xlink:type="simple" xlink:actuate="onLoad" id="c" xlink:show="other"><stop stop-color="#FF914D" offset="0"/><stop stop-color="#FF914D" offset=".008"/><stop stop-color="#FF924D" offset=".016"/><stop stop-color="#FF934D" offset=".023"/><stop stop-color="#FF934D" offset=".031"/><stop stop-color="#FF944D" offset=".039"/><stop stop-color="#FF944E" offset=".047"/><stop stop-color="#FF954E" offset=".055"/><stop stop-color="#FF964E" offset=".063"/><stop stop-color="#FF964E" offset=".07"/><stop stop-color="#FF974E" offset=".078"/><stop stop-color="#FF974E" offset=".086"/><stop stop-color="#FF984E" offset=".094"/><stop stop-color="#FF994E" offset=".102"/><stop stop-color="#FF994E" offset=".109"/><stop stop-color="#FF9A4E" offset=".117"/><stop stop-color="#FF9A4E" offset=".125"/><stop stop-color="#FF9B4F" offset=".133"/><stop stop-color="#FF9B4F" offset=".141"/><stop stop-color="#FF9C4F" offset=".148"/><stop stop-color="#FF9D4F" offset=".156"/><stop stop-color="#FF9D4F" offset=".164"/><stop stop-color="#FF9E4F" offset=".172"/><stop stop-color="#FF9E4F" offset=".18"/><stop stop-color="#FF9F4F" offset=".188"/><stop stop-color="#FFA04F" offset=".195"/><stop stop-color="#FFA04F" offset=".203"/><stop stop-color="#FFA14F" offset=".211"/><stop stop-color="#FFA150" offset=".219"/><stop stop-color="#FFA250" offset=".227"/><stop stop-color="#FFA350" offset=".234"/><stop stop-color="#FFA350" offset=".242"/><stop stop-color="#FFA450" offset=".25"/><stop stop-color="#FFA450" offset=".258"/><stop stop-color="#FFA550" offset=".266"/><stop stop-color="#FFA650" offset=".273"/><stop stop-color="#FFA650" offset=".281"/><stop stop-color="#FFA750" offset=".289"/><stop stop-color="#FFA750" offset=".297"/><stop stop-color="#FFA851" offset=".305"/><stop stop-color="#FFA951" offset=".313"/><stop stop-color="#FFA951" offset=".32"/><stop stop-color="#FFAA51" offset=".328"/><stop stop-color="#FFAA51" offset=".336"/><stop stop-color="#FFAB51" offset=".344"/><stop stop-color="#FFAC51" offset=".352"/><stop stop-color="#FFAC51" offset=".359"/><stop stop-color="#FFAD51" offset=".367"/><stop stop-color="#FFAD51" offset=".375"/><stop stop-color="#FFAE51" offset=".383"/><stop stop-color="#FFAF52" offset=".391"/><stop stop-color="#FFAF52" offset=".398"/><stop stop-color="#FFB052" offset=".406"/><stop stop-color="#FFB052" offset=".414"/><stop stop-color="#FFB152" offset=".422"/><stop stop-color="#FFB152" offset=".43"/><stop stop-color="#FFB252" offset=".438"/><stop stop-color="#FFB352" offset=".445"/><stop stop-color="#FFB352" offset=".453"/><stop stop-color="#FFB452" offset=".461"/><stop stop-color="#FFB453" offset=".469"/><stop stop-color="#FFB553" offset=".477"/><stop stop-color="#FFB653" offset=".484"/><stop stop-color="#FFB653" offset=".492"/><stop stop-color="#FFB753" offset=".498"/><stop stop-color="#FFB753" offset=".5"/><stop stop-color="#FFB753" offset=".502"/><stop stop-color="#FFB853" offset=".508"/><stop stop-color="#FFB853" offset=".516"/><stop stop-color="#FFB953" offset=".523"/><stop stop-color="#FFB953" offset=".531"/><stop stop-color="#FFBA53" offset=".539"/><stop stop-color="#FFBA53" offset=".547"/><stop stop-color="#FFBB54" offset=".555"/><stop stop-color="#FFBC54" offset=".563"/><stop stop-color="#FFBC54" offset=".57"/><stop stop-color="#FFBD54" offset=".578"/><stop stop-color="#FFBD54" offset=".586"/><stop stop-color="#FFBE54" offset=".594"/><stop stop-color="#FFBF54" offset=".602"/><stop stop-color="#FFBF54" offset=".609"/><stop stop-color="#FFC054" offset=".617"/><stop stop-color="#FFC054" offset=".625"/><stop stop-color="#FFC154" offset=".633"/><stop stop-color="#FFC255" offset=".641"/><stop stop-color="#FFC255" offset=".648"/><stop stop-color="#FFC355" offset=".656"/><stop stop-color="#FFC355" offset=".664"/><stop stop-color="#FFC455" offset=".672"/><stop stop-color="#FFC555" offset=".68"/><stop stop-color="#FFC555" offset=".688"/><stop stop-color="#FFC655" offset=".695"/><stop stop-color="#FFC655" offset=".703"/><stop stop-color="#FFC755" offset=".711"/><stop stop-color="#FFC755" offset=".719"/><stop stop-color="#FFC856" offset=".727"/><stop stop-color="#FFC956" offset=".734"/><stop stop-color="#FFC956" offset=".742"/><stop stop-color="#FFCA56" offset=".75"/><stop stop-color="#FFCA56" offset=".758"/><stop stop-color="#FFCB56" offset=".766"/><stop stop-color="#FFCC56" offset=".773"/><stop stop-color="#FFCC56" offset=".781"/><stop stop-color="#FFCD56" offset=".789"/><stop stop-color="#FFCD56" offset=".797"/><stop stop-color="#FFCE56" offset=".805"/><stop stop-color="#FFCF57" offset=".813"/><stop stop-color="#FFCF57" offset=".82"/><stop stop-color="#FFD057" offset=".828"/><stop stop-color="#FFD057" offset=".836"/><stop stop-color="#FFD157" offset=".844"/><stop stop-color="#FFD257" offset=".852"/><stop stop-color="#FFD257" offset=".859"/><stop stop-color="#FFD357" offset=".867"/><stop stop-color="#FFD357" offset=".875"/><stop stop-color="#FFD457" offset=".883"/><stop stop-color="#FFD558" offset=".891"/><stop stop-color="#FFD558" offset=".898"/><stop stop-color="#FFD658" offset=".906"/><stop stop-color="#FFD658" offset=".914"/><stop stop-color="#FFD758" offset=".922"/><stop stop-color="#FFD858" offset=".93"/><stop stop-color="#FFD858" offset=".938"/><stop stop-color="#FFD958" offset=".945"/><stop stop-color="#FFD958" offset=".953"/><stop stop-color="#FFDA58" offset=".961"/><stop stop-color="#FFDB58" offset=".969"/><stop stop-color="#FFDB59" offset=".977"/><stop stop-color="#FFDC59" offset=".984"/><stop stop-color="#FFDC59" offset=".992"/><stop stop-color="#FFDD59" offset="1"/></linearGradient><linearGradient x1="-.208" gradientTransform="scale(-89.25) rotate(46.721 -.025 -4.6)" xmlns:xlink="http://www.w3.org/1999/xlink" y1="-.206" x2="1.213" gradientUnits="userSpaceOnUse" y2="1.201" xlink:type="simple" xlink:actuate="onLoad" id="h" xlink:show="other"><stop stop-color="#FF914D" offset="0"/><stop stop-color="#FF914D" offset=".125"/><stop stop-color="#FF914D" offset=".141"/><stop stop-color="#FF914D" offset=".148"/><stop stop-color="#FF924D" offset=".156"/><stop stop-color="#FF934D" offset=".164"/><stop stop-color="#FF934D" offset=".172"/><stop stop-color="#FF944D" offset=".18"/><stop stop-color="#FF954E" offset=".188"/><stop stop-color="#FF964E" offset=".195"/><stop stop-color="#FF974E" offset=".203"/><stop stop-color="#FF984E" offset=".211"/><stop stop-color="#FF984E" offset=".219"/><stop stop-color="#FF994E" offset=".227"/><stop stop-color="#FF9A4E" offset=".234"/><stop stop-color="#FF9B4F" offset=".242"/><stop stop-color="#FF9C4F" offset=".25"/><stop stop-color="#FF9D4F" offset=".258"/><stop stop-color="#FF9D4F" offset=".266"/><stop stop-color="#FF9E4F" offset=".273"/><stop stop-color="#FF9F4F" offset=".281"/><stop stop-color="#FFA04F" offset=".289"/><stop stop-color="#FFA14F" offset=".297"/><stop stop-color="#FFA250" offset=".305"/><stop stop-color="#FFA350" offset=".313"/><stop stop-color="#FFA350" offset=".32"/><stop stop-color="#FFA450" offset=".328"/><stop stop-color="#FFA550" offset=".336"/><stop stop-color="#FFA650" offset=".344"/><stop stop-color="#FFA750" offset=".352"/><stop stop-color="#FFA851" offset=".359"/><stop stop-color="#FFA851" offset=".367"/><stop stop-color="#FFA951" offset=".375"/><stop stop-color="#FFAA51" offset=".383"/><stop stop-color="#FFAB51" offset=".391"/><stop stop-color="#FFAC51" offset=".398"/><stop stop-color="#FFAD51" offset=".406"/><stop stop-color="#FFAD51" offset=".414"/><stop stop-color="#FFAE52" offset=".422"/><stop stop-color="#FFAF52" offset=".43"/><stop stop-color="#FFB052" offset=".438"/><stop stop-color="#FFB152" offset=".445"/><stop stop-color="#FFB252" offset=".453"/><stop stop-color="#FFB352" offset=".461"/><stop stop-color="#FFB352" offset=".469"/><stop stop-color="#FFB452" offset=".477"/><stop stop-color="#FFB553" offset=".484"/><stop stop-color="#FFB653" offset=".492"/><stop stop-color="#FFB753" offset=".498"/><stop stop-color="#FFB753" offset=".5"/><stop stop-color="#FFB853" offset=".502"/><stop stop-color="#FFB853" offset=".508"/><stop stop-color="#FFB853" offset=".516"/><stop stop-color="#FFB953" offset=".523"/><stop stop-color="#FFBA53" offset=".531"/><stop stop-color="#FFBB54" offset=".539"/><stop stop-color="#FFBC54" offset=".547"/><stop stop-color="#FFBD54" offset=".555"/><stop stop-color="#FFBD54" offset=".563"/><stop stop-color="#FFBE54" offset=".57"/><stop stop-color="#FFBF54" offset=".578"/><stop stop-color="#FFC054" offset=".586"/><stop stop-color="#FFC154" offset=".594"/><stop stop-color="#FFC255" offset=".602"/><stop stop-color="#FFC255" offset=".609"/><stop stop-color="#FFC355" offset=".617"/><stop stop-color="#FFC455" offset=".625"/><stop stop-color="#FFC555" offset=".633"/><stop stop-color="#FFC655" offset=".641"/><stop stop-color="#FFC755" offset=".648"/><stop stop-color="#FFC855" offset=".656"/><stop stop-color="#FFC856" offset=".664"/><stop stop-color="#FFC956" offset=".672"/><stop stop-color="#FFCA56" offset=".68"/><stop stop-color="#FFCB56" offset=".688"/><stop stop-color="#FFCC56" offset=".695"/><stop stop-color="#FFCD56" offset=".703"/><stop stop-color="#FFCD56" offset=".711"/><stop stop-color="#FFCE57" offset=".719"/><stop stop-color="#FFCF57" offset=".727"/><stop stop-color="#FFD057" offset=".734"/><stop stop-color="#FFD157" offset=".742"/><stop stop-color="#FFD257" offset=".75"/><stop stop-color="#FFD257" offset=".758"/><stop stop-color="#FFD357" offset=".766"/><stop stop-color="#FFD457" offset=".773"/><stop stop-color="#FFD558" offset=".781"/><stop stop-color="#FFD658" offset=".789"/><stop stop-color="#FFD758" offset=".797"/><stop stop-color="#FFD858" offset=".805"/><stop stop-color="#FFD858" offset=".813"/><stop stop-color="#FFD958" offset=".82"/><stop stop-color="#FFDA58" offset=".828"/><stop stop-color="#FFDB58" offset=".836"/><stop stop-color="#FFDC59" offset=".844"/><stop stop-color="#FFDD59" offset=".852"/><stop stop-color="#FFDD59" offset=".859"/><stop stop-color="#FFDE59" offset=".875"/><stop stop-color="#FFDE59" offset="1"/></linearGradient><linearGradient x1="-.208" gradientTransform="scale(-74.25) rotate(-42.611 -4.4 4.147)" xmlns:xlink="http://www.w3.org/1999/xlink" y1="-.206" x2="1.213" gradientUnits="userSpaceOnUse" y2="1.201" xlink:type="simple" xlink:actuate="onLoad" id="m" xlink:show="other"><stop stop-color="#FF914D" offset="0"/><stop stop-color="#FF914D" offset=".125"/><stop stop-color="#FF914D" offset=".141"/><stop stop-color="#FF914D" offset=".148"/><stop stop-color="#FF924D" offset=".156"/><stop stop-color="#FF934D" offset=".164"/><stop stop-color="#FF934D" offset=".172"/><stop stop-color="#FF944E" offset=".18"/><stop stop-color="#FF954E" offset=".188"/><stop stop-color="#FF964E" offset=".195"/><stop stop-color="#FF974E" offset=".203"/><stop stop-color="#FF984E" offset=".211"/><stop stop-color="#FF984E" offset=".219"/><stop stop-color="#FF994E" offset=".227"/><stop stop-color="#FF9A4E" offset=".234"/><stop stop-color="#FF9B4F" offset=".242"/><stop stop-color="#FF9C4F" offset=".25"/><stop stop-color="#FF9D4F" offset=".258"/><stop stop-color="#FF9E4F" offset=".266"/><stop stop-color="#FF9E4F" offset=".273"/><stop stop-color="#FF9F4F" offset=".281"/><stop stop-color="#FFA04F" offset=".289"/><stop stop-color="#FFA14F" offset=".297"/><stop stop-color="#FFA250" offset=".305"/><stop stop-color="#FFA350" offset=".313"/><stop stop-color="#FFA350" offset=".32"/><stop stop-color="#FFA450" offset=".328"/><stop stop-color="#FFA550" offset=".336"/><stop stop-color="#FFA650" offset=".344"/><stop stop-color="#FFA750" offset=".352"/><stop stop-color="#FFA851" offset=".359"/><stop stop-color="#FFA851" offset=".367"/><stop stop-color="#FFA951" offset=".375"/><stop stop-color="#FFAA51" offset=".383"/><stop stop-color="#FFAB51" offset=".391"/><stop stop-color="#FFAC51" offset=".398"/><stop stop-color="#FFAD51" offset=".406"/><stop stop-color="#FFAD51" offset=".414"/><stop stop-color="#FFAE52" offset=".422"/><stop stop-color="#FFAF52" offset=".43"/><stop stop-color="#FFB052" offset=".438"/><stop stop-color="#FFB152" offset=".445"/><stop stop-color="#FFB252" offset=".453"/><stop stop-color="#FFB352" offset=".461"/><stop stop-color="#FFB352" offset=".469"/><stop stop-color="#FFB452" offset=".477"/><stop stop-color="#FFB553" offset=".484"/><stop stop-color="#FFB653" offset=".492"/><stop stop-color="#FFB753" offset=".498"/><stop stop-color="#FFB753" offset=".5"/><stop stop-color="#FFB853" offset=".502"/><stop stop-color="#FFB853" offset=".508"/><stop stop-color="#FFB853" offset=".516"/><stop stop-color="#FFB953" offset=".523"/><stop stop-color="#FFBA53" offset=".531"/><stop stop-color="#FFBB54" offset=".539"/><stop stop-color="#FFBC54" offset=".547"/><stop stop-color="#FFBD54" offset=".555"/><stop stop-color="#FFBD54" offset=".563"/><stop stop-color="#FFBE54" offset=".57"/><stop stop-color="#FFBF54" offset=".578"/><stop stop-color="#FFC054" offset=".586"/><stop stop-color="#FFC154" offset=".594"/><stop stop-color="#FFC255" offset=".602"/><stop stop-color="#FFC255" offset=".609"/><stop stop-color="#FFC355" offset=".617"/><stop stop-color="#FFC455" offset=".625"/><stop stop-color="#FFC555" offset=".633"/><stop stop-color="#FFC655" offset=".641"/><stop stop-color="#FFC755" offset=".648"/><stop stop-color="#FFC855" offset=".656"/><stop stop-color="#FFC856" offset=".664"/><stop stop-color="#FFC956" offset=".672"/><stop stop-color="#FFCA56" offset=".68"/><stop stop-color="#FFCB56" offset=".688"/><stop stop-color="#FFCC56" offset=".695"/><stop stop-color="#FFCD56" offset=".703"/><stop stop-color="#FFCD56" offset=".711"/><stop stop-color="#FFCE57" offset=".719"/><stop stop-color="#FFCF57" offset=".727"/><stop stop-color="#FFD057" offset=".734"/><stop stop-color="#FFD157" offset=".742"/><stop stop-color="#FFD257" offset=".75"/><stop stop-color="#FFD257" offset=".758"/><stop stop-color="#FFD357" offset=".766"/><stop stop-color="#FFD457" offset=".773"/><stop stop-color="#FFD558" offset=".781"/><stop stop-color="#FFD658" offset=".789"/><stop stop-color="#FFD758" offset=".797"/><stop stop-color="#FFD858" offset=".805"/><stop stop-color="#FFD858" offset=".813"/><stop stop-color="#FFD958" offset=".82"/><stop stop-color="#FFDA58" offset=".828"/><stop stop-color="#FFDB58" offset=".836"/><stop stop-color="#FFDC59" offset=".844"/><stop stop-color="#FFDD59" offset=".852"/><stop stop-color="#FFDD59" offset=".859"/><stop stop-color="#FFDE59" offset=".875"/><stop stop-color="#FFDE59" offset="1"/></linearGradient><linearGradient x1="-.138" gradientTransform="rotate(-70.803 156.172 21.233) scale(77.99999)" xmlns:xlink="http://www.w3.org/1999/xlink" y1="-.136" x2="1.143" gradientUnits="userSpaceOnUse" y2="1.131" xlink:type="simple" xlink:actuate="onLoad" id="r" xlink:show="other"><stop stop-color="#FF914D" offset="0"/><stop stop-color="#FF914D" offset=".063"/><stop stop-color="#FF914D" offset=".094"/><stop stop-color="#FF914D" offset=".109"/><stop stop-color="#FF924D" offset=".117"/><stop stop-color="#FF924D" offset=".125"/><stop stop-color="#FF934D" offset=".133"/><stop stop-color="#FF944D" offset=".141"/><stop stop-color="#FF954E" offset=".148"/><stop stop-color="#FF954E" offset=".156"/><stop stop-color="#FF964E" offset=".164"/><stop stop-color="#FF974E" offset=".172"/><stop stop-color="#FF984E" offset=".18"/><stop stop-color="#FF984E" offset=".188"/><stop stop-color="#FF994E" offset=".195"/><stop stop-color="#FF9A4E" offset=".203"/><stop stop-color="#FF9B4F" offset=".211"/><stop stop-color="#FF9B4F" offset=".219"/><stop stop-color="#FF9C4F" offset=".227"/><stop stop-color="#FF9D4F" offset=".234"/><stop stop-color="#FF9E4F" offset=".242"/><stop stop-color="#FF9F4F" offset=".25"/><stop stop-color="#FF9F4F" offset=".258"/><stop stop-color="#FFA04F" offset=".266"/><stop stop-color="#FFA14F" offset=".273"/><stop stop-color="#FFA250" offset=".281"/><stop stop-color="#FFA250" offset=".289"/><stop stop-color="#FFA350" offset=".297"/><stop stop-color="#FFA450" offset=".305"/><stop stop-color="#FFA550" offset=".313"/><stop stop-color="#FFA550" offset=".32"/><stop stop-color="#FFA650" offset=".328"/><stop stop-color="#FFA750" offset=".336"/><stop stop-color="#FFA851" offset=".344"/><stop stop-color="#FFA851" offset=".352"/><stop stop-color="#FFA951" offset=".359"/><stop stop-color="#FFAA51" offset=".367"/><stop stop-color="#FFAB51" offset=".375"/><stop stop-color="#FFAB51" offset=".383"/><stop stop-color="#FFAC51" offset=".391"/><stop stop-color="#FFAD51" offset=".398"/><stop stop-color="#FFAE51" offset=".406"/><stop stop-color="#FFAE52" offset=".414"/><stop stop-color="#FFAF52" offset=".422"/><stop stop-color="#FFB052" offset=".43"/><stop stop-color="#FFB152" offset=".438"/><stop stop-color="#FFB152" offset=".445"/><stop stop-color="#FFB252" offset=".453"/><stop stop-color="#FFB352" offset=".461"/><stop stop-color="#FFB452" offset=".469"/><stop stop-color="#FFB453" offset=".477"/><stop stop-color="#FFB553" offset=".484"/><stop stop-color="#FFB653" offset=".492"/><stop stop-color="#FFB753" offset=".498"/><stop stop-color="#FFB753" offset=".5"/><stop stop-color="#FFB853" offset=".502"/><stop stop-color="#FFB853" offset=".508"/><stop stop-color="#FFB853" offset=".516"/><stop stop-color="#FFB953" offset=".523"/><stop stop-color="#FFBA53" offset=".531"/><stop stop-color="#FFBB53" offset=".539"/><stop stop-color="#FFBB54" offset=".547"/><stop stop-color="#FFBC54" offset=".555"/><stop stop-color="#FFBD54" offset=".563"/><stop stop-color="#FFBE54" offset=".57"/><stop stop-color="#FFBE54" offset=".578"/><stop stop-color="#FFBF54" offset=".586"/><stop stop-color="#FFC054" offset=".594"/><stop stop-color="#FFC154" offset=".602"/><stop stop-color="#FFC155" offset=".609"/><stop stop-color="#FFC255" offset=".617"/><stop stop-color="#FFC355" offset=".625"/><stop stop-color="#FFC455" offset=".633"/><stop stop-color="#FFC455" offset=".641"/><stop stop-color="#FFC555" offset=".648"/><stop stop-color="#FFC655" offset=".656"/><stop stop-color="#FFC755" offset=".664"/><stop stop-color="#FFC755" offset=".672"/><stop stop-color="#FFC856" offset=".68"/><stop stop-color="#FFC956" offset=".688"/><stop stop-color="#FFCA56" offset=".695"/><stop stop-color="#FFCA56" offset=".703"/><stop stop-color="#FFCB56" offset=".711"/><stop stop-color="#FFCC56" offset=".719"/><stop stop-color="#FFCD56" offset=".727"/><stop stop-color="#FFCD56" offset=".734"/><stop stop-color="#FFCE57" offset=".742"/><stop stop-color="#FFCF57" offset=".75"/><stop stop-color="#FFD057" offset=".758"/><stop stop-color="#FFD157" offset=".766"/><stop stop-color="#FFD157" offset=".773"/><stop stop-color="#FFD257" offset=".781"/><stop stop-color="#FFD357" offset=".789"/><stop stop-color="#FFD457" offset=".797"/><stop stop-color="#FFD457" offset=".805"/><stop stop-color="#FFD558" offset=".813"/><stop stop-color="#FFD658" offset=".82"/><stop stop-color="#FFD758" offset=".828"/><stop stop-color="#FFD758" offset=".836"/><stop stop-color="#FFD858" offset=".844"/><stop stop-color="#FFD958" offset=".852"/><stop stop-color="#FFDA58" offset=".859"/><stop stop-color="#FFDA58" offset=".867"/><stop stop-color="#FFDB59" offset=".875"/><stop stop-color="#FFDC59" offset=".883"/><stop stop-color="#FFDD59" offset=".891"/><stop stop-color="#FFDD59" offset=".898"/><stop stop-color="#FFDE59" offset=".906"/><stop stop-color="#FFDE59" offset=".938"/><stop stop-color="#FFDE59" offset="1"/></linearGradient></defs><g clip-path="url(#a)"><g clip-path="url(#b)"><path fill="url(#c)" d="M 30.570312 19.972656 L 30.570312 109.222656 L 119.820312 109.222656 L 119.820312 19.972656 Z M 30.570312 19.972656"/></g></g><g clip-path="url(#d)"><g clip-path="url(#e)"><g clip-path="url(#f)"><g clip-path="url(#g)"><path fill="url(#h)" d="M 298.8125 153.589844 L 390.707031 67.050781 L 304.171875 -24.84375 L 212.273438 61.691406 Z M 298.8125 153.589844"/></g></g></g></g><g clip-path="url(#i)"><g clip-path="url(#j)"><g clip-path="url(#k)"><g clip-path="url(#l)"><path fill="url(#m)" d="M 316.433594 140.734375 L 245.371094 63.484375 L 168.117188 134.546875 L 239.183594 211.800781 Z M 316.433594 140.734375"/></g></g></g></g><g clip-path="url(#n)"><g clip-path="url(#o)"><g clip-path="url(#p)"><g clip-path="url(#q)"><path fill="url(#r)" d="M 71.167969 168.3125 L 165.003906 200.984375 L 197.675781 107.148438 L 103.839844 74.476562 Z M 71.167969 168.3125"/></g></g></g></g><g clip-path="url(#s)"><path fill="#5CE1E6" d="M 357.203125 60.371094 C 357.203125 60.371094 349.71875 8.152344 301.035156 8.152344 C 280.949219 8.152344 250.382812 17.0625 239.980469 32.59375 L 142.292969 32.59375 C 131.886719 17.0625 101.3125 8.152344 81.238281 8.152344 C 32.566406 8.152344 25.078125 60.371094 25.078125 60.371094 C 25.078125 60.371094 -1.355469 163.746094 11.523438 189.519531 C 24.394531 215.292969 63.03125 215.292969 75.914062 189.519531 C 78.878906 183.566406 91.019531 172.859375 103.046875 163.171875 C 110.886719 172.898438 122.742188 179.242188 136.199219 179.242188 C 157.714844 179.242188 175.335938 163.28125 178.3125 142.578125 L 203.980469 142.578125 C 206.960938 163.28125 224.59375 179.242188 246.097656 179.242188 C 259.554688 179.242188 271.398438 172.898438 279.25 163.183594 C 291.265625 172.875 303.414062 183.578125 306.394531 189.53125 C 319.277344 215.304688 357.914062 215.304688 370.78125 189.53125 C 383.640625 163.746094 357.203125 60.371094 357.203125 60.371094 Z M 81.25 32.59375 C 88.003906 32.59375 93.460938 38.066406 93.460938 44.8125 C 93.460938 51.570312 88.003906 57.035156 81.25 57.035156 C 74.496094 57.035156 69.039062 51.570312 69.039062 44.8125 C 69.039062 38.066406 74.496094 32.59375 81.25 32.59375 Z M 56.828125 81.476562 C 50.074219 81.476562 44.617188 76.011719 44.617188 69.253906 C 44.617188 62.507812 50.074219 57.035156 56.828125 57.035156 C 63.582031 57.035156 69.039062 62.507812 69.039062 69.253906 C 69.039062 76.011719 63.566406 81.476562 56.828125 81.476562 Z M 81.25 105.917969 C 74.496094 105.917969 69.039062 100.453125 69.039062 93.695312 C 69.039062 86.949219 74.496094 81.476562 81.25 81.476562 C 88.003906 81.476562 93.460938 86.949219 93.460938 93.695312 C 93.460938 100.453125 87.988281 105.917969 81.25 105.917969 Z M 93.460938 69.253906 C 93.460938 62.507812 98.917969 57.035156 105.671875 57.035156 C 112.425781 57.035156 117.882812 62.507812 117.882812 69.253906 C 117.882812 76.011719 112.425781 81.476562 105.671875 81.476562 C 98.917969 81.476562 93.460938 76.011719 93.460938 69.253906 Z M 136.199219 167.019531 C 119.335938 167.019531 105.671875 153.355469 105.671875 136.46875 C 105.671875 119.589844 119.335938 105.917969 136.199219 105.917969 C 153.050781 105.917969 166.726562 119.589844 166.726562 136.46875 C 166.726562 153.355469 153.050781 167.019531 136.199219 167.019531 Z M 301.046875 32.59375 C 307.800781 32.59375 313.257812 38.066406 313.257812 44.8125 C 313.257812 51.570312 307.800781 57.035156 301.046875 57.035156 C 294.292969 57.035156 288.835938 51.570312 288.835938 44.8125 C 288.835938 38.066406 294.292969 32.59375 301.046875 32.59375 Z M 246.097656 167.019531 C 229.234375 167.019531 215.570312 153.355469 215.570312 136.46875 C 215.570312 119.589844 229.234375 105.917969 246.097656 105.917969 C 262.949219 105.917969 276.625 119.589844 276.625 136.46875 C 276.625 153.355469 262.949219 167.019531 246.097656 167.019531 Z M 276.625 81.476562 C 269.871094 81.476562 264.414062 76.011719 264.414062 69.253906 C 264.414062 62.507812 269.871094 57.035156 276.625 57.035156 C 283.378906 57.035156 288.835938 62.507812 288.835938 69.253906 C 288.835938 76.011719 283.363281 81.476562 276.625 81.476562 Z M 301.046875 105.917969 C 294.292969 105.917969 288.835938 100.453125 288.835938 93.695312 C 288.835938 86.949219 294.292969 81.476562 301.046875 81.476562 C 307.800781 81.476562 313.257812 86.949219 313.257812 93.695312 C 313.257812 100.453125 307.785156 105.917969 301.046875 105.917969 Z M 325.46875 81.476562 C 318.714844 81.476562 313.257812 76.011719 313.257812 69.253906 C 313.257812 62.507812 318.714844 57.035156 325.46875 57.035156 C 332.222656 57.035156 337.679688 62.507812 337.679688 69.253906 C 337.679688 76.011719 332.207031 81.476562 325.46875 81.476562 Z M 325.46875 81.476562"/></g><g fill="#EEBD23"><use x="95.473" y="269.953" xmlns:xlink="http://www.w3.org/1999/xlink" xlink:href="#t" xlink:type="simple" xlink:actuate="onLoad" xlink:show="embed"/></g><g fill="#EEBD23"><use x="149.767" y="269.953" xmlns:xlink="http://www.w3.org/1999/xlink" xlink:href="#u" xlink:type="simple" xlink:actuate="onLoad" xlink:show="embed"/></g><g fill="#EEBD23"><use x="185.792" y="269.953" xmlns:xlink="http://www.w3.org/1999/xlink" xlink:href="#v" xlink:type="simple" xlink:actuate="onLoad" xlink:show="embed"/></g><g fill="#EEBD23"><use x="245.214" y="269.953" xmlns:xlink="http://www.w3.org/1999/xlink" xlink:href="#w" xlink:type="simple" xlink:actuate="onLoad" xlink:show="embed"/></g><g fill="#EEBD23"><use x="85.348" y="333.703" xmlns:xlink="http://www.w3.org/1999/xlink" xlink:href="#x" xlink:type="simple" xlink:actuate="onLoad" xlink:show="embed"/></g><g fill="#EEBD23"><use x="125.732" y="333.703" xmlns:xlink="http://www.w3.org/1999/xlink" xlink:href="#y" xlink:type="simple" xlink:actuate="onLoad" xlink:show="embed"/></g><g fill="#EEBD23"><use x="151.693" y="333.703" xmlns:xlink="http://www.w3.org/1999/xlink" xlink:href="#u" xlink:type="simple" xlink:actuate="onLoad" xlink:show="embed"/></g><g fill="#EEBD23"><use x="187.718" y="333.703" xmlns:xlink="http://www.w3.org/1999/xlink" xlink:href="#z" xlink:type="simple" xlink:actuate="onLoad" xlink:show="embed"/></g><g fill="#EEBD23"><use x="229.384" y="333.703" xmlns:xlink="http://www.w3.org/1999/xlink" xlink:href="#w" xlink:type="simple" xlink:actuate="onLoad" xlink:show="embed"/></g><g fill="#EEBD23"><use x="269.383" y="333.703" xmlns:xlink="http://www.w3.org/1999/xlink" xlink:href="#y" xlink:type="simple" xlink:actuate="onLoad" xlink:show="embed"/></g></svg>