<svg xmlns="http://www.w3.org/2000/svg" xmlns:xlink="http://www.w3.org/1999/xlink" width="375" viewBox="0 0 375 375" height="375" version="1.0"><defs><clipPath id="a"><path d="M 101.546875 83.765625 L 151.796875 83.765625 L 151.796875 134.015625 L 101.546875 134.015625 Z M 101.546875 83.765625"/></clipPath><clipPath id="b"><path d="M 151.796875 108.890625 C 151.796875 109.714844 151.757812 110.535156 151.675781 111.355469 C 151.59375 112.171875 151.472656 112.984375 151.3125 113.792969 C 151.152344 114.601562 150.953125 115.398438 150.714844 116.183594 C 150.476562 116.972656 150.199219 117.746094 149.882812 118.507812 C 149.570312 119.265625 149.21875 120.007812 148.832031 120.734375 C 148.441406 121.460938 148.019531 122.164062 147.5625 122.851562 C 147.105469 123.535156 146.617188 124.195312 146.09375 124.832031 C 145.570312 125.464844 145.019531 126.074219 144.4375 126.65625 C 143.855469 127.238281 143.246094 127.789062 142.609375 128.3125 C 141.976562 128.835938 141.316406 129.324219 140.628906 129.78125 C 139.945312 130.238281 139.242188 130.660156 138.515625 131.050781 C 137.789062 131.4375 137.046875 131.789062 136.285156 132.101562 C 135.527344 132.417969 134.753906 132.695312 133.964844 132.933594 C 133.179688 133.171875 132.378906 133.371094 131.574219 133.535156 C 130.765625 133.695312 129.953125 133.8125 129.132812 133.894531 C 128.316406 133.976562 127.496094 134.015625 126.671875 134.015625 C 125.847656 134.015625 125.027344 133.976562 124.210938 133.894531 C 123.390625 133.8125 122.578125 133.695312 121.769531 133.535156 C 120.964844 133.371094 120.164062 133.171875 119.378906 132.933594 C 118.589844 132.695312 117.816406 132.417969 117.058594 132.101562 C 116.296875 131.789062 115.554688 131.4375 114.828125 131.050781 C 114.101562 130.660156 113.398438 130.238281 112.714844 129.78125 C 112.027344 129.324219 111.367188 128.835938 110.734375 128.3125 C 110.097656 127.789062 109.488281 127.238281 108.90625 126.65625 C 108.324219 126.074219 107.773438 125.464844 107.25 124.832031 C 106.726562 124.195312 106.238281 123.535156 105.78125 122.851562 C 105.324219 122.164062 104.902344 121.460938 104.511719 120.734375 C 104.125 120.007812 103.773438 119.265625 103.460938 118.507812 C 103.144531 117.746094 102.867188 116.972656 102.628906 116.183594 C 102.390625 115.398438 102.191406 114.601562 102.03125 113.792969 C 101.867188 112.984375 101.75 112.171875 101.667969 111.355469 C 101.585938 110.535156 101.546875 109.714844 101.546875 108.890625 C 101.546875 108.066406 101.585938 107.246094 101.667969 106.429688 C 101.75 105.609375 101.867188 104.796875 102.03125 103.988281 C 102.191406 103.183594 102.390625 102.386719 102.628906 101.597656 C 102.867188 100.808594 103.144531 100.035156 103.460938 99.277344 C 103.773438 98.515625 104.125 97.773438 104.511719 97.046875 C 104.902344 96.320312 105.324219 95.617188 105.78125 94.933594 C 106.238281 94.25 106.726562 93.589844 107.25 92.953125 C 107.773438 92.316406 108.324219 91.707031 108.90625 91.125 C 109.488281 90.542969 110.097656 89.992188 110.734375 89.46875 C 111.367188 88.945312 112.027344 88.457031 112.714844 88 C 113.398438 87.542969 114.101562 87.121094 114.828125 86.734375 C 115.554688 86.34375 116.296875 85.992188 117.058594 85.679688 C 117.816406 85.363281 118.589844 85.085938 119.378906 84.847656 C 120.164062 84.609375 120.964844 84.410156 121.769531 84.25 C 122.578125 84.089844 123.390625 83.96875 124.210938 83.886719 C 125.027344 83.804688 125.847656 83.765625 126.671875 83.765625 C 127.496094 83.765625 128.316406 83.804688 129.132812 83.886719 C 129.953125 83.96875 130.765625 84.089844 131.574219 84.25 C 132.378906 84.410156 133.179688 84.609375 133.964844 84.847656 C 134.753906 85.085938 135.527344 85.363281 136.285156 85.679688 C 137.046875 85.992188 137.789062 86.34375 138.515625 86.734375 C 139.242188 87.121094 139.945312 87.542969 140.628906 88 C 141.316406 88.457031 141.976562 88.945312 142.609375 89.46875 C 143.246094 89.992188 143.855469 90.542969 144.4375 91.125 C 145.019531 91.707031 145.570312 92.316406 146.09375 92.953125 C 146.617188 93.589844 147.105469 94.25 147.5625 94.933594 C 148.019531 95.617188 148.441406 96.320312 148.832031 97.046875 C 149.21875 97.773438 149.570312 98.515625 149.882812 99.277344 C 150.199219 100.035156 150.476562 100.808594 150.714844 101.597656 C 150.953125 102.386719 151.152344 103.183594 151.3125 103.988281 C 151.472656 104.796875 151.59375 105.609375 151.675781 106.429688 C 151.757812 107.246094 151.796875 108.066406 151.796875 108.890625 Z M 151.796875 108.890625"/></clipPath><clipPath id="d"><path d="M 219 83 L 270 83 L 270 134 L 219 134 Z M 219 83"/></clipPath><clipPath id="e"><path d="M 274.863281 89.917969 L 263.71875 138.917969 L 214.722656 127.773438 L 225.863281 78.773438 Z M 274.863281 89.917969"/></clipPath><clipPath id="f"><path d="M 274.863281 89.917969 L 263.71875 138.917969 L 214.722656 127.773438 L 225.863281 78.773438 Z M 274.863281 89.917969"/></clipPath><clipPath id="g"><path d="M 274.863281 89.917969 L 263.71875 138.917969 L 214.722656 127.773438 L 225.863281 78.773438 Z M 274.863281 89.917969"/></clipPath><clipPath id="h"><path d="M 239.21875 133.34375 C 238.417969 133.160156 237.625 132.941406 236.847656 132.679688 C 236.066406 132.417969 235.300781 132.121094 234.546875 131.785156 C 233.796875 131.449219 233.0625 131.078125 232.347656 130.671875 C 231.632812 130.265625 230.941406 129.824219 230.269531 129.347656 C 229.597656 128.871094 228.953125 128.363281 228.328125 127.824219 C 227.707031 127.285156 227.113281 126.71875 226.546875 126.121094 C 225.984375 125.523438 225.449219 124.898438 224.941406 124.25 C 224.4375 123.597656 223.96875 122.925781 223.527344 122.226562 C 223.089844 121.53125 222.6875 120.816406 222.320312 120.078125 C 221.953125 119.34375 221.621094 118.589844 221.328125 117.824219 C 221.03125 117.054688 220.777344 116.273438 220.558594 115.480469 C 220.34375 114.6875 220.164062 113.882812 220.027344 113.074219 C 219.886719 112.261719 219.789062 111.445312 219.730469 110.625 C 219.671875 109.804688 219.65625 108.980469 219.675781 108.160156 C 219.699219 107.335938 219.761719 106.515625 219.863281 105.699219 C 219.96875 104.882812 220.109375 104.074219 220.292969 103.273438 C 220.476562 102.46875 220.695312 101.679688 220.957031 100.898438 C 221.21875 100.117188 221.515625 99.351562 221.851562 98.601562 C 222.1875 97.847656 222.558594 97.117188 222.964844 96.402344 C 223.375 95.6875 223.816406 94.992188 224.289062 94.320312 C 224.765625 93.648438 225.273438 93.003906 225.8125 92.382812 C 226.351562 91.761719 226.921875 91.167969 227.519531 90.601562 C 228.113281 90.035156 228.738281 89.5 229.390625 88.996094 C 230.039062 88.492188 230.710938 88.019531 231.410156 87.582031 C 232.105469 87.144531 232.820312 86.738281 233.558594 86.371094 C 234.292969 86.003906 235.046875 85.671875 235.8125 85.378906 C 236.582031 85.085938 237.363281 84.828125 238.15625 84.613281 C 238.953125 84.394531 239.753906 84.214844 240.566406 84.078125 C 241.375 83.941406 242.191406 83.839844 243.011719 83.78125 C 243.832031 83.722656 244.65625 83.707031 245.476562 83.730469 C 246.300781 83.75 247.121094 83.8125 247.9375 83.917969 C 248.753906 84.019531 249.5625 84.164062 250.363281 84.34375 C 251.167969 84.527344 251.957031 84.75 252.738281 85.007812 C 253.519531 85.269531 254.285156 85.566406 255.035156 85.902344 C 255.789062 86.238281 256.519531 86.609375 257.234375 87.019531 C 257.953125 87.425781 258.644531 87.867188 259.316406 88.34375 C 259.988281 88.816406 260.632812 89.324219 261.253906 89.863281 C 261.878906 90.402344 262.472656 90.972656 263.035156 91.570312 C 263.601562 92.167969 264.136719 92.792969 264.640625 93.441406 C 265.144531 94.089844 265.617188 94.765625 266.054688 95.460938 C 266.496094 96.15625 266.898438 96.875 267.265625 97.609375 C 267.632812 98.347656 267.964844 99.097656 268.257812 99.867188 C 268.550781 100.636719 268.808594 101.417969 269.027344 102.210938 C 269.242188 103.003906 269.421875 103.804688 269.558594 104.617188 C 269.699219 105.429688 269.796875 106.246094 269.855469 107.066406 C 269.914062 107.886719 269.929688 108.707031 269.90625 109.53125 C 269.886719 110.351562 269.824219 111.171875 269.71875 111.988281 C 269.617188 112.804688 269.472656 113.613281 269.292969 114.417969 C 269.109375 115.21875 268.886719 116.011719 268.628906 116.792969 C 268.367188 117.570312 268.070312 118.335938 267.734375 119.089844 C 267.398438 119.839844 267.027344 120.574219 266.621094 121.289062 C 266.210938 122.003906 265.769531 122.695312 265.292969 123.367188 C 264.820312 124.039062 264.3125 124.6875 263.773438 125.308594 C 263.234375 125.929688 262.664062 126.523438 262.066406 127.089844 C 261.46875 127.65625 260.847656 128.191406 260.195312 128.695312 C 259.546875 129.199219 258.871094 129.671875 258.175781 130.109375 C 257.480469 130.546875 256.761719 130.949219 256.027344 131.316406 C 255.292969 131.6875 254.539062 132.015625 253.769531 132.3125 C 253.003906 132.605469 252.222656 132.859375 251.425781 133.078125 C 250.632812 133.296875 249.832031 133.472656 249.019531 133.613281 C 248.210938 133.75 247.394531 133.847656 246.574219 133.90625 C 245.75 133.964844 244.929688 133.984375 244.105469 133.960938 C 243.285156 133.9375 242.464844 133.875 241.648438 133.773438 C 240.832031 133.667969 240.023438 133.527344 239.21875 133.34375 Z M 239.21875 133.34375"/></clipPath><clipPath id="j"><path d="M 135.292969 125.511719 L 178.792969 125.511719 L 178.792969 169.011719 L 135.292969 169.011719 Z M 135.292969 125.511719"/></clipPath><clipPath id="k"><path d="M 178.792969 147.261719 C 178.792969 147.972656 178.761719 148.683594 178.691406 149.394531 C 178.621094 150.101562 178.515625 150.808594 178.375 151.503906 C 178.238281 152.203125 178.066406 152.894531 177.859375 153.574219 C 177.652344 154.257812 177.410156 154.925781 177.140625 155.585938 C 176.867188 156.242188 176.5625 156.886719 176.226562 157.515625 C 175.890625 158.144531 175.523438 158.753906 175.128906 159.347656 C 174.734375 159.9375 174.308594 160.507812 173.859375 161.058594 C 173.40625 161.609375 172.929688 162.136719 172.425781 162.640625 C 171.921875 163.144531 171.394531 163.625 170.84375 164.074219 C 170.292969 164.527344 169.722656 164.949219 169.128906 165.347656 C 168.535156 165.742188 167.925781 166.109375 167.296875 166.445312 C 166.667969 166.78125 166.027344 167.085938 165.367188 167.355469 C 164.710938 167.628906 164.039062 167.867188 163.359375 168.074219 C 162.675781 168.28125 161.988281 168.457031 161.289062 168.59375 C 160.589844 168.734375 159.886719 168.835938 159.175781 168.90625 C 158.46875 168.976562 157.757812 169.011719 157.042969 169.011719 C 156.332031 169.011719 155.621094 168.976562 154.914062 168.90625 C 154.203125 168.835938 153.5 168.734375 152.800781 168.59375 C 152.101562 168.457031 151.414062 168.28125 150.730469 168.074219 C 150.050781 167.867188 149.378906 167.628906 148.722656 167.355469 C 148.0625 167.085938 147.421875 166.78125 146.792969 166.445312 C 146.164062 166.109375 145.554688 165.742188 144.960938 165.347656 C 144.367188 164.949219 143.796875 164.527344 143.246094 164.074219 C 142.695312 163.625 142.167969 163.144531 141.664062 162.640625 C 141.160156 162.136719 140.683594 161.609375 140.230469 161.058594 C 139.78125 160.507812 139.355469 159.9375 138.960938 159.347656 C 138.566406 158.753906 138.199219 158.144531 137.863281 157.515625 C 137.527344 156.886719 137.222656 156.242188 136.949219 155.585938 C 136.679688 154.925781 136.4375 154.257812 136.230469 153.574219 C 136.023438 152.894531 135.851562 152.203125 135.710938 151.503906 C 135.574219 150.808594 135.46875 150.101562 135.398438 149.394531 C 135.328125 148.683594 135.292969 147.972656 135.292969 147.261719 C 135.292969 146.550781 135.328125 145.839844 135.398438 145.128906 C 135.46875 144.421875 135.574219 143.71875 135.710938 143.019531 C 135.851562 142.320312 136.023438 141.628906 136.230469 140.949219 C 136.4375 140.265625 136.679688 139.597656 136.949219 138.9375 C 137.222656 138.28125 137.527344 137.636719 137.863281 137.007812 C 138.199219 136.382812 138.566406 135.769531 138.960938 135.179688 C 139.355469 134.585938 139.78125 134.015625 140.230469 133.464844 C 140.683594 132.914062 141.160156 132.386719 141.664062 131.882812 C 142.167969 131.378906 142.695312 130.902344 143.246094 130.449219 C 143.796875 129.996094 144.367188 129.574219 144.960938 129.179688 C 145.554688 128.78125 146.164062 128.417969 146.792969 128.082031 C 147.421875 127.746094 148.0625 127.441406 148.722656 127.167969 C 149.378906 126.894531 150.050781 126.65625 150.730469 126.449219 C 151.414062 126.242188 152.101562 126.070312 152.800781 125.929688 C 153.5 125.792969 154.203125 125.6875 154.914062 125.617188 C 155.621094 125.546875 156.332031 125.511719 157.042969 125.511719 C 157.757812 125.511719 158.46875 125.546875 159.175781 125.617188 C 159.886719 125.6875 160.589844 125.792969 161.289062 125.929688 C 161.988281 126.070312 162.675781 126.242188 163.359375 126.449219 C 164.039062 126.65625 164.710938 126.894531 165.367188 127.167969 C 166.027344 127.441406 166.667969 127.746094 167.296875 128.082031 C 167.925781 128.417969 168.535156 128.78125 169.128906 129.179688 C 169.722656 129.574219 170.292969 129.996094 170.84375 130.449219 C 171.394531 130.902344 171.921875 131.378906 172.425781 131.882812 C 172.929688 132.386719 173.40625 132.914062 173.859375 133.464844 C 174.308594 134.015625 174.734375 134.585938 175.128906 135.179688 C 175.523438 135.769531 175.890625 136.382812 176.226562 137.007812 C 176.5625 137.636719 176.867188 138.28125 177.140625 138.9375 C 177.410156 139.597656 177.652344 140.265625 177.859375 140.949219 C 178.066406 141.628906 178.238281 142.320312 178.375 143.019531 C 178.515625 143.71875 178.621094 144.421875 178.691406 145.128906 C 178.761719 145.839844 178.792969 146.550781 178.792969 147.261719 Z M 178.792969 147.261719"/></clipPath><clipPath id="m"><path d="M 193 125 L 237 125 L 237 169 L 193 169 Z M 193 125"/></clipPath><clipPath id="n"><path d="M 242.960938 134.402344 L 227.796875 175.175781 L 187.023438 160.007812 L 202.191406 119.238281 Z M 242.960938 134.402344"/></clipPath><clipPath id="o"><path d="M 242.960938 134.402344 L 227.796875 175.175781 L 187.023438 160.007812 L 202.191406 119.238281 Z M 242.960938 134.402344"/></clipPath><clipPath id="p"><path d="M 207.410156 167.59375 C 206.742188 167.34375 206.089844 167.0625 205.449219 166.75 C 204.808594 166.4375 204.183594 166.09375 203.578125 165.722656 C 202.972656 165.347656 202.386719 164.945312 201.820312 164.511719 C 201.253906 164.082031 200.707031 163.625 200.1875 163.140625 C 199.664062 162.652344 199.167969 162.144531 198.695312 161.609375 C 198.222656 161.078125 197.78125 160.519531 197.363281 159.945312 C 196.945312 159.367188 196.558594 158.769531 196.199219 158.15625 C 195.839844 157.539062 195.511719 156.90625 195.214844 156.257812 C 194.917969 155.613281 194.65625 154.953125 194.425781 154.277344 C 194.191406 153.605469 193.996094 152.921875 193.832031 152.226562 C 193.664062 151.535156 193.535156 150.835938 193.441406 150.128906 C 193.34375 149.421875 193.285156 148.714844 193.257812 148.003906 C 193.230469 147.289062 193.238281 146.578125 193.285156 145.867188 C 193.328125 145.15625 193.40625 144.449219 193.519531 143.746094 C 193.632812 143.042969 193.78125 142.347656 193.960938 141.660156 C 194.144531 140.96875 194.359375 140.292969 194.605469 139.625 C 194.855469 138.957031 195.136719 138.300781 195.449219 137.664062 C 195.761719 137.023438 196.105469 136.398438 196.476562 135.792969 C 196.851562 135.1875 197.253906 134.601562 197.6875 134.03125 C 198.117188 133.464844 198.574219 132.921875 199.0625 132.398438 C 199.546875 131.878906 200.054688 131.382812 200.589844 130.910156 C 201.121094 130.4375 201.679688 129.992188 202.253906 129.578125 C 202.832031 129.160156 203.429688 128.773438 204.042969 128.414062 C 204.660156 128.054688 205.292969 127.726562 205.941406 127.429688 C 206.585938 127.132812 207.246094 126.871094 207.921875 126.636719 C 208.59375 126.40625 209.277344 126.207031 209.972656 126.042969 C 210.664062 125.878906 211.363281 125.75 212.070312 125.652344 C 212.777344 125.558594 213.484375 125.496094 214.195312 125.472656 C 214.910156 125.445312 215.621094 125.453125 216.332031 125.496094 C 217.042969 125.542969 217.75 125.621094 218.453125 125.734375 C 219.15625 125.847656 219.851562 125.996094 220.539062 126.175781 C 221.230469 126.359375 221.90625 126.574219 222.574219 126.820312 C 223.242188 127.070312 223.898438 127.351562 224.535156 127.664062 C 225.175781 127.976562 225.800781 128.320312 226.40625 128.691406 C 227.011719 129.066406 227.597656 129.46875 228.167969 129.898438 C 228.734375 130.332031 229.277344 130.789062 229.800781 131.273438 C 230.320312 131.757812 230.816406 132.269531 231.289062 132.804688 C 231.761719 133.335938 232.207031 133.890625 232.621094 134.46875 C 233.039062 135.046875 233.429688 135.644531 233.785156 136.257812 C 234.144531 136.875 234.472656 137.507812 234.769531 138.152344 C 235.066406 138.800781 235.328125 139.460938 235.5625 140.136719 C 235.792969 140.808594 235.992188 141.492188 236.15625 142.1875 C 236.320312 142.878906 236.449219 143.578125 236.546875 144.285156 C 236.640625 144.992188 236.703125 145.699219 236.726562 146.410156 C 236.753906 147.121094 236.746094 147.835938 236.703125 148.546875 C 236.65625 149.257812 236.578125 149.964844 236.464844 150.667969 C 236.351562 151.371094 236.203125 152.066406 236.023438 152.753906 C 235.839844 153.445312 235.625 154.121094 235.378906 154.789062 C 235.128906 155.457031 234.847656 156.109375 234.535156 156.75 C 234.222656 157.390625 233.882812 158.015625 233.507812 158.621094 C 233.132812 159.226562 232.730469 159.8125 232.300781 160.378906 C 231.867188 160.949219 231.410156 161.492188 230.925781 162.011719 C 230.441406 162.535156 229.929688 163.03125 229.398438 163.503906 C 228.863281 163.976562 228.308594 164.417969 227.730469 164.835938 C 227.152344 165.253906 226.554688 165.640625 225.941406 166 C 225.324219 166.359375 224.691406 166.6875 224.046875 166.984375 C 223.398438 167.28125 222.738281 167.542969 222.0625 167.773438 C 221.390625 168.007812 220.707031 168.203125 220.011719 168.371094 C 219.320312 168.535156 218.621094 168.664062 217.914062 168.757812 C 217.210938 168.855469 216.5 168.917969 215.789062 168.941406 C 215.078125 168.96875 214.363281 168.960938 213.652344 168.914062 C 212.941406 168.871094 212.234375 168.792969 211.53125 168.679688 C 210.828125 168.566406 210.132812 168.417969 209.445312 168.238281 C 208.757812 168.054688 208.078125 167.839844 207.410156 167.59375 Z M 207.410156 167.59375"/></clipPath><clipPath id="r"><path d="M 87 76.886719 L 289 76.886719 L 289 187 L 87 187 Z M 87 76.886719"/></clipPath><g id="s"><path d="M 24.175781 1.179688 C 37.023438 1.179688 45.660156 -8.132812 44.988281 -21.425781 L 19.855469 -21.425781 L 19.855469 -16.996094 L 38.144531 -16.996094 C 37.636719 -9.761719 31.917969 -4.710938 24.34375 -4.710938 C 15.761719 -4.710938 9.535156 -11.164062 9.535156 -19.855469 C 9.535156 -28.664062 15.707031 -34.945312 24.121094 -34.890625 C 30.066406 -34.890625 35.339844 -31.1875 36.628906 -26.140625 L 43.136719 -27.375 C 41.453125 -35.171875 33.488281 -40.835938 24.175781 -40.835938 C 11.554688 -40.835938 2.46875 -32.199219 2.46875 -19.855469 C 2.46875 -7.574219 11.554688 1.179688 24.175781 1.179688 Z M 24.175781 1.179688"/></g><g id="t"><path d="M 11.21875 0.898438 C 15.648438 0.898438 19.632812 -0.898438 21.484375 -4.429688 L 21.875 -4.429688 L 21.875 0 L 28.269531 0 L 28.269531 -18.621094 C 28.269531 -24.90625 23.167969 -29.167969 15.816406 -29.167969 C 8.300781 -29.167969 3.199219 -25.019531 3.199219 -19.015625 L 9.367188 -19.015625 C 9.367188 -22.492188 12.003906 -24.90625 15.761719 -24.90625 C 19.410156 -24.90625 21.875 -22.382812 21.875 -18.847656 L 21.875 -17.332031 L 14.808594 -16.210938 C 5.832031 -14.808594 1.851562 -11.835938 1.851562 -6.730469 C 1.851562 -1.90625 5.609375 0.898438 11.21875 0.898438 Z M 13.460938 -3.253906 C 10.039062 -3.253906 8.019531 -4.769531 8.019531 -7.234375 C 8.019531 -9.871094 10.039062 -11.609375 15.203125 -12.507812 L 21.875 -13.628906 L 21.875 -11.164062 C 21.875 -6.617188 18.511719 -3.253906 13.460938 -3.253906 Z M 13.460938 -3.253906"/></g><g id="u"><path d="M 3.703125 0 L 10.039062 0 L 10.039062 -16.660156 C 10.039062 -21.089844 12.675781 -23.953125 16.660156 -23.953125 C 20.417969 -23.953125 22.941406 -21.089844 22.941406 -16.660156 L 22.941406 0 L 29.335938 0 L 29.335938 -16.660156 C 29.335938 -21.035156 31.972656 -23.953125 36.011719 -23.953125 C 39.9375 -23.894531 42.40625 -20.921875 42.40625 -16.660156 L 42.40625 0 L 48.800781 0 L 48.800781 -17.949219 C 48.800781 -24.792969 44.539062 -29.394531 38.3125 -29.394531 C 33.542969 -29.394531 30.234375 -26.925781 28.886719 -23 L 28.496094 -23 C 27.261719 -26.867188 23.726562 -29.394531 19.296875 -29.394531 C 15.257812 -29.394531 12.058594 -27.207031 10.488281 -23.839844 L 10.039062 -23.839844 L 10.039062 -28.496094 L 3.703125 -28.496094 Z M 3.703125 0"/></g><g id="v"><path d="M 17.726562 0.898438 C 24.570312 0.898438 30.515625 -2.804688 32.085938 -8.300781 L 26.476562 -9.199219 C 25.296875 -6.003906 21.875 -3.703125 18.007812 -3.703125 C 12.734375 -3.703125 8.976562 -7.234375 8.527344 -12.507812 L 32.984375 -12.507812 L 33.039062 -14.246094 C 33.039062 -23.277344 26.867188 -29.394531 17.78125 -29.394531 C 8.527344 -29.394531 2.019531 -23.335938 2.019531 -14.304688 C 2.019531 -5.214844 8.46875 0.898438 17.726562 0.898438 Z M 8.46875 -16.210938 C 8.976562 -21.316406 12.566406 -24.847656 17.667969 -24.847656 C 22.605469 -24.847656 26.25 -21.148438 26.589844 -16.210938 Z M 8.46875 -16.210938"/></g><g id="x"><path d="M 14.136719 0 L 21.203125 0 L 21.203125 -33.824219 L 34.496094 -33.824219 L 34.496094 -39.714844 L 0.898438 -39.714844 L 0.898438 -33.824219 L 14.136719 -33.824219 Z M 14.136719 0"/></g><g id="y"><path d="M 3.703125 0 L 10.039062 0 L 10.039062 -14.976562 C 10.039062 -20.136719 12.675781 -23.558594 16.714844 -23.558594 C 18.117188 -23.558594 19.855469 -23.167969 21.425781 -22.382812 L 21.425781 -28.269531 C 20.304688 -28.777344 18.960938 -29.054688 17.667969 -29.054688 C 14.246094 -29.054688 11.835938 -27.09375 10.488281 -23.839844 L 10.039062 -23.839844 L 10.039062 -28.496094 L 3.703125 -28.496094 Z M 3.703125 0"/></g><g id="z"><path d="M 15.59375 0.898438 C 20.417969 0.898438 24.007812 -1.457031 25.972656 -5.214844 L 26.421875 -5.214844 L 26.421875 0 L 32.757812 0 L 32.757812 -41.398438 L 26.421875 -41.398438 L 26.421875 -23.277344 L 25.972656 -23.277344 C 24.007812 -27.09375 20.417969 -29.394531 15.539062 -29.394531 C 7.574219 -29.394531 1.964844 -23.277344 1.964844 -14.246094 C 1.964844 -5.160156 7.515625 0.898438 15.59375 0.898438 Z M 17.5 -4.542969 C 12.171875 -4.542969 8.359375 -8.636719 8.359375 -14.246094 C 8.359375 -19.855469 12.171875 -23.953125 17.5 -23.953125 C 22.773438 -23.953125 26.644531 -19.855469 26.644531 -14.246094 C 26.644531 -8.636719 22.773438 -4.542969 17.5 -4.542969 Z M 17.5 -4.542969"/></g><linearGradient x1="1770.926" gradientTransform="rotate(90 416.2 -193.636) scale(.39166)" xmlns:xlink="http://www.w3.org/1999/xlink" y1="244.834" x2="1899.226" gradientUnits="userSpaceOnUse" y2="244.834" xlink:type="simple" xlink:actuate="onLoad" id="c" xlink:show="other"><stop stop-color="#FFAFD7" offset="0"/><stop stop-color="#FFAFD7" offset=".008"/><stop stop-color="#FFAFD6" offset=".016"/><stop stop-color="#FFAFD5" offset=".023"/><stop stop-color="#FFAFD5" offset=".031"/><stop stop-color="#FFAFD4" offset=".039"/><stop stop-color="#FFAFD4" offset=".047"/><stop stop-color="#FFAFD3" offset=".055"/><stop stop-color="#FFAFD2" offset=".063"/><stop stop-color="#FFB0D2" offset=".07"/><stop stop-color="#FFB0D1" offset=".078"/><stop stop-color="#FFB0D1" offset=".086"/><stop stop-color="#FFB0D0" offset=".094"/><stop stop-color="#FFB0CF" offset=".102"/><stop stop-color="#FFB0CF" offset=".109"/><stop stop-color="#FFB0CE" offset=".117"/><stop stop-color="#FFB0CE" offset=".125"/><stop stop-color="#FFB0CD" offset=".133"/><stop stop-color="#FFB0CC" offset=".141"/><stop stop-color="#FFB0CC" offset=".148"/><stop stop-color="#FFB0CB" offset=".156"/><stop stop-color="#FFB0CB" offset=".164"/><stop stop-color="#FFB1CA" offset=".172"/><stop stop-color="#FFB1C9" offset=".18"/><stop stop-color="#FFB1C9" offset=".188"/><stop stop-color="#FFB1C8" offset=".195"/><stop stop-color="#FFB1C8" offset=".203"/><stop stop-color="#FFB1C7" offset=".211"/><stop stop-color="#FFB1C6" offset=".219"/><stop stop-color="#FFB1C6" offset=".227"/><stop stop-color="#FFB1C5" offset=".234"/><stop stop-color="#FFB1C5" offset=".242"/><stop stop-color="#FFB1C4" offset=".25"/><stop stop-color="#FFB1C3" offset=".258"/><stop stop-color="#FFB1C3" offset=".266"/><stop stop-color="#FFB2C2" offset=".273"/><stop stop-color="#FFB2C2" offset=".281"/><stop stop-color="#FFB2C1" offset=".289"/><stop stop-color="#FFB2C0" offset=".297"/><stop stop-color="#FFB2C0" offset=".305"/><stop stop-color="#FFB2BF" offset=".313"/><stop stop-color="#FFB2BF" offset=".32"/><stop stop-color="#FFB2BE" offset=".328"/><stop stop-color="#FFB2BD" offset=".336"/><stop stop-color="#FFB2BD" offset=".344"/><stop stop-color="#FFB2BC" offset=".352"/><stop stop-color="#FFB2BC" offset=".359"/><stop stop-color="#FFB2BB" offset=".367"/><stop stop-color="#FFB3BA" offset=".375"/><stop stop-color="#FFB3BA" offset=".383"/><stop stop-color="#FFB3B9" offset=".391"/><stop stop-color="#FFB3B9" offset=".398"/><stop stop-color="#FFB3B8" offset=".406"/><stop stop-color="#FFB3B7" offset=".414"/><stop stop-color="#FFB3B7" offset=".422"/><stop stop-color="#FFB3B6" offset=".43"/><stop stop-color="#FFB3B6" offset=".438"/><stop stop-color="#FFB3B5" offset=".445"/><stop stop-color="#FFB3B4" offset=".453"/><stop stop-color="#FFB3B4" offset=".461"/><stop stop-color="#FFB3B3" offset=".469"/><stop stop-color="#FFB3B3" offset=".477"/><stop stop-color="#FFB4B2" offset=".484"/><stop stop-color="#FFB4B1" offset=".492"/><stop stop-color="#FFB4B1" offset=".5"/><stop stop-color="#FFB4B0" offset=".508"/><stop stop-color="#FFB4B0" offset=".516"/><stop stop-color="#FFB4AF" offset=".523"/><stop stop-color="#FFB4AE" offset=".531"/><stop stop-color="#FFB4AE" offset=".539"/><stop stop-color="#FFB4AD" offset=".547"/><stop stop-color="#FFB4AC" offset=".555"/><stop stop-color="#FFB4AC" offset=".563"/><stop stop-color="#FFB4AB" offset=".57"/><stop stop-color="#FFB4AB" offset=".578"/><stop stop-color="#FFB5AA" offset=".586"/><stop stop-color="#FFB5A9" offset=".594"/><stop stop-color="#FFB5A9" offset=".602"/><stop stop-color="#FFB5A8" offset=".609"/><stop stop-color="#FFB5A8" offset=".617"/><stop stop-color="#FFB5A7" offset=".625"/><stop stop-color="#FFB5A6" offset=".633"/><stop stop-color="#FFB5A5" offset=".637"/><stop stop-color="#FFB5A4" offset=".641"/><stop stop-color="#FFB5A3" offset=".645"/><stop stop-color="#FFB6A2" offset=".648"/><stop stop-color="#FFB6A0" offset=".652"/><stop stop-color="#FFB69F" offset=".656"/><stop stop-color="#FFB69E" offset=".66"/><stop stop-color="#FFB69C" offset=".664"/><stop stop-color="#FFB69B" offset=".668"/><stop stop-color="#FFB69A" offset=".672"/><stop stop-color="#FFB799" offset=".676"/><stop stop-color="#FFB797" offset=".68"/><stop stop-color="#FFB796" offset=".684"/><stop stop-color="#FFB795" offset=".688"/><stop stop-color="#FFB794" offset=".691"/><stop stop-color="#FFB792" offset=".695"/><stop stop-color="#FFB891" offset=".699"/><stop stop-color="#FFB890" offset=".703"/><stop stop-color="#FFB88E" offset=".707"/><stop stop-color="#FFB88D" offset=".711"/><stop stop-color="#FFB88C" offset=".715"/><stop stop-color="#FFB88B" offset=".719"/><stop stop-color="#FFB889" offset=".723"/><stop stop-color="#FFB988" offset=".727"/><stop stop-color="#FFB987" offset=".73"/><stop stop-color="#FFB985" offset=".734"/><stop stop-color="#FFB984" offset=".738"/><stop stop-color="#FFB983" offset=".742"/><stop stop-color="#FFB982" offset=".746"/><stop stop-color="#FFBA80" offset=".75"/><stop stop-color="#FFBA7F" offset=".754"/><stop stop-color="#FFBA7E" offset=".758"/><stop stop-color="#FFBA7C" offset=".762"/><stop stop-color="#FFBA7B" offset=".766"/><stop stop-color="#FFBA7A" offset=".77"/><stop stop-color="#FFBA79" offset=".773"/><stop stop-color="#FB7" offset=".777"/><stop stop-color="#FFBB76" offset=".781"/><stop stop-color="#FFBB75" offset=".785"/><stop stop-color="#FFBB73" offset=".789"/><stop stop-color="#FFBB72" offset=".793"/><stop stop-color="#FFBB71" offset=".797"/><stop stop-color="#FFBC70" offset=".801"/><stop stop-color="#FFBC6E" offset=".805"/><stop stop-color="#FFBC6D" offset=".809"/><stop stop-color="#FFBC6C" offset=".813"/><stop stop-color="#FFBC6B" offset=".816"/><stop stop-color="#FFBC69" offset=".82"/><stop stop-color="#FFBC68" offset=".824"/><stop stop-color="#FFBD67" offset=".828"/><stop stop-color="#FFBD65" offset=".832"/><stop stop-color="#FFBD64" offset=".836"/><stop stop-color="#FFBD63" offset=".84"/><stop stop-color="#FFBD62" offset=".844"/><stop stop-color="#FFBD60" offset=".848"/><stop stop-color="#FFBE5F" offset=".852"/><stop stop-color="#FFBE5E" offset=".855"/><stop stop-color="#FFBE5C" offset=".859"/><stop stop-color="#FFBE5B" offset=".863"/><stop stop-color="#FFBE5A" offset=".867"/><stop stop-color="#FFBE59" offset=".871"/><stop stop-color="#FFBE57" offset=".875"/><stop stop-color="#FFBF56" offset=".879"/><stop stop-color="#FFBF55" offset=".883"/><stop stop-color="#FFBF53" offset=".887"/><stop stop-color="#FFBF52" offset=".891"/><stop stop-color="#FFBF51" offset=".895"/><stop stop-color="#FFBF50" offset=".898"/><stop stop-color="#FFC04E" offset=".902"/><stop stop-color="#FFC04D" offset=".906"/><stop stop-color="#FFC04C" offset=".91"/><stop stop-color="#FFC04B" offset=".914"/><stop stop-color="#FFC049" offset=".918"/><stop stop-color="#FFC048" offset=".922"/><stop stop-color="#FFC047" offset=".926"/><stop stop-color="#FFC145" offset=".93"/><stop stop-color="#FFC144" offset=".934"/><stop stop-color="#FFC143" offset=".938"/><stop stop-color="#FFC142" offset=".941"/><stop stop-color="#FFC140" offset=".945"/><stop stop-color="#FFC13F" offset=".949"/><stop stop-color="#FFC23E" offset=".953"/><stop stop-color="#FFC23C" offset=".957"/><stop stop-color="#FFC23B" offset=".961"/><stop stop-color="#FFC23A" offset=".965"/><stop stop-color="#FFC239" offset=".969"/><stop stop-color="#FFC237" offset=".973"/><stop stop-color="#FFC236" offset=".977"/><stop stop-color="#FFC335" offset=".98"/><stop stop-color="#FFC333" offset=".984"/><stop stop-color="#FFC332" offset=".988"/><stop stop-color="#FFC331" offset=".992"/><stop stop-color="#FFC331" offset="1"/></linearGradient><linearGradient x1="1758.257" gradientTransform="rotate(-167.187 482.487 128.975) scale(.39166)" xmlns:xlink="http://www.w3.org/1999/xlink" y1="244.834" x2="1911.895" gradientUnits="userSpaceOnUse" y2="244.834" xlink:type="simple" xlink:actuate="onLoad" id="i" xlink:show="other"><stop stop-color="#FFAFD7" offset="0"/><stop stop-color="#FFAFD7" offset=".063"/><stop stop-color="#FFAFD7" offset=".078"/><stop stop-color="#FFAFD7" offset=".086"/><stop stop-color="#FFAFD6" offset=".094"/><stop stop-color="#FFAFD6" offset=".102"/><stop stop-color="#FFAFD5" offset=".109"/><stop stop-color="#FFAFD4" offset=".117"/><stop stop-color="#FFAFD3" offset=".125"/><stop stop-color="#FFAFD3" offset=".133"/><stop stop-color="#FFB0D2" offset=".141"/><stop stop-color="#FFB0D1" offset=".148"/><stop stop-color="#FFB0D1" offset=".156"/><stop stop-color="#FFB0D0" offset=".164"/><stop stop-color="#FFB0CF" offset=".172"/><stop stop-color="#FFB0CE" offset=".18"/><stop stop-color="#FFB0CE" offset=".188"/><stop stop-color="#FFB0CD" offset=".195"/><stop stop-color="#FFB0CC" offset=".203"/><stop stop-color="#FFB0CB" offset=".211"/><stop stop-color="#FFB0CB" offset=".219"/><stop stop-color="#FFB1CA" offset=".227"/><stop stop-color="#FFB1C9" offset=".234"/><stop stop-color="#FFB1C9" offset=".242"/><stop stop-color="#FFB1C8" offset=".25"/><stop stop-color="#FFB1C7" offset=".258"/><stop stop-color="#FFB1C6" offset=".266"/><stop stop-color="#FFB1C6" offset=".273"/><stop stop-color="#FFB1C5" offset=".281"/><stop stop-color="#FFB1C4" offset=".289"/><stop stop-color="#FFB1C4" offset=".297"/><stop stop-color="#FFB1C3" offset=".305"/><stop stop-color="#FFB2C2" offset=".313"/><stop stop-color="#FFB2C1" offset=".32"/><stop stop-color="#FFB2C1" offset=".328"/><stop stop-color="#FFB2C0" offset=".336"/><stop stop-color="#FFB2BF" offset=".344"/><stop stop-color="#FFB2BE" offset=".352"/><stop stop-color="#FFB2BE" offset=".359"/><stop stop-color="#FFB2BD" offset=".367"/><stop stop-color="#FFB2BC" offset=".375"/><stop stop-color="#FFB2BC" offset=".383"/><stop stop-color="#FFB2BB" offset=".391"/><stop stop-color="#FFB3BA" offset=".398"/><stop stop-color="#FFB3B9" offset=".406"/><stop stop-color="#FFB3B9" offset=".414"/><stop stop-color="#FFB3B8" offset=".422"/><stop stop-color="#FFB3B7" offset=".43"/><stop stop-color="#FFB3B7" offset=".438"/><stop stop-color="#FFB3B6" offset=".445"/><stop stop-color="#FFB3B5" offset=".453"/><stop stop-color="#FFB3B4" offset=".461"/><stop stop-color="#FFB3B4" offset=".469"/><stop stop-color="#FFB3B3" offset=".477"/><stop stop-color="#FFB4B2" offset=".484"/><stop stop-color="#FFB4B1" offset=".492"/><stop stop-color="#FFB4B1" offset=".5"/><stop stop-color="#FFB4B0" offset=".508"/><stop stop-color="#FFB4AF" offset=".516"/><stop stop-color="#FFB4AF" offset=".523"/><stop stop-color="#FFB4AE" offset=".531"/><stop stop-color="#FFB4AD" offset=".539"/><stop stop-color="#FFB4AC" offset=".547"/><stop stop-color="#FFB4AC" offset=".555"/><stop stop-color="#FFB4AB" offset=".563"/><stop stop-color="#FFB5AA" offset=".57"/><stop stop-color="#FFB5AA" offset=".578"/><stop stop-color="#FFB5A9" offset=".586"/><stop stop-color="#FFB5A8" offset=".594"/><stop stop-color="#FFB5A7" offset=".602"/><stop stop-color="#FFB5A7" offset=".609"/><stop stop-color="#FFB5A5" offset=".613"/><stop stop-color="#FFB5A4" offset=".617"/><stop stop-color="#FFB5A3" offset=".621"/><stop stop-color="#FFB6A1" offset=".625"/><stop stop-color="#FFB6A0" offset=".629"/><stop stop-color="#FFB69E" offset=".633"/><stop stop-color="#FFB69D" offset=".637"/><stop stop-color="#FFB69B" offset=".641"/><stop stop-color="#FFB79A" offset=".645"/><stop stop-color="#FFB798" offset=".648"/><stop stop-color="#FFB796" offset=".652"/><stop stop-color="#FFB795" offset=".656"/><stop stop-color="#FFB793" offset=".66"/><stop stop-color="#FFB792" offset=".664"/><stop stop-color="#FFB890" offset=".668"/><stop stop-color="#FFB88F" offset=".672"/><stop stop-color="#FFB88D" offset=".676"/><stop stop-color="#FFB88C" offset=".68"/><stop stop-color="#FFB88A" offset=".684"/><stop stop-color="#FFB989" offset=".688"/><stop stop-color="#FFB987" offset=".691"/><stop stop-color="#FFB986" offset=".695"/><stop stop-color="#FFB984" offset=".699"/><stop stop-color="#FFB983" offset=".703"/><stop stop-color="#FFB981" offset=".707"/><stop stop-color="#FFBA7F" offset=".711"/><stop stop-color="#FFBA7E" offset=".715"/><stop stop-color="#FFBA7C" offset=".719"/><stop stop-color="#FFBA7B" offset=".723"/><stop stop-color="#FFBA79" offset=".727"/><stop stop-color="#FFBB78" offset=".73"/><stop stop-color="#FFBB76" offset=".734"/><stop stop-color="#FFBB75" offset=".738"/><stop stop-color="#FFBB73" offset=".742"/><stop stop-color="#FFBB72" offset=".746"/><stop stop-color="#FFBC70" offset=".75"/><stop stop-color="#FFBC6F" offset=".754"/><stop stop-color="#FFBC6D" offset=".758"/><stop stop-color="#FFBC6C" offset=".762"/><stop stop-color="#FFBC6A" offset=".766"/><stop stop-color="#FFBC68" offset=".77"/><stop stop-color="#FFBD67" offset=".773"/><stop stop-color="#FFBD65" offset=".777"/><stop stop-color="#FFBD64" offset=".781"/><stop stop-color="#FFBD62" offset=".785"/><stop stop-color="#FFBD61" offset=".789"/><stop stop-color="#FFBE5F" offset=".793"/><stop stop-color="#FFBE5E" offset=".797"/><stop stop-color="#FFBE5C" offset=".801"/><stop stop-color="#FFBE5B" offset=".805"/><stop stop-color="#FFBE59" offset=".809"/><stop stop-color="#FFBE58" offset=".813"/><stop stop-color="#FFBF56" offset=".816"/><stop stop-color="#FFBF55" offset=".82"/><stop stop-color="#FFBF53" offset=".824"/><stop stop-color="#FFBF51" offset=".828"/><stop stop-color="#FFBF50" offset=".832"/><stop stop-color="#FFC04E" offset=".836"/><stop stop-color="#FFC04D" offset=".84"/><stop stop-color="#FFC04B" offset=".844"/><stop stop-color="#FFC04A" offset=".848"/><stop stop-color="#FFC048" offset=".852"/><stop stop-color="#FFC047" offset=".855"/><stop stop-color="#FFC145" offset=".859"/><stop stop-color="#FFC144" offset=".863"/><stop stop-color="#FFC142" offset=".867"/><stop stop-color="#FFC141" offset=".871"/><stop stop-color="#FFC13F" offset=".875"/><stop stop-color="#FFC23E" offset=".879"/><stop stop-color="#FFC23C" offset=".883"/><stop stop-color="#FFC23A" offset=".887"/><stop stop-color="#FFC239" offset=".891"/><stop stop-color="#FFC237" offset=".895"/><stop stop-color="#FFC236" offset=".898"/><stop stop-color="#FFC334" offset=".902"/><stop stop-color="#FFC333" offset=".906"/><stop stop-color="#FFC332" offset=".91"/><stop stop-color="#FFC331" offset=".914"/><stop stop-color="#FFC331" offset=".922"/><stop stop-color="#FFC331" offset=".938"/><stop stop-color="#FFC331" offset="1"/></linearGradient><linearGradient x1="0" gradientTransform="matrix(43.5 0 0 43.5 135.295 125.512)" xmlns:xlink="http://www.w3.org/1999/xlink" y1="0" x2="1.005" gradientUnits="userSpaceOnUse" y2=".995" xlink:type="simple" xlink:actuate="onLoad" id="l" xlink:show="other"><stop stop-color="#8C52FF" offset="0"/><stop stop-color="#8C52FE" offset=".004"/><stop stop-color="#8B52FE" offset=".008"/><stop stop-color="#8B51FD" offset=".012"/><stop stop-color="#8B51FD" offset=".016"/><stop stop-color="#8A51FC" offset=".02"/><stop stop-color="#8A51FC" offset=".023"/><stop stop-color="#8A50FB" offset=".027"/><stop stop-color="#8950FB" offset=".031"/><stop stop-color="#8950FA" offset=".035"/><stop stop-color="#894FFA" offset=".039"/><stop stop-color="#894FF9" offset=".043"/><stop stop-color="#884FF9" offset=".047"/><stop stop-color="#884FF8" offset=".051"/><stop stop-color="#884EF7" offset=".055"/><stop stop-color="#874EF7" offset=".059"/><stop stop-color="#874EF6" offset=".063"/><stop stop-color="#874EF6" offset=".066"/><stop stop-color="#864DF5" offset=".07"/><stop stop-color="#864DF5" offset=".074"/><stop stop-color="#864DF4" offset=".078"/><stop stop-color="#854DF4" offset=".082"/><stop stop-color="#854CF3" offset=".086"/><stop stop-color="#854CF3" offset=".09"/><stop stop-color="#844CF2" offset=".094"/><stop stop-color="#844BF2" offset=".098"/><stop stop-color="#844BF1" offset=".102"/><stop stop-color="#834BF1" offset=".105"/><stop stop-color="#834BF0" offset=".109"/><stop stop-color="#834AEF" offset=".113"/><stop stop-color="#824AEF" offset=".117"/><stop stop-color="#824AEE" offset=".121"/><stop stop-color="#824AEE" offset=".125"/><stop stop-color="#8249ED" offset=".129"/><stop stop-color="#8149ED" offset=".133"/><stop stop-color="#8149EC" offset=".137"/><stop stop-color="#8149EC" offset=".141"/><stop stop-color="#8048EB" offset=".145"/><stop stop-color="#8048EB" offset=".148"/><stop stop-color="#8048EA" offset=".152"/><stop stop-color="#7F47EA" offset=".156"/><stop stop-color="#7F47E9" offset=".16"/><stop stop-color="#7F47E8" offset=".164"/><stop stop-color="#7E47E8" offset=".168"/><stop stop-color="#7E46E7" offset=".172"/><stop stop-color="#7E46E7" offset=".176"/><stop stop-color="#7D46E6" offset=".18"/><stop stop-color="#7D46E6" offset=".184"/><stop stop-color="#7D45E5" offset=".188"/><stop stop-color="#7C45E5" offset=".191"/><stop stop-color="#7C45E4" offset=".195"/><stop stop-color="#7C45E4" offset=".199"/><stop stop-color="#7C44E3" offset=".203"/><stop stop-color="#7B44E3" offset=".207"/><stop stop-color="#7B44E2" offset=".211"/><stop stop-color="#7B43E1" offset=".215"/><stop stop-color="#7A43E1" offset=".219"/><stop stop-color="#7A43E0" offset=".223"/><stop stop-color="#7A43E0" offset=".227"/><stop stop-color="#7942DF" offset=".23"/><stop stop-color="#7942DF" offset=".234"/><stop stop-color="#7942DE" offset=".238"/><stop stop-color="#7842DE" offset=".242"/><stop stop-color="#7841DD" offset=".246"/><stop stop-color="#7841DD" offset=".25"/><stop stop-color="#7741DC" offset=".254"/><stop stop-color="#7741DC" offset=".258"/><stop stop-color="#7740DB" offset=".262"/><stop stop-color="#7640DB" offset=".266"/><stop stop-color="#7640DA" offset=".27"/><stop stop-color="#763FD9" offset=".273"/><stop stop-color="#753FD9" offset=".277"/><stop stop-color="#753FD8" offset=".281"/><stop stop-color="#753FD8" offset=".285"/><stop stop-color="#753ED7" offset=".289"/><stop stop-color="#743ED7" offset=".293"/><stop stop-color="#743ED6" offset=".297"/><stop stop-color="#743ED6" offset=".301"/><stop stop-color="#733DD5" offset=".305"/><stop stop-color="#733DD5" offset=".309"/><stop stop-color="#733DD4" offset=".313"/><stop stop-color="#723CD4" offset=".316"/><stop stop-color="#723CD3" offset=".32"/><stop stop-color="#723CD2" offset=".324"/><stop stop-color="#713CD2" offset=".328"/><stop stop-color="#713BD1" offset=".332"/><stop stop-color="#713BD1" offset=".336"/><stop stop-color="#703BD0" offset=".34"/><stop stop-color="#703BD0" offset=".344"/><stop stop-color="#703ACF" offset=".348"/><stop stop-color="#6F3ACF" offset=".352"/><stop stop-color="#6F3ACE" offset=".355"/><stop stop-color="#6F3ACE" offset=".359"/><stop stop-color="#6F39CD" offset=".363"/><stop stop-color="#6E39CD" offset=".367"/><stop stop-color="#6E39CC" offset=".371"/><stop stop-color="#6E39CB" offset=".375"/><stop stop-color="#6D38CB" offset=".379"/><stop stop-color="#6D38CA" offset=".383"/><stop stop-color="#6D38CA" offset=".387"/><stop stop-color="#6C37C9" offset=".391"/><stop stop-color="#6C37C9" offset=".395"/><stop stop-color="#6C37C8" offset=".398"/><stop stop-color="#6B37C8" offset=".402"/><stop stop-color="#6B36C7" offset=".406"/><stop stop-color="#6B36C7" offset=".41"/><stop stop-color="#6A36C6" offset=".414"/><stop stop-color="#6A36C6" offset=".418"/><stop stop-color="#6A35C5" offset=".422"/><stop stop-color="#6935C5" offset=".426"/><stop stop-color="#6935C4" offset=".43"/><stop stop-color="#6934C3" offset=".434"/><stop stop-color="#6834C3" offset=".438"/><stop stop-color="#6834C2" offset=".441"/><stop stop-color="#6834C2" offset=".445"/><stop stop-color="#6833C1" offset=".449"/><stop stop-color="#6733C1" offset=".453"/><stop stop-color="#6733C0" offset=".457"/><stop stop-color="#6733C0" offset=".461"/><stop stop-color="#6632BF" offset=".465"/><stop stop-color="#6632BF" offset=".469"/><stop stop-color="#6632BE" offset=".473"/><stop stop-color="#6532BE" offset=".477"/><stop stop-color="#6531BD" offset=".48"/><stop stop-color="#6531BC" offset=".484"/><stop stop-color="#6431BC" offset=".488"/><stop stop-color="#6430BB" offset=".492"/><stop stop-color="#6430BB" offset=".496"/><stop stop-color="#6330BA" offset=".5"/><stop stop-color="#6330BA" offset=".504"/><stop stop-color="#632FB9" offset=".508"/><stop stop-color="#622FB9" offset=".512"/><stop stop-color="#622FB8" offset=".516"/><stop stop-color="#622FB8" offset=".52"/><stop stop-color="#622EB7" offset=".523"/><stop stop-color="#612EB7" offset=".527"/><stop stop-color="#612EB6" offset=".531"/><stop stop-color="#612EB6" offset=".535"/><stop stop-color="#602DB5" offset=".539"/><stop stop-color="#602DB4" offset=".543"/><stop stop-color="#602DB4" offset=".547"/><stop stop-color="#5F2CB3" offset=".551"/><stop stop-color="#5F2CB3" offset=".555"/><stop stop-color="#5F2CB2" offset=".559"/><stop stop-color="#5E2CB2" offset=".563"/><stop stop-color="#5E2BB1" offset=".566"/><stop stop-color="#5E2BB1" offset=".57"/><stop stop-color="#5D2BB0" offset=".574"/><stop stop-color="#5D2BB0" offset=".578"/><stop stop-color="#5D2AAF" offset=".582"/><stop stop-color="#5C2AAF" offset=".586"/><stop stop-color="#5C2AAE" offset=".59"/><stop stop-color="#5C2AAD" offset=".594"/><stop stop-color="#5B29AD" offset=".598"/><stop stop-color="#5B29AC" offset=".602"/><stop stop-color="#5B29AC" offset=".605"/><stop stop-color="#5B28AB" offset=".609"/><stop stop-color="#5A28AB" offset=".613"/><stop stop-color="#5A28AA" offset=".617"/><stop stop-color="#5A28AA" offset=".621"/><stop stop-color="#5927A9" offset=".625"/><stop stop-color="#5927A9" offset=".629"/><stop stop-color="#5927A8" offset=".633"/><stop stop-color="#5827A8" offset=".637"/><stop stop-color="#5826A7" offset=".641"/><stop stop-color="#5826A6" offset=".645"/><stop stop-color="#5726A6" offset=".648"/><stop stop-color="#5726A5" offset=".652"/><stop stop-color="#5725A5" offset=".656"/><stop stop-color="#5625A4" offset=".66"/><stop stop-color="#5625A4" offset=".664"/><stop stop-color="#5624A3" offset=".668"/><stop stop-color="#5524A3" offset=".672"/><stop stop-color="#5524A2" offset=".676"/><stop stop-color="#5524A2" offset=".68"/><stop stop-color="#5523A1" offset=".684"/><stop stop-color="#5423A1" offset=".688"/><stop stop-color="#5423A0" offset=".691"/><stop stop-color="#5423A0" offset=".695"/><stop stop-color="#53229F" offset=".699"/><stop stop-color="#53229E" offset=".703"/><stop stop-color="#53229E" offset=".707"/><stop stop-color="#52229D" offset=".711"/><stop stop-color="#52219D" offset=".715"/><stop stop-color="#52219C" offset=".719"/><stop stop-color="#51219C" offset=".723"/><stop stop-color="#51209B" offset=".727"/><stop stop-color="#51209B" offset=".73"/><stop stop-color="#50209A" offset=".734"/><stop stop-color="#50209A" offset=".738"/><stop stop-color="#501F99" offset=".742"/><stop stop-color="#4F1F99" offset=".746"/><stop stop-color="#4F1F98" offset=".75"/><stop stop-color="#4F1F97" offset=".754"/><stop stop-color="#4F1E97" offset=".758"/><stop stop-color="#4E1E96" offset=".762"/><stop stop-color="#4E1E96" offset=".766"/><stop stop-color="#4E1E95" offset=".77"/><stop stop-color="#4D1D95" offset=".773"/><stop stop-color="#4D1D94" offset=".777"/><stop stop-color="#4D1D94" offset=".781"/><stop stop-color="#4C1C93" offset=".785"/><stop stop-color="#4C1C93" offset=".789"/><stop stop-color="#4C1C92" offset=".793"/><stop stop-color="#4B1C92" offset=".797"/><stop stop-color="#4B1B91" offset=".801"/><stop stop-color="#4B1B90" offset=".805"/><stop stop-color="#4A1B90" offset=".809"/><stop stop-color="#4A1B8F" offset=".813"/><stop stop-color="#4A1A8F" offset=".816"/><stop stop-color="#491A8E" offset=".82"/><stop stop-color="#491A8E" offset=".824"/><stop stop-color="#491A8D" offset=".828"/><stop stop-color="#48198D" offset=".832"/><stop stop-color="#48198C" offset=".836"/><stop stop-color="#48198C" offset=".84"/><stop stop-color="#48188B" offset=".844"/><stop stop-color="#47188B" offset=".848"/><stop stop-color="#47188A" offset=".852"/><stop stop-color="#47188A" offset=".855"/><stop stop-color="#461789" offset=".859"/><stop stop-color="#461788" offset=".863"/><stop stop-color="#461788" offset=".867"/><stop stop-color="#451787" offset=".871"/><stop stop-color="#451687" offset=".875"/><stop stop-color="#451686" offset=".879"/><stop stop-color="#441686" offset=".883"/><stop stop-color="#441685" offset=".887"/><stop stop-color="#441585" offset=".891"/><stop stop-color="#431584" offset=".895"/><stop stop-color="#431584" offset=".898"/><stop stop-color="#431483" offset=".902"/><stop stop-color="#421483" offset=".906"/><stop stop-color="#421482" offset=".91"/><stop stop-color="#421481" offset=".914"/><stop stop-color="#421381" offset=".918"/><stop stop-color="#411380" offset=".922"/><stop stop-color="#411380" offset=".926"/><stop stop-color="#41137F" offset=".93"/><stop stop-color="#40127F" offset=".934"/><stop stop-color="#40127E" offset=".938"/><stop stop-color="#40127E" offset=".941"/><stop stop-color="#3F127D" offset=".945"/><stop stop-color="#3F117D" offset=".949"/><stop stop-color="#3F117C" offset=".953"/><stop stop-color="#3E117C" offset=".957"/><stop stop-color="#3E107B" offset=".961"/><stop stop-color="#3E107A" offset=".965"/><stop stop-color="#3D107A" offset=".969"/><stop stop-color="#3D1079" offset=".973"/><stop stop-color="#3D0F79" offset=".977"/><stop stop-color="#3C0F78" offset=".98"/><stop stop-color="#3C0F78" offset=".984"/><stop stop-color="#3C0F77" offset=".988"/><stop stop-color="#3B0E77" offset=".992"/><stop stop-color="#3B0E76" offset=".996"/><stop stop-color="#3B0E76" offset="1"/></linearGradient><linearGradient x1="-.144" gradientTransform="rotate(110.403 74.777 151.628) scale(43.5)" xmlns:xlink="http://www.w3.org/1999/xlink" y1="-.143" x2="1.149" gradientUnits="userSpaceOnUse" y2="1.138" xlink:type="simple" xlink:actuate="onLoad" id="q" xlink:show="other"><stop stop-color="#8C52FF" offset="0"/><stop stop-color="#8C52FF" offset=".063"/><stop stop-color="#8C52FF" offset=".094"/><stop stop-color="#8C52FF" offset=".109"/><stop stop-color="#8C52FE" offset=".113"/><stop stop-color="#8B52FE" offset=".117"/><stop stop-color="#8B51FD" offset=".121"/><stop stop-color="#8B51FD" offset=".125"/><stop stop-color="#8A51FC" offset=".129"/><stop stop-color="#8A50FB" offset=".133"/><stop stop-color="#8950FB" offset=".137"/><stop stop-color="#8950FA" offset=".141"/><stop stop-color="#894FF9" offset=".145"/><stop stop-color="#884FF8" offset=".148"/><stop stop-color="#884FF8" offset=".152"/><stop stop-color="#874EF7" offset=".156"/><stop stop-color="#874EF6" offset=".16"/><stop stop-color="#864DF6" offset=".164"/><stop stop-color="#864DF5" offset=".168"/><stop stop-color="#864DF4" offset=".172"/><stop stop-color="#854CF4" offset=".176"/><stop stop-color="#854CF3" offset=".18"/><stop stop-color="#844CF2" offset=".184"/><stop stop-color="#844BF2" offset=".188"/><stop stop-color="#844BF1" offset=".191"/><stop stop-color="#834BF0" offset=".195"/><stop stop-color="#834AEF" offset=".199"/><stop stop-color="#824AEF" offset=".203"/><stop stop-color="#824AEE" offset=".207"/><stop stop-color="#8249ED" offset=".211"/><stop stop-color="#8149ED" offset=".215"/><stop stop-color="#8149EC" offset=".219"/><stop stop-color="#8048EB" offset=".223"/><stop stop-color="#8048EB" offset=".227"/><stop stop-color="#8048EA" offset=".23"/><stop stop-color="#7F47E9" offset=".234"/><stop stop-color="#7F47E9" offset=".238"/><stop stop-color="#7E47E8" offset=".242"/><stop stop-color="#7E46E7" offset=".246"/><stop stop-color="#7E46E7" offset=".25"/><stop stop-color="#7D46E6" offset=".254"/><stop stop-color="#7D45E5" offset=".258"/><stop stop-color="#7C45E4" offset=".262"/><stop stop-color="#7C45E4" offset=".266"/><stop stop-color="#7B44E3" offset=".27"/><stop stop-color="#7B44E2" offset=".273"/><stop stop-color="#7B44E2" offset=".277"/><stop stop-color="#7A43E1" offset=".281"/><stop stop-color="#7A43E0" offset=".285"/><stop stop-color="#7942E0" offset=".289"/><stop stop-color="#7942DF" offset=".293"/><stop stop-color="#7942DE" offset=".297"/><stop stop-color="#7841DE" offset=".301"/><stop stop-color="#7841DD" offset=".305"/><stop stop-color="#7741DC" offset=".309"/><stop stop-color="#7740DB" offset=".313"/><stop stop-color="#7740DB" offset=".316"/><stop stop-color="#7640DA" offset=".32"/><stop stop-color="#763FD9" offset=".324"/><stop stop-color="#753FD9" offset=".328"/><stop stop-color="#753FD8" offset=".332"/><stop stop-color="#753ED7" offset=".336"/><stop stop-color="#743ED7" offset=".34"/><stop stop-color="#743ED6" offset=".344"/><stop stop-color="#733DD5" offset=".348"/><stop stop-color="#733DD5" offset=".352"/><stop stop-color="#733DD4" offset=".355"/><stop stop-color="#723CD3" offset=".359"/><stop stop-color="#723CD2" offset=".363"/><stop stop-color="#713CD2" offset=".367"/><stop stop-color="#713BD1" offset=".371"/><stop stop-color="#703BD0" offset=".375"/><stop stop-color="#703BD0" offset=".379"/><stop stop-color="#703ACF" offset=".383"/><stop stop-color="#6F3ACE" offset=".387"/><stop stop-color="#6F3ACE" offset=".391"/><stop stop-color="#6E39CD" offset=".395"/><stop stop-color="#6E39CC" offset=".398"/><stop stop-color="#6E39CC" offset=".402"/><stop stop-color="#6D38CB" offset=".406"/><stop stop-color="#6D38CA" offset=".41"/><stop stop-color="#6C38CA" offset=".414"/><stop stop-color="#6C37C9" offset=".418"/><stop stop-color="#6C37C8" offset=".422"/><stop stop-color="#6B36C7" offset=".426"/><stop stop-color="#6B36C7" offset=".43"/><stop stop-color="#6A36C6" offset=".434"/><stop stop-color="#6A35C5" offset=".438"/><stop stop-color="#6A35C5" offset=".441"/><stop stop-color="#6935C4" offset=".445"/><stop stop-color="#6934C3" offset=".449"/><stop stop-color="#6834C3" offset=".453"/><stop stop-color="#6834C2" offset=".457"/><stop stop-color="#6833C1" offset=".461"/><stop stop-color="#6733C1" offset=".465"/><stop stop-color="#6733C0" offset=".469"/><stop stop-color="#6632BF" offset=".473"/><stop stop-color="#6632BE" offset=".477"/><stop stop-color="#6532BE" offset=".48"/><stop stop-color="#6531BD" offset=".484"/><stop stop-color="#6531BC" offset=".488"/><stop stop-color="#6431BC" offset=".492"/><stop stop-color="#6430BB" offset=".496"/><stop stop-color="#6330BA" offset=".5"/><stop stop-color="#6330BA" offset=".504"/><stop stop-color="#632FB9" offset=".508"/><stop stop-color="#622FB8" offset=".512"/><stop stop-color="#622FB8" offset=".516"/><stop stop-color="#612EB7" offset=".52"/><stop stop-color="#612EB6" offset=".523"/><stop stop-color="#612EB5" offset=".527"/><stop stop-color="#602DB5" offset=".531"/><stop stop-color="#602DB4" offset=".535"/><stop stop-color="#5F2DB3" offset=".539"/><stop stop-color="#5F2CB3" offset=".543"/><stop stop-color="#5F2CB2" offset=".547"/><stop stop-color="#5E2CB1" offset=".551"/><stop stop-color="#5E2BB1" offset=".555"/><stop stop-color="#5D2BB0" offset=".559"/><stop stop-color="#5D2AAF" offset=".563"/><stop stop-color="#5C2AAF" offset=".566"/><stop stop-color="#5C2AAE" offset=".57"/><stop stop-color="#5C29AD" offset=".574"/><stop stop-color="#5B29AD" offset=".578"/><stop stop-color="#5B29AC" offset=".582"/><stop stop-color="#5A28AB" offset=".586"/><stop stop-color="#5A28AA" offset=".59"/><stop stop-color="#5A28AA" offset=".594"/><stop stop-color="#5927A9" offset=".598"/><stop stop-color="#5927A8" offset=".602"/><stop stop-color="#5827A8" offset=".605"/><stop stop-color="#5826A7" offset=".609"/><stop stop-color="#5826A6" offset=".613"/><stop stop-color="#5726A6" offset=".617"/><stop stop-color="#5725A5" offset=".621"/><stop stop-color="#5625A4" offset=".625"/><stop stop-color="#5625A4" offset=".629"/><stop stop-color="#5624A3" offset=".633"/><stop stop-color="#5524A2" offset=".637"/><stop stop-color="#5524A1" offset=".641"/><stop stop-color="#5423A1" offset=".645"/><stop stop-color="#5423A0" offset=".648"/><stop stop-color="#54239F" offset=".652"/><stop stop-color="#53229F" offset=".656"/><stop stop-color="#53229E" offset=".66"/><stop stop-color="#52229D" offset=".664"/><stop stop-color="#52219D" offset=".668"/><stop stop-color="#51219C" offset=".672"/><stop stop-color="#51219B" offset=".676"/><stop stop-color="#51209B" offset=".68"/><stop stop-color="#50209A" offset=".684"/><stop stop-color="#501F99" offset=".688"/><stop stop-color="#4F1F99" offset=".691"/><stop stop-color="#4F1F98" offset=".695"/><stop stop-color="#4F1E97" offset=".699"/><stop stop-color="#4E1E96" offset=".703"/><stop stop-color="#4E1E96" offset=".707"/><stop stop-color="#4D1D95" offset=".711"/><stop stop-color="#4D1D94" offset=".715"/><stop stop-color="#4D1D94" offset=".719"/><stop stop-color="#4C1C93" offset=".723"/><stop stop-color="#4C1C92" offset=".727"/><stop stop-color="#4B1C92" offset=".73"/><stop stop-color="#4B1B91" offset=".734"/><stop stop-color="#4B1B90" offset=".738"/><stop stop-color="#4A1B90" offset=".742"/><stop stop-color="#4A1A8F" offset=".746"/><stop stop-color="#491A8E" offset=".75"/><stop stop-color="#491A8D" offset=".754"/><stop stop-color="#49198D" offset=".758"/><stop stop-color="#48198C" offset=".762"/><stop stop-color="#48198B" offset=".766"/><stop stop-color="#47188B" offset=".77"/><stop stop-color="#47188A" offset=".773"/><stop stop-color="#461889" offset=".777"/><stop stop-color="#461789" offset=".781"/><stop stop-color="#461788" offset=".785"/><stop stop-color="#451787" offset=".789"/><stop stop-color="#451687" offset=".793"/><stop stop-color="#441686" offset=".797"/><stop stop-color="#441685" offset=".801"/><stop stop-color="#441584" offset=".805"/><stop stop-color="#431584" offset=".809"/><stop stop-color="#431583" offset=".813"/><stop stop-color="#421482" offset=".816"/><stop stop-color="#421482" offset=".82"/><stop stop-color="#421381" offset=".824"/><stop stop-color="#411380" offset=".828"/><stop stop-color="#411380" offset=".832"/><stop stop-color="#40127F" offset=".836"/><stop stop-color="#40127E" offset=".84"/><stop stop-color="#40127E" offset=".844"/><stop stop-color="#3F117D" offset=".848"/><stop stop-color="#3F117C" offset=".852"/><stop stop-color="#3E117C" offset=".855"/><stop stop-color="#3E107B" offset=".859"/><stop stop-color="#3D107A" offset=".863"/><stop stop-color="#3D1079" offset=".867"/><stop stop-color="#3D0F79" offset=".871"/><stop stop-color="#3C0F78" offset=".875"/><stop stop-color="#3C0F77" offset=".879"/><stop stop-color="#3B0E77" offset=".883"/><stop stop-color="#3B0E76" offset=".887"/><stop stop-color="#3B0E75" offset=".891"/><stop stop-color="#3A0D75" offset=".895"/><stop stop-color="#3A0D74" offset=".898"/><stop stop-color="#3A0D74" offset=".906"/><stop stop-color="#3A0D74" offset=".938"/><stop stop-color="#3A0D74" offset="1"/></linearGradient></defs><g clip-path="url(#a)"><g clip-path="url(#b)"><path fill="url(#c)" d="M 151.796875 83.765625 L 101.546875 83.765625 L 101.546875 134.015625 L 151.796875 134.015625 Z M 151.796875 83.765625"/></g></g><g clip-path="url(#d)"><g clip-path="url(#e)"><g clip-path="url(#f)"><g clip-path="url(#g)"><g clip-path="url(#h)"><path fill="url(#i)" d="M 267.457031 144.855469 L 280.800781 86.179688 L 222.128906 72.835938 L 208.78125 131.511719 Z M 267.457031 144.855469"/></g></g></g></g></g><g clip-path="url(#j)"><g clip-path="url(#k)"><path fill="url(#l)" d="M 135.292969 125.511719 L 135.292969 169.011719 L 178.792969 169.011719 L 178.792969 125.511719 Z M 135.292969 125.511719"/></g></g><g clip-path="url(#m)"><g clip-path="url(#n)"><g clip-path="url(#o)"><g clip-path="url(#p)"><path fill="url(#q)" d="M 250.976562 130.734375 L 198.519531 111.222656 L 179.011719 163.679688 L 231.464844 183.191406 Z M 250.976562 130.734375"/></g></g></g></g><g clip-path="url(#r)"><path fill="#5CE1E6" d="M 278.695312 105.351562 C 278.695312 105.351562 274.601562 76.886719 247.972656 76.886719 C 236.984375 76.886719 220.269531 81.742188 214.578125 90.210938 L 161.144531 90.210938 C 155.453125 81.742188 138.730469 76.886719 127.75 76.886719 C 101.125 76.886719 97.03125 105.351562 97.03125 105.351562 C 97.03125 105.351562 82.570312 161.703125 89.617188 175.753906 C 96.65625 189.804688 117.789062 189.804688 124.835938 175.753906 C 126.460938 172.507812 133.097656 166.671875 139.675781 161.390625 C 143.964844 166.695312 150.449219 170.152344 157.8125 170.152344 C 169.578125 170.152344 179.21875 161.449219 180.847656 150.164062 L 194.886719 150.164062 C 196.515625 161.449219 206.160156 170.152344 217.921875 170.152344 C 225.285156 170.152344 231.761719 166.695312 236.058594 161.398438 C 242.628906 166.679688 249.273438 172.515625 250.90625 175.761719 C 257.953125 189.808594 279.085938 189.808594 286.125 175.761719 C 293.15625 161.703125 278.695312 105.351562 278.695312 105.351562 Z M 127.753906 90.210938 C 131.449219 90.210938 134.433594 93.195312 134.433594 96.871094 C 134.433594 100.554688 131.449219 103.535156 127.753906 103.535156 C 124.0625 103.535156 121.074219 100.554688 121.074219 96.871094 C 121.074219 93.195312 124.0625 90.210938 127.753906 90.210938 Z M 114.398438 116.855469 C 110.703125 116.855469 107.71875 113.878906 107.71875 110.195312 C 107.71875 106.519531 110.703125 103.535156 114.398438 103.535156 C 118.089844 103.535156 121.074219 106.519531 121.074219 110.195312 C 121.074219 113.878906 118.082031 116.855469 114.398438 116.855469 Z M 127.753906 130.179688 C 124.0625 130.179688 121.074219 127.203125 121.074219 123.519531 C 121.074219 119.839844 124.0625 116.855469 127.753906 116.855469 C 131.449219 116.855469 134.433594 119.839844 134.433594 123.519531 C 134.433594 127.203125 131.441406 130.179688 127.753906 130.179688 Z M 134.433594 110.195312 C 134.433594 106.519531 137.417969 103.535156 141.113281 103.535156 C 144.808594 103.535156 147.792969 106.519531 147.792969 110.195312 C 147.792969 113.878906 144.808594 116.855469 141.113281 116.855469 C 137.417969 116.855469 134.433594 113.878906 134.433594 110.195312 Z M 157.8125 163.488281 C 148.585938 163.488281 141.113281 156.042969 141.113281 146.835938 C 141.113281 137.636719 148.585938 130.179688 157.8125 130.179688 C 167.027344 130.179688 174.507812 137.636719 174.507812 146.835938 C 174.507812 156.042969 167.027344 163.488281 157.8125 163.488281 Z M 247.980469 90.210938 C 251.671875 90.210938 254.660156 93.195312 254.660156 96.871094 C 254.660156 100.554688 251.671875 103.535156 247.980469 103.535156 C 244.285156 103.535156 241.300781 100.554688 241.300781 96.871094 C 241.300781 93.195312 244.285156 90.210938 247.980469 90.210938 Z M 217.921875 163.488281 C 208.699219 163.488281 201.226562 156.042969 201.226562 146.835938 C 201.226562 137.636719 208.699219 130.179688 217.921875 130.179688 C 227.140625 130.179688 234.621094 137.636719 234.621094 146.835938 C 234.621094 156.042969 227.140625 163.488281 217.921875 163.488281 Z M 234.621094 116.855469 C 230.925781 116.855469 227.941406 113.878906 227.941406 110.195312 C 227.941406 106.519531 230.925781 103.535156 234.621094 103.535156 C 238.316406 103.535156 241.300781 106.519531 241.300781 110.195312 C 241.300781 113.878906 238.308594 116.855469 234.621094 116.855469 Z M 247.980469 130.179688 C 244.285156 130.179688 241.300781 127.203125 241.300781 123.519531 C 241.300781 119.839844 244.285156 116.855469 247.980469 116.855469 C 251.671875 116.855469 254.660156 119.839844 254.660156 123.519531 C 254.660156 127.203125 251.667969 130.179688 247.980469 130.179688 Z M 261.335938 116.855469 C 257.644531 116.855469 254.660156 113.878906 254.660156 110.195312 C 254.660156 106.519531 257.644531 103.535156 261.335938 103.535156 C 265.03125 103.535156 268.015625 106.519531 268.015625 110.195312 C 268.015625 113.878906 265.023438 116.855469 261.335938 116.855469 Z M 261.335938 116.855469"/></g><g fill="#5CE1E6"><use x="9.334" y="264.688" xmlns:xlink="http://www.w3.org/1999/xlink" xlink:href="#s" xlink:type="simple" xlink:actuate="onLoad" xlink:show="embed"/></g><g fill="#5CE1E6"><use x="56.84" y="264.688" xmlns:xlink="http://www.w3.org/1999/xlink" xlink:href="#t" xlink:type="simple" xlink:actuate="onLoad" xlink:show="embed"/></g><g fill="#5CE1E6"><use x="88.361" y="264.688" xmlns:xlink="http://www.w3.org/1999/xlink" xlink:href="#u" xlink:type="simple" xlink:actuate="onLoad" xlink:show="embed"/></g><g fill="#5CE1E6"><use x="140.354" y="264.688" xmlns:xlink="http://www.w3.org/1999/xlink" xlink:href="#v" xlink:type="simple" xlink:actuate="onLoad" xlink:show="embed"/></g><g fill="#5CE1E6"><use x="175.353" y="264.688" xmlns:xlink="http://www.w3.org/1999/xlink" xlink:href="#w" xlink:type="simple" xlink:actuate="onLoad" xlink:show="embed"/></g><g fill="#5CE1E6"><use x="189.15" y="264.688" xmlns:xlink="http://www.w3.org/1999/xlink" xlink:href="#x" xlink:type="simple" xlink:actuate="onLoad" xlink:show="embed"/></g><g fill="#5CE1E6"><use x="224.485" y="264.688" xmlns:xlink="http://www.w3.org/1999/xlink" xlink:href="#y" xlink:type="simple" xlink:actuate="onLoad" xlink:show="embed"/></g><g fill="#5CE1E6"><use x="247.2" y="264.688" xmlns:xlink="http://www.w3.org/1999/xlink" xlink:href="#t" xlink:type="simple" xlink:actuate="onLoad" xlink:show="embed"/></g><g fill="#5CE1E6"><use x="278.721" y="264.688" xmlns:xlink="http://www.w3.org/1999/xlink" xlink:href="#z" xlink:type="simple" xlink:actuate="onLoad" xlink:show="embed"/></g><g fill="#5CE1E6"><use x="315.178" y="264.688" xmlns:xlink="http://www.w3.org/1999/xlink" xlink:href="#v" xlink:type="simple" xlink:actuate="onLoad" xlink:show="embed"/></g><g fill="#5CE1E6"><use x="350.177" y="264.688" xmlns:xlink="http://www.w3.org/1999/xlink" xlink:href="#y" xlink:type="simple" xlink:actuate="onLoad" xlink:show="embed"/></g></svg>