<svg xmlns="http://www.w3.org/2000/svg" width="375" viewBox="0 0 375 375" height="375" version="1.0"><defs><clipPath id="a"><path d="M 29 59 L 345 59 L 345 317 L 29 317 Z M 29 59"/></clipPath><clipPath id="b"><path d="M -6.523438 144.488281 L 291.335938 37.46875 L 358.285156 223.804688 L 60.429688 330.828125 Z M -6.523438 144.488281"/></clipPath><clipPath id="c"><path d="M -6.523438 144.488281 L 291.335938 37.46875 L 358.285156 223.804688 L 60.429688 330.828125 Z M -6.523438 144.488281"/></clipPath></defs><path fill="#FF0C00" d="M 178.480469 15.777344 C 83.628906 15.777344 6.730469 92.671875 6.730469 187.527344 C 6.730469 282.378906 83.628906 359.277344 178.480469 359.277344 C 273.335938 359.277344 350.230469 282.378906 350.230469 187.527344 C 350.230469 92.671875 273.335938 15.777344 178.480469 15.777344 Z M 178.480469 15.777344"/><g clip-path="url(#a)"><g clip-path="url(#b)"><g clip-path="url(#c)"><path fill="#FFF" d="M 61.292969 120.722656 C 44.957031 126.59375 32.847656 140.621094 29.484375 157.628906 L 29.261719 158.722656 L 29.304688 159.863281 C 29.304688 159.863281 29.976562 182.648438 32.058594 209.355469 C 34.140625 236.058594 37.128906 265.972656 43.585938 283.949219 C 52.773438 309.519531 81.234375 322.917969 106.832031 313.71875 C 129.402344 305.609375 142.488281 282.605469 138.9375 259.699219 L 139.078125 260.875 C 138.9375 256.777344 138.445312 252.140625 137.9375 247.757812 C 137.394531 243.070312 140.042969 238.796875 144.417969 237.222656 L 233.929688 205.0625 C 238.335938 203.476562 243.070312 205.101562 245.632812 209.0625 C 248.03125 212.769531 250.601562 216.65625 253.101562 219.90625 L 252.464844 218.910156 C 264.3125 238.867188 289.050781 248.246094 311.609375 240.144531 C 337.203125 230.945312 350.632812 202.5 341.445312 176.929688 C 334.984375 158.953125 318.25 133.976562 302.859375 112.054688 C 287.46875 90.132812 273.484375 72.128906 273.484375 72.128906 L 272.792969 71.222656 L 271.925781 70.519531 C 258.503906 59.542969 240.238281 56.429688 223.902344 62.296875 Z M 67.972656 139.320312 L 230.585938 80.894531 C 240.265625 77.414062 250.945312 79.40625 258.96875 85.742188 C 259.984375 87.058594 272.175781 102.800781 286.671875 123.453125 C 301.761719 144.925781 318.289062 170.988281 322.828125 183.617188 C 328.40625 199.148438 320.46875 215.960938 304.925781 221.546875 C 291.257812 226.457031 276.535156 220.777344 269.445312 208.835938 L 269.132812 208.316406 L 268.816406 207.871094 C 266.972656 205.472656 264.523438 201.871094 262.222656 198.34375 L 262.210938 198.3125 C 254.753906 186.820312 240.234375 181.800781 227.25 186.464844 L 137.738281 218.628906 C 124.753906 223.292969 116.738281 236.425781 118.320312 250.046875 C 118.792969 254.234375 119.191406 258.570312 119.296875 261.59375 L 119.335938 262.140625 L 119.429688 262.738281 C 121.558594 276.460938 113.847656 290.203125 100.148438 295.125 C 84.605469 300.707031 67.78125 292.789062 62.203125 277.261719 C 57.664062 264.632812 53.824219 234.007812 51.800781 207.84375 C 49.835938 182.6875 49.21875 162.785156 49.167969 161.125 C 51.320312 151.128906 58.292969 142.796875 67.972656 139.320312 Z M 81.300781 154.917969 L 87.984375 173.511719 L 69.367188 180.203125 L 76.050781 198.796875 L 94.664062 192.109375 L 101.347656 210.703125 L 119.964844 204.015625 L 113.28125 185.417969 L 131.898438 178.730469 L 125.214844 160.136719 L 106.597656 166.824219 L 99.917969 148.226562 Z M 220.921875 104.75 C 215.789062 106.59375 213.113281 112.261719 214.957031 117.394531 C 216.796875 122.523438 222.46875 125.191406 227.605469 123.347656 C 232.738281 121.5 235.414062 115.832031 233.570312 110.703125 C 231.726562 105.574219 226.058594 102.90625 220.921875 104.75 Z M 208.988281 130.035156 C 203.851562 131.878906 201.175781 137.546875 203.019531 142.679688 C 204.863281 147.808594 210.535156 150.476562 215.667969 148.632812 C 220.804688 146.785156 223.480469 141.117188 221.636719 135.988281 C 219.792969 130.859375 214.121094 128.191406 208.988281 130.035156 Z M 246.21875 116.65625 C 241.085938 118.503906 238.410156 124.171875 240.253906 129.300781 C 242.097656 134.429688 247.765625 137.097656 252.902344 135.253906 C 258.035156 133.410156 260.710938 127.742188 258.867188 122.613281 C 257.027344 117.480469 251.355469 114.8125 246.21875 116.65625 Z M 234.285156 141.941406 C 229.152344 143.789062 226.476562 149.457031 228.320312 154.585938 C 230.160156 159.714844 235.832031 162.382812 240.96875 160.539062 C 246.101562 158.695312 248.777344 153.027344 246.933594 147.894531 C 245.089844 142.765625 239.421875 140.097656 234.285156 141.941406 Z M 234.285156 141.941406"/></g></g></g></svg>